STARTFONT 2.1
FONT -gnu-Unifont Upper Sample-Medium-R-Normal-Sans-16-160-75-75-c-80-iso10646-1
SIZE 16 75 75
FONTBOUNDINGBOX 16 16 0 -2
STARTPROPERTIES 24
COPYRIGHT "Copyright (C) 2014 Roman Czyborra, Paul Hardy, Qianqian Fang, Andrew Miller, et al. Licensed under the GNU General Public License; either version 2, or (at your option) a later version, with the GNU Font Embedding Exception."
FONT_VERSION "7.0.06"
FONT_TYPE "Bitmap"
FOUNDRY "GNU"
FAMILY_NAME "Unifont Upper Sample"
WEIGHT_NAME "Medium"
SLANT "R"
SETWIDTH_NAME "Normal"
ADD_STYLE_NAME "Sans Serif"
PIXEL_SIZE 16
POINT_SIZE 160
RESOLUTION_X 75
RESOLUTION_Y 75
SPACING "C"
AVERAGE_WIDTH 80
CHARSET_REGISTRY "ISO10646"
CHARSET_ENCODING "1"
UNDERLINE_POSITION -2
UNDERLINE_THICKNESS 1
CAP_HEIGHT 10
X_HEIGHT 8
FONT_ASCENT 14
FONT_DESCENT 2
DEFAULT_CHAR 65533
ENDPROPERTIES
CHARS 7684
STARTCHAR U+0000
ENCODING 0
SWIDTH 500 0
DWIDTH 8 0
BBX 8 16 0 -2
BITMAP 
00
00
00
41
41
7F
49
49
08
08
08
08
08
08
00
00
ENDCHAR
STARTCHAR U+0001
ENCODING 1
SWIDTH 1000 0
DWIDTH 16 0
BBX 16 16 0 -2
BITMAP 
5555
8000
3399
AA20
332D
AA24
3399
8000
0001
9FE0
1011
9008
1011
9FE0
0001
AAAA
ENDCHAR
STARTCHAR U+0002
ENCODING 2
SWIDTH 500 0
DWIDTH 8 0
BBX 8 16 0 -2
BITMAP 
00
00
00
49
49
2A
2A
1C
1C
3E
08
08
08
08
00
00
ENDCHAR
STARTCHAR U+0003
ENCODING 3
SWIDTH 500 0
DWIDTH 8 0
BBX 8 16 0 -2
BITMAP 
00
00
00
62
54
48
48
47
41
41
41
41
41
7F
00
00
ENDCHAR
STARTCHAR U+0004
ENCODING 4
SWIDTH 500 0
DWIDTH 8 0
BBX 8 16 0 -2
BITMAP 
00
00
00
1C
28
3C
28
20
20
20
20
20
20
20
00
00
ENDCHAR
STARTCHAR U+0005
ENCODING 5
SWIDTH 500 0
DWIDTH 8 0
BBX 8 16 0 -2
BITMAP 
00
00
00
40
40
40
40
40
7C
40
40
40
40
40
00
00
ENDCHAR
STARTCHAR U+0006
ENCODING 6
SWIDTH 500 0
DWIDTH 8 0
BBX 8 16 0 -2
BITMAP 
00
00
00
2A
55
55
00
7F
22
1C
08
1C
22
41
00
00
ENDCHAR
STARTCHAR U+0007
ENCODING 7
SWIDTH 500 0
DWIDTH 8 0
BBX 8 16 0 -2
BITMAP 
00
00
00
7F
00
49
49
49
49
00
08
08
08
08
00
00
ENDCHAR
STARTCHAR U+0008
ENCODING 8
SWIDTH 500 0
DWIDTH 8 0
BBX 8 16 0 -2
BITMAP 
00
00
00
08
12
21
12
0B
08
08
08
08
08
08
00
00
ENDCHAR
STARTCHAR U+0009
ENCODING 9
SWIDTH 500 0
DWIDTH 8 0
BBX 8 16 0 -2
BITMAP 
00
00
00
50
4D
3A
34
54
54
54
52
4A
2A
29
00
00
ENDCHAR
STARTCHAR U+000A
ENCODING 10
SWIDTH 500 0
DWIDTH 8 0
BBX 8 16 0 -2
BITMAP 
00
00
00
7F
41
41
7F
41
41
41
7F
41
41
7F
00
00
ENDCHAR
STARTCHAR U+000B
ENCODING 11
SWIDTH 500 0
DWIDTH 8 0
BBX 8 16 0 -2
BITMAP 
00
00
00
41
41
22
22
5D
49
1C
22
22
41
41
00
00
ENDCHAR
STARTCHAR U+000C
ENCODING 12
SWIDTH 1000 0
DWIDTH 16 0
BBX 16 16 0 -2
BITMAP 
0000
FFFF
CF73
B66D
B76D
B76D
CE33
FFFF
FFFF
CE71
B5AF
B5AF
B5AF
CE71
FFFF
0000
ENDCHAR
STARTCHAR U+000D
ENCODING 13
SWIDTH 500 0
DWIDTH 8 0
BBX 8 16 0 -2
BITMAP 
00
00
00
7F
40
58
64
44
08
10
10
10
08
08
00
00
ENDCHAR
STARTCHAR U+000E
ENCODING 14
SWIDTH 1000 0
DWIDTH 16 0
BBX 16 16 0 -2
BITMAP 
0000
0000
0000
7000
0800
0800
0820
0820
0FFC
0924
0924
0924
0924
0924
0000
0000
ENDCHAR
STARTCHAR U+000F
ENCODING 15
SWIDTH 1000 0
DWIDTH 16 0
BBX 16 16 0 -2
BITMAP 
0000
0000
07C0
0920
1110
2108
2108
3FF8
2108
2108
1110
0920
07C0
0000
0000
0000
ENDCHAR
STARTCHAR U+0010
ENCODING 16
SWIDTH 500 0
DWIDTH 8 0
BBX 8 16 0 -2
BITMAP 
00
00
00
2A
55
55
00
3E
2A
2A
2A
49
49
49
00
00
ENDCHAR
STARTCHAR U+0011
ENCODING 17
SWIDTH 500 0
DWIDTH 8 0
BBX 8 16 0 -2
BITMAP 
00
00
00
24
48
7F
51
51
22
62
22
14
14
08
08
00
ENDCHAR
STARTCHAR U+0012
ENCODING 18
SWIDTH 500 0
DWIDTH 8 0
BBX 8 16 0 -2
BITMAP 
00
00
00
3E
41
55
55
36
14
14
14
14
14
08
08
00
ENDCHAR
STARTCHAR U+0013
ENCODING 19
SWIDTH 1000 0
DWIDTH 16 0
BBX 16 16 0 -2
BITMAP 
0000
0000
0000
0C00
0300
0100
0098
2CA4
2B88
1090
0090
0110
0308
0C04
0000
0000
ENDCHAR
STARTCHAR U+0014
ENCODING 20
SWIDTH 500 0
DWIDTH 8 0
BBX 8 16 0 -2
BITMAP 
00
00
00
41
41
22
22
14
14
2A
2A
49
49
2A
00
00
ENDCHAR
STARTCHAR U+0015
ENCODING 21
SWIDTH 500 0
DWIDTH 8 0
BBX 8 16 0 -2
BITMAP 
00
00
00
72
49
7D
0A
09
08
08
08
08
08
08
00
00
ENDCHAR
STARTCHAR U+0016
ENCODING 22
SWIDTH 500 0
DWIDTH 8 0
BBX 8 16 0 -2
BITMAP 
00
00
00
42
44
42
44
44
48
48
50
50
60
40
00
00
ENDCHAR
STARTCHAR U+0017
ENCODING 23
SWIDTH 500 0
DWIDTH 8 0
BBX 8 16 0 -2
BITMAP 
00
00
00
62
14
72
11
62
04
04
04
04
04
04
00
00
ENDCHAR
STARTCHAR U+0018
ENCODING 24
SWIDTH 500 0
DWIDTH 8 0
BBX 8 16 0 -2
BITMAP 
00
00
00
23
52
52
3E
12
17
10
10
10
10
10
00
00
ENDCHAR
STARTCHAR U+0019
ENCODING 25
SWIDTH 500 0
DWIDTH 8 0
BBX 8 16 0 -2
BITMAP 
00
00
00
3E
00
3E
00
22
14
08
08
08
08
08
00
00
ENDCHAR
STARTCHAR U+001A
ENCODING 26
SWIDTH 500 0
DWIDTH 8 0
BBX 8 16 0 -2
BITMAP 
00
00
00
1C
49
2A
49
3E
08
08
08
08
08
08
00
00
ENDCHAR
STARTCHAR U+001B
ENCODING 27
SWIDTH 500 0
DWIDTH 8 0
BBX 8 16 0 -2
BITMAP 
00
00
00
55
55
22
22
55
55
08
08
08
08
08
00
00
ENDCHAR
STARTCHAR U+001C
ENCODING 28
SWIDTH 1000 0
DWIDTH 16 0
BBX 16 16 0 -2
BITMAP 
0000
0000
0000
1540
1540
1540
1548
1FD0
0008
0210
0500
0500
0880
0A80
0000
0000
ENDCHAR
STARTCHAR U+001D
ENCODING 29
SWIDTH 500 0
DWIDTH 8 0
BBX 8 16 0 -2
BITMAP 
00
00
00
41
41
41
5D
63
41
63
5D
41
41
41
00
00
ENDCHAR
STARTCHAR U+001E
ENCODING 30
SWIDTH 500 0
DWIDTH 8 0
BBX 8 16 0 -2
BITMAP 
00
00
00
08
08
08
3E
08
08
3E
08
08
08
08
00
00
ENDCHAR
STARTCHAR U+001F
ENCODING 31
SWIDTH 500 0
DWIDTH 8 0
BBX 8 16 0 -2
BITMAP 
00
00
40
60
50
48
40
58
44
58
40
48
50
60
40
00
ENDCHAR
STARTCHAR U+0020
ENCODING 32
SWIDTH 1000 0
DWIDTH 16 0
BBX 16 16 0 -2
BITMAP 
5555
8000
0E71
9048
0C71
8240
1C41
8000
0001
9FE0
1011
9008
1011
9FE0
0001
AAAA
ENDCHAR
STARTCHAR U+0021
ENCODING 33
SWIDTH 1000 0
DWIDTH 16 0
BBX 16 16 0 -2
BITMAP 
5555
8000
0101
8100
0101
8000
0101
8000
0001
9FE0
1011
9008
1011
9FE0
0001
AAAA
ENDCHAR
STARTCHAR U+0022
ENCODING 34
SWIDTH 1000 0
DWIDTH 16 0
BBX 16 16 0 -2
BITMAP 
5555
8000
0001
8280
0281
8000
0001
8000
0001
9FE0
1011
9008
1011
9FE0
0001
AAAA
ENDCHAR
STARTCHAR U+0023
ENCODING 35
SWIDTH 1000 0
DWIDTH 16 0
BBX 16 16 0 -2
BITMAP 
5555
8000
0281
87C0
0281
87C0
0281
8000
0001
9FE0
1011
9008
1011
9FE0
0001
AAAA
ENDCHAR
STARTCHAR U+0024
ENCODING 36
SWIDTH 1000 0
DWIDTH 16 0
BBX 16 16 0 -2
BITMAP 
5555
8080
01E1
8280
01C1
80A0
03C1
8080
0001
9FE0
1011
9008
1011
9FE0
0001
AAAA
ENDCHAR
STARTCHAR U+0025
ENCODING 37
SWIDTH 1000 0
DWIDTH 16 0
BBX 16 16 0 -2
BITMAP 
5555
8000
0481
8A80
0501
8140
02A1
8240
0001
9FE0
1011
9008
1011
9FE0
0001
AAAA
ENDCHAR
STARTCHAR U+0026
ENCODING 38
SWIDTH 1000 0
DWIDTH 16 0
BBX 16 16 0 -2
BITMAP 
5555
8000
0101
8280
0101
82C0
0281
8140
0001
9FE0
1011
9008
1011
9FE0
0001
AAAA
ENDCHAR
STARTCHAR U+0027
ENCODING 39
SWIDTH 1000 0
DWIDTH 16 0
BBX 16 16 0 -2
BITMAP 
5555
8000
0101
8100
0001
8000
0001
8000
0001
9FE0
1011
9008
1011
9FE0
0001
AAAA
ENDCHAR
STARTCHAR U+0028
ENCODING 40
SWIDTH 1000 0
DWIDTH 16 0
BBX 16 16 0 -2
BITMAP 
5555
8000
0081
8100
0101
8100
0081
8000
0001
9FE0
1011
9008
1011
9FE0
0001
AAAA
ENDCHAR
STARTCHAR U+0029
ENCODING 41
SWIDTH 1000 0
DWIDTH 16 0
BBX 16 16 0 -2
BITMAP 
5555
8000
0101
8080
0081
8080
0101
8000
0001
9FE0
1011
9008
1011
9FE0
0001
AAAA
ENDCHAR
STARTCHAR U+002A
ENCODING 42
SWIDTH 1000 0
DWIDTH 16 0
BBX 16 16 0 -2
BITMAP 
5555
8000
0101
8540
0381
8540
0101
8000
0001
9FE0
1011
9008
1011
9FE0
0001
AAAA
ENDCHAR
STARTCHAR U+002B
ENCODING 43
SWIDTH 1000 0
DWIDTH 16 0
BBX 16 16 0 -2
BITMAP 
5555
8000
0101
8100
07C1
8100
0101
8000
0001
9FE0
1011
9008
1011
9FE0
0001
AAAA
ENDCHAR
STARTCHAR U+002C
ENCODING 44
SWIDTH 1000 0
DWIDTH 16 0
BBX 16 16 0 -2
BITMAP 
5555
8000
0001
8000
0181
8080
0101
8000
0001
9FE0
1011
9008
1011
9FE0
0001
AAAA
ENDCHAR
STARTCHAR U+002D
ENCODING 45
SWIDTH 1000 0
DWIDTH 16 0
BBX 16 16 0 -2
BITMAP 
5555
8000
0001
8000
03C1
8000
0001
8000
0001
9FE0
1011
9008
1011
9FE0
0001
AAAA
ENDCHAR
STARTCHAR U+002E
ENCODING 46
SWIDTH 1000 0
DWIDTH 16 0
BBX 16 16 0 -2
BITMAP 
5555
8000
0001
8000
0001
8180
0181
8000
0001
9FE0
1011
9008
1011
9FE0
0001
AAAA
ENDCHAR
STARTCHAR U+002F
ENCODING 47
SWIDTH 1000 0
DWIDTH 16 0
BBX 16 16 0 -2
BITMAP 
5555
8000
0021
8040
0081
8100
0201
8000
0001
9FE0
1011
9008
1011
9FE0
0001
AAAA
ENDCHAR
STARTCHAR U+0030
ENCODING 48
SWIDTH 1000 0
DWIDTH 16 0
BBX 16 16 0 -2
BITMAP 
5555
8000
0181
8240
0241
8240
0181
8000
0001
9FE0
1011
9008
1011
9FE0
0001
AAAA
ENDCHAR
STARTCHAR U+0031
ENCODING 49
SWIDTH 1000 0
DWIDTH 16 0
BBX 16 16 0 -2
BITMAP 
5555
8000
0101
8300
0501
8100
07C1
8000
0001
9FE0
1011
9008
1011
9FE0
0001
AAAA
ENDCHAR
STARTCHAR U+0032
ENCODING 50
SWIDTH 1000 0
DWIDTH 16 0
BBX 16 16 0 -2
BITMAP 
5555
8000
0381
8040
0181
8200
03C1
8000
0001
9FE0
1011
9008
1011
9FE0
0001
AAAA
ENDCHAR
STARTCHAR U+0033
ENCODING 51
SWIDTH 1000 0
DWIDTH 16 0
BBX 16 16 0 -2
BITMAP 
5555
8000
0381
8040
0181
8040
0381
8000
0001
9FE0
1011
9008
1011
9FE0
0001
AAAA
ENDCHAR
STARTCHAR U+0034
ENCODING 52
SWIDTH 1000 0
DWIDTH 16 0
BBX 16 16 0 -2
BITMAP 
5555
8000
0241
8240
03C1
8040
0041
8000
0001
9FE0
1011
9008
1011
9FE0
0001
AAAA
ENDCHAR
STARTCHAR U+0035
ENCODING 53
SWIDTH 1000 0
DWIDTH 16 0
BBX 16 16 0 -2
BITMAP 
5555
8000
03C1
8200
0381
8040
0381
8000
0001
9FE0
1011
9008
1011
9FE0
0001
AAAA
ENDCHAR
STARTCHAR U+0036
ENCODING 54
SWIDTH 1000 0
DWIDTH 16 0
BBX 16 16 0 -2
BITMAP 
5555
8000
01C1
8200
0381
8240
0181
8000
0001
9FE0
1011
9008
1011
9FE0
0001
AAAA
ENDCHAR
STARTCHAR U+0037
ENCODING 55
SWIDTH 1000 0
DWIDTH 16 0
BBX 16 16 0 -2
BITMAP 
5555
8000
03C1
8040
0081
8100
0101
8000
0001
9FE0
1011
9008
1011
9FE0
0001
AAAA
ENDCHAR
STARTCHAR U+0038
ENCODING 56
SWIDTH 1000 0
DWIDTH 16 0
BBX 16 16 0 -2
BITMAP 
5555
8000
0181
8240
0181
8240
0181
8000
0001
9FE0
1011
9008
1011
9FE0
0001
AAAA
ENDCHAR
STARTCHAR U+0039
ENCODING 57
SWIDTH 1000 0
DWIDTH 16 0
BBX 16 16 0 -2
BITMAP 
5555
8000
0181
8240
01C1
8040
0381
8000
0001
9FE0
1011
9008
1011
9FE0
0001
AAAA
ENDCHAR
STARTCHAR U+003A
ENCODING 58
SWIDTH 1000 0
DWIDTH 16 0
BBX 16 16 0 -2
BITMAP 
5555
8000
0181
8180
0001
8180
0181
8000
0001
9FE0
1011
9008
1011
9FE0
0001
AAAA
ENDCHAR
STARTCHAR U+003B
ENCODING 59
SWIDTH 1000 0
DWIDTH 16 0
BBX 16 16 0 -2
BITMAP 
5555
8000
0181
8180
0001
8180
0081
8100
0001
9FE0
1011
9008
1011
9FE0
0001
AAAA
ENDCHAR
STARTCHAR U+003C
ENCODING 60
SWIDTH 1000 0
DWIDTH 16 0
BBX 16 16 0 -2
BITMAP 
5555
8000
0041
8180
0201
8180
0041
8000
0001
9FE0
1011
9008
1011
9FE0
0001
AAAA
ENDCHAR
STARTCHAR U+003D
ENCODING 61
SWIDTH 1000 0
DWIDTH 16 0
BBX 16 16 0 -2
BITMAP 
5555
8000
0001
83C0
0001
83C0
0001
8000
0001
9FE0
1011
9008
1011
9FE0
0001
AAAA
ENDCHAR
STARTCHAR U+003E
ENCODING 62
SWIDTH 1000 0
DWIDTH 16 0
BBX 16 16 0 -2
BITMAP 
5555
8000
0201
8180
0041
8180
0201
8000
0001
9FE0
1011
9008
1011
9FE0
0001
AAAA
ENDCHAR
STARTCHAR U+003F
ENCODING 63
SWIDTH 1000 0
DWIDTH 16 0
BBX 16 16 0 -2
BITMAP 
5555
8000
0301
8080
0101
8100
0001
8100
0001
9FE0
1011
9008
1011
9FE0
0001
AAAA
ENDCHAR
STARTCHAR U+0040
ENCODING 64
SWIDTH 1000 0
DWIDTH 16 0
BBX 16 16 0 -2
BITMAP 
5555
8380
0441
89A0
0AA1
89C0
0401
83C0
0001
9FE0
1011
9008
1011
9FE0
0001
AAAA
ENDCHAR
STARTCHAR U+0041
ENCODING 65
SWIDTH 1000 0
DWIDTH 16 0
BBX 16 16 0 -2
BITMAP 
5555
8000
0181
8240
03C1
8240
0241
8000
0001
9FE0
1011
9008
1011
9FE0
0001
AAAA
ENDCHAR
STARTCHAR U+0042
ENCODING 66
SWIDTH 1000 0
DWIDTH 16 0
BBX 16 16 0 -2
BITMAP 
5555
8000
0381
8240
0381
8240
0381
8000
0001
9FE0
1011
9008
1011
9FE0
0001
AAAA
ENDCHAR
STARTCHAR U+0043
ENCODING 67
SWIDTH 1000 0
DWIDTH 16 0
BBX 16 16 0 -2
BITMAP 
5555
8000
01C1
8200
0201
8200
01C1
8000
0001
9FE0
1011
9008
1011
9FE0
0001
AAAA
ENDCHAR
STARTCHAR U+0044
ENCODING 68
SWIDTH 1000 0
DWIDTH 16 0
BBX 16 16 0 -2
BITMAP 
5555
8000
0381
8240
0241
8240
0381
8000
0001
9FE0
1011
9008
1011
9FE0
0001
AAAA
ENDCHAR
STARTCHAR U+0045
ENCODING 69
SWIDTH 1000 0
DWIDTH 16 0
BBX 16 16 0 -2
BITMAP 
5555
8000
03C1
8200
0381
8200
03C1
8000
0001
9FE0
1011
9008
1011
9FE0
0001
AAAA
ENDCHAR
STARTCHAR U+0046
ENCODING 70
SWIDTH 1000 0
DWIDTH 16 0
BBX 16 16 0 -2
BITMAP 
5555
8000
03C1
8200
0381
8200
0201
8000
0001
9FE0
1011
9008
1011
9FE0
0001
AAAA
ENDCHAR
STARTCHAR U+0047
ENCODING 71
SWIDTH 1000 0
DWIDTH 16 0
BBX 16 16 0 -2
BITMAP 
5555
8000
0181
8200
02C1
8240
0181
8000
0001
9FE0
1011
9008
1011
9FE0
0001
AAAA
ENDCHAR
STARTCHAR U+0048
ENCODING 72
SWIDTH 1000 0
DWIDTH 16 0
BBX 16 16 0 -2
BITMAP 
5555
8000
0241
8240
03C1
8240
0241
8000
0001
9FE0
1011
9008
1011
9FE0
0001
AAAA
ENDCHAR
STARTCHAR U+0049
ENCODING 73
SWIDTH 1000 0
DWIDTH 16 0
BBX 16 16 0 -2
BITMAP 
5555
8000
07C1
8100
0101
8100
07C1
8000
0001
9FE0
1011
9008
1011
9FE0
0001
AAAA
ENDCHAR
STARTCHAR U+004A
ENCODING 74
SWIDTH 1000 0
DWIDTH 16 0
BBX 16 16 0 -2
BITMAP 
5555
8000
07C1
8100
0101
8100
0601
8000
0001
9FE0
1011
9008
1011
9FE0
0001
AAAA
ENDCHAR
STARTCHAR U+004B
ENCODING 75
SWIDTH 1000 0
DWIDTH 16 0
BBX 16 16 0 -2
BITMAP 
5555
8000
0241
8280
0301
8280
0241
8000
0001
9FE0
1011
9008
1011
9FE0
0001
AAAA
ENDCHAR
STARTCHAR U+004C
ENCODING 76
SWIDTH 1000 0
DWIDTH 16 0
BBX 16 16 0 -2
BITMAP 
5555
8000
0201
8200
0201
8200
03C1
8000
0001
9FE0
1011
9008
1011
9FE0
0001
AAAA
ENDCHAR
STARTCHAR U+004D
ENCODING 77
SWIDTH 1000 0
DWIDTH 16 0
BBX 16 16 0 -2
BITMAP 
5555
8000
0441
86C0
0541
8440
0441
8000
0001
9FE0
1011
9008
1011
9FE0
0001
AAAA
ENDCHAR
STARTCHAR U+004E
ENCODING 78
SWIDTH 1000 0
DWIDTH 16 0
BBX 16 16 0 -2
BITMAP 
5555
8000
0441
8640
0541
84C0
0441
8000
0001
9FE0
1011
9008
1011
9FE0
0001
AAAA
ENDCHAR
STARTCHAR U+004F
ENCODING 79
SWIDTH 1000 0
DWIDTH 16 0
BBX 16 16 0 -2
BITMAP 
5555
8000
0381
8440
0441
8440
0381
8000
0001
9FE0
1011
9008
1011
9FE0
0001
AAAA
ENDCHAR
STARTCHAR U+0050
ENCODING 80
SWIDTH 1000 0
DWIDTH 16 0
BBX 16 16 0 -2
BITMAP 
5555
8000
0381
8240
0381
8200
0201
8000
0001
9FE0
1011
9008
1011
9FE0
0001
AAAA
ENDCHAR
STARTCHAR U+0051
ENCODING 81
SWIDTH 1000 0
DWIDTH 16 0
BBX 16 16 0 -2
BITMAP 
5555
8000
0381
8440
0541
8480
0341
8000
0001
9FE0
1011
9008
1011
9FE0
0001
AAAA
ENDCHAR
STARTCHAR U+0052
ENCODING 82
SWIDTH 1000 0
DWIDTH 16 0
BBX 16 16 0 -2
BITMAP 
5555
8000
0381
8240
0381
8280
0241
8000
0001
9FE0
1011
9008
1011
9FE0
0001
AAAA
ENDCHAR
STARTCHAR U+0053
ENCODING 83
SWIDTH 1000 0
DWIDTH 16 0
BBX 16 16 0 -2
BITMAP 
5555
8000
01C1
8200
0181
8040
0381
8000
0001
9FE0
1011
9008
1011
9FE0
0001
AAAA
ENDCHAR
STARTCHAR U+0054
ENCODING 84
SWIDTH 1000 0
DWIDTH 16 0
BBX 16 16 0 -2
BITMAP 
5555
8000
07C1
8100
0101
8100
0101
8000
0001
9FE0
1011
9008
1011
9FE0
0001
AAAA
ENDCHAR
STARTCHAR U+0055
ENCODING 85
SWIDTH 1000 0
DWIDTH 16 0
BBX 16 16 0 -2
BITMAP 
5555
8000
0241
8240
0241
8240
0181
8000
0001
9FE0
1011
9008
1011
9FE0
0001
AAAA
ENDCHAR
STARTCHAR U+0056
ENCODING 86
SWIDTH 1000 0
DWIDTH 16 0
BBX 16 16 0 -2
BITMAP 
5555
8000
0441
8440
0281
8280
0101
8000
0001
9FE0
1011
9008
1011
9FE0
0001
AAAA
ENDCHAR
STARTCHAR U+0057
ENCODING 87
SWIDTH 1000 0
DWIDTH 16 0
BBX 16 16 0 -2
BITMAP 
5555
8000
0441
8440
0541
86C0
0441
8000
0001
9FE0
1011
9008
1011
9FE0
0001
AAAA
ENDCHAR
STARTCHAR U+0058
ENCODING 88
SWIDTH 1000 0
DWIDTH 16 0
BBX 16 16 0 -2
BITMAP 
5555
8000
0441
8280
0101
8280
0441
8000
0001
9FE0
1011
9008
1011
9FE0
0001
AAAA
ENDCHAR
STARTCHAR U+0059
ENCODING 89
SWIDTH 1000 0
DWIDTH 16 0
BBX 16 16 0 -2
BITMAP 
5555
8000
0441
8280
0101
8100
0101
8000
0001
9FE0
1011
9008
1011
9FE0
0001
AAAA
ENDCHAR
STARTCHAR U+005A
ENCODING 90
SWIDTH 1000 0
DWIDTH 16 0
BBX 16 16 0 -2
BITMAP 
5555
8000
03C1
8040
0181
8200
03C1
8000
0001
9FE0
1011
9008
1011
9FE0
0001
AAAA
ENDCHAR
STARTCHAR U+005B
ENCODING 91
SWIDTH 1000 0
DWIDTH 16 0
BBX 16 16 0 -2
BITMAP 
5555
8000
0181
8100
0101
8100
0181
8000
0001
9FE0
1011
9008
1011
9FE0
0001
AAAA
ENDCHAR
STARTCHAR U+005C
ENCODING 92
SWIDTH 1000 0
DWIDTH 16 0
BBX 16 16 0 -2
BITMAP 
5555
8000
0401
8200
0101
8080
0041
8000
0001
9FE0
1011
9008
1011
9FE0
0001
AAAA
ENDCHAR
STARTCHAR U+005D
ENCODING 93
SWIDTH 1000 0
DWIDTH 16 0
BBX 16 16 0 -2
BITMAP 
5555
8000
0181
8080
0081
8080
0181
8000
0001
9FE0
1011
9008
1011
9FE0
0001
AAAA
ENDCHAR
STARTCHAR U+005E
ENCODING 94
SWIDTH 1000 0
DWIDTH 16 0
BBX 16 16 0 -2
BITMAP 
5555
8000
0101
8280
0441
8000
0001
8000
0001
9FE0
1011
9008
1011
9FE0
0001
AAAA
ENDCHAR
STARTCHAR U+005F
ENCODING 95
SWIDTH 1000 0
DWIDTH 16 0
BBX 16 16 0 -2
BITMAP 
5555
8000
0001
8000
0001
8000
07C1
8000
0001
9FE0
1011
9008
1011
9FE0
0001
AAAA
ENDCHAR
STARTCHAR U+0060
ENCODING 96
SWIDTH 1000 0
DWIDTH 16 0
BBX 16 16 0 -2
BITMAP 
5555
8000
0201
8100
0081
8000
0001
8000
0001
9FE0
1011
9008
1011
9FE0
0001
AAAA
ENDCHAR
STARTCHAR U+0061
ENCODING 97
SWIDTH 1000 0
DWIDTH 16 0
BBX 16 16 0 -2
BITMAP 
5555
8000
0381
8040
03C1
8240
01C1
8000
0001
9FE0
1011
9008
1011
9FE0
0001
AAAA
ENDCHAR
STARTCHAR U+0062
ENCODING 98
SWIDTH 1000 0
DWIDTH 16 0
BBX 16 16 0 -2
BITMAP 
5555
8000
0201
8200
0301
8280
0301
8000
0001
9FE0
1011
9008
1011
9FE0
0001
AAAA
ENDCHAR
STARTCHAR U+0063
ENCODING 99
SWIDTH 1000 0
DWIDTH 16 0
BBX 16 16 0 -2
BITMAP 
5555
8000
0001
8180
0201
8200
0181
8000
0001
9FE0
1011
9008
1011
9FE0
0001
AAAA
ENDCHAR
STARTCHAR U+0064
ENCODING 100
SWIDTH 1000 0
DWIDTH 16 0
BBX 16 16 0 -2
BITMAP 
5555
8000
0081
8080
0181
8280
0181
8000
0001
9FE0
1011
9008
1011
9FE0
0001
AAAA
ENDCHAR
STARTCHAR U+0065
ENCODING 101
SWIDTH 1000 0
DWIDTH 16 0
BBX 16 16 0 -2
BITMAP 
5555
8000
0181
8240
0381
8200
01C1
8000
0001
9FE0
1011
9008
1011
9FE0
0001
AAAA
ENDCHAR
STARTCHAR U+0066
ENCODING 102
SWIDTH 1000 0
DWIDTH 16 0
BBX 16 16 0 -2
BITMAP 
5555
8000
0181
8200
0301
8200
0201
8000
0001
9FE0
1011
9008
1011
9FE0
0001
AAAA
ENDCHAR
STARTCHAR U+0067
ENCODING 103
SWIDTH 1000 0
DWIDTH 16 0
BBX 16 16 0 -2
BITMAP 
5555
8000
0001
8180
0281
8180
0081
8300
0001
9FE0
1011
9008
1011
9FE0
0001
AAAA
ENDCHAR
STARTCHAR U+0068
ENCODING 104
SWIDTH 1000 0
DWIDTH 16 0
BBX 16 16 0 -2
BITMAP 
5555
8000
0201
8200
0301
8280
0281
8000
0001
9FE0
1011
9008
1011
9FE0
0001
AAAA
ENDCHAR
STARTCHAR U+0069
ENCODING 105
SWIDTH 1000 0
DWIDTH 16 0
BBX 16 16 0 -2
BITMAP 
5555
8000
0081
8000
0181
8080
01C1
8000
0001
9FE0
1011
9008
1011
9FE0
0001
AAAA
ENDCHAR
STARTCHAR U+006A
ENCODING 106
SWIDTH 1000 0
DWIDTH 16 0
BBX 16 16 0 -2
BITMAP 
5555
8000
0081
8000
0181
8080
0081
8100
0001
9FE0
1011
9008
1011
9FE0
0001
AAAA
ENDCHAR
STARTCHAR U+006B
ENCODING 107
SWIDTH 1000 0
DWIDTH 16 0
BBX 16 16 0 -2
BITMAP 
5555
8000
0201
8200
0281
8300
0281
8000
0001
9FE0
1011
9008
1011
9FE0
0001
AAAA
ENDCHAR
STARTCHAR U+006C
ENCODING 108
SWIDTH 1000 0
DWIDTH 16 0
BBX 16 16 0 -2
BITMAP 
5555
8000
0301
8100
0101
8100
0381
8000
0001
9FE0
1011
9008
1011
9FE0
0001
AAAA
ENDCHAR
STARTCHAR U+006D
ENCODING 109
SWIDTH 1000 0
DWIDTH 16 0
BBX 16 16 0 -2
BITMAP 
5555
8000
0001
8280
0541
8540
0541
8000
0001
9FE0
1011
9008
1011
9FE0
0001
AAAA
ENDCHAR
STARTCHAR U+006E
ENCODING 110
SWIDTH 1000 0
DWIDTH 16 0
BBX 16 16 0 -2
BITMAP 
5555
8000
0001
8280
0341
8240
0241
8000
0001
9FE0
1011
9008
1011
9FE0
0001
AAAA
ENDCHAR
STARTCHAR U+006F
ENCODING 111
SWIDTH 1000 0
DWIDTH 16 0
BBX 16 16 0 -2
BITMAP 
5555
8000
0001
8180
0241
8240
0181
8000
0001
9FE0
1011
9008
1011
9FE0
0001
AAAA
ENDCHAR
STARTCHAR U+0070
ENCODING 112
SWIDTH 1000 0
DWIDTH 16 0
BBX 16 16 0 -2
BITMAP 
5555
8000
0001
8300
0281
8300
0201
8200
0001
9FE0
1011
9008
1011
9FE0
0001
AAAA
ENDCHAR
STARTCHAR U+0071
ENCODING 113
SWIDTH 1000 0
DWIDTH 16 0
BBX 16 16 0 -2
BITMAP 
5555
8000
0001
8180
0281
81A0
00C1
8080
0001
9FE0
1011
9008
1011
9FE0
0001
AAAA
ENDCHAR
STARTCHAR U+0072
ENCODING 114
SWIDTH 1000 0
DWIDTH 16 0
BBX 16 16 0 -2
BITMAP 
5555
8000
0001
8180
0101
8100
0101
8000
0001
9FE0
1011
9008
1011
9FE0
0001
AAAA
ENDCHAR
STARTCHAR U+0073
ENCODING 115
SWIDTH 1000 0
DWIDTH 16 0
BBX 16 16 0 -2
BITMAP 
5555
8000
0181
8200
0101
8080
0301
8000
0001
9FE0
1011
9008
1011
9FE0
0001
AAAA
ENDCHAR
STARTCHAR U+0074
ENCODING 116
SWIDTH 1000 0
DWIDTH 16 0
BBX 16 16 0 -2
BITMAP 
5555
8000
0101
8380
0101
8100
0081
8000
0001
9FE0
1011
9008
1011
9FE0
0001
AAAA
ENDCHAR
STARTCHAR U+0075
ENCODING 117
SWIDTH 1000 0
DWIDTH 16 0
BBX 16 16 0 -2
BITMAP 
5555
8000
0001
8240
0241
82C0
0141
8000
0001
9FE0
1011
9008
1011
9FE0
0001
AAAA
ENDCHAR
STARTCHAR U+0076
ENCODING 118
SWIDTH 1000 0
DWIDTH 16 0
BBX 16 16 0 -2
BITMAP 
5555
8000
0001
8440
0281
8280
0101
8000
0001
9FE0
1011
9008
1011
9FE0
0001
AAAA
ENDCHAR
STARTCHAR U+0077
ENCODING 119
SWIDTH 1000 0
DWIDTH 16 0
BBX 16 16 0 -2
BITMAP 
5555
8000
0001
8440
0541
8540
0281
8000
0001
9FE0
1011
9008
1011
9FE0
0001
AAAA
ENDCHAR
STARTCHAR U+0078
ENCODING 120
SWIDTH 1000 0
DWIDTH 16 0
BBX 16 16 0 -2
BITMAP 
5555
8000
0001
8240
0181
8180
0241
8000
0001
9FE0
1011
9008
1011
9FE0
0001
AAAA
ENDCHAR
STARTCHAR U+0079
ENCODING 121
SWIDTH 1000 0
DWIDTH 16 0
BBX 16 16 0 -2
BITMAP 
5555
8000
0001
8240
02C1
8140
0041
8180
0001
9FE0
1011
9008
1011
9FE0
0001
AAAA
ENDCHAR
STARTCHAR U+007A
ENCODING 122
SWIDTH 1000 0
DWIDTH 16 0
BBX 16 16 0 -2
BITMAP 
5555
8000
0381
8080
0101
8200
0381
8000
0001
9FE0
1011
9008
1011
9FE0
0001
AAAA
ENDCHAR
STARTCHAR U+007B
ENCODING 123
SWIDTH 1000 0
DWIDTH 16 0
BBX 16 16 0 -2
BITMAP 
5555
8080
0101
8100
0201
8100
0101
8080
0001
9FE0
1011
9008
1011
9FE0
0001
AAAA
ENDCHAR
STARTCHAR U+007C
ENCODING 124
SWIDTH 1000 0
DWIDTH 16 0
BBX 16 16 0 -2
BITMAP 
5555
8000
0101
8100
0101
8100
0101
8000
0001
9FE0
1011
9008
1011
9FE0
0001
AAAA
ENDCHAR
STARTCHAR U+007D
ENCODING 125
SWIDTH 1000 0
DWIDTH 16 0
BBX 16 16 0 -2
BITMAP 
5555
8200
0101
8100
0081
8100
0101
8200
0001
9FE0
1011
9008
1011
9FE0
0001
AAAA
ENDCHAR
STARTCHAR U+007E
ENCODING 126
SWIDTH 1000 0
DWIDTH 16 0
BBX 16 16 0 -2
BITMAP 
5555
8000
0321
84C0
0001
8000
0001
8000
0001
9FE0
1011
9008
1011
9FE0
0001
AAAA
ENDCHAR
STARTCHAR U+007F
ENCODING 127
SWIDTH 1000 0
DWIDTH 16 0
BBX 16 16 0 -2
BITMAP 
5555
8000
3A59
A354
32D5
A254
3A59
8000
0001
9FE0
1011
9008
1011
9FE0
0001
AAAA
ENDCHAR
STARTCHAR U+0080
ENCODING 128
SWIDTH 500 0
DWIDTH 8 0
BBX 8 16 0 -2
BITMAP 
00
00
00
08
08
7F
14
22
22
22
41
41
41
41
00
00
ENDCHAR
STARTCHAR U+0081
ENCODING 129
SWIDTH 500 0
DWIDTH 8 0
BBX 8 16 0 -2
BITMAP 
00
00
0C
10
10
0C
7F
08
55
14
22
22
22
3E
00
00
ENDCHAR
STARTCHAR U+0082
ENCODING 130
SWIDTH 1000 0
DWIDTH 16 0
BBX 16 16 0 -2
BITMAP 
0000
1050
1560
0880
0500
1FC0
24B0
184C
1002
209C
2160
4100
4080
4080
0000
0000
ENDCHAR
STARTCHAR U+0083
ENCODING 131
SWIDTH 1000 0
DWIDTH 16 0
BBX 16 16 0 -2
BITMAP 
0000
0880
1540
1740
08C0
4820
2910
9108
5204
2182
A172
410C
4080
4080
0000
0000
ENDCHAR
STARTCHAR U+0084
ENCODING 132
SWIDTH 1000 0
DWIDTH 16 0
BBX 16 16 0 -2
BITMAP 
0000
0880
1540
1740
08C0
0820
4910
3108
1204
2182
2162
411C
4080
4080
0000
0000
ENDCHAR
STARTCHAR U+0085
ENCODING 133
SWIDTH 1000 0
DWIDTH 16 0
BBX 16 16 0 -2
BITMAP 
0000
0880
1540
1740
08C0
0820
4910
3108
9204
6982
2162
511C
4080
4080
0000
0000
ENDCHAR
STARTCHAR U+0086
ENCODING 134
SWIDTH 500 0
DWIDTH 8 0
BBX 8 16 0 -2
BITMAP 
00
00
00
3F
48
36
00
08
14
14
14
22
22
22
00
00
ENDCHAR
STARTCHAR U+0087
ENCODING 135
SWIDTH 500 0
DWIDTH 8 0
BBX 8 16 0 -2
BITMAP 
00
00
00
3F
48
36
00
08
08
1C
08
1C
08
08
00
00
ENDCHAR
STARTCHAR U+0088
ENCODING 136
SWIDTH 500 0
DWIDTH 8 0
BBX 8 16 0 -2
BITMAP 
00
00
00
12
29
44
00
08
14
14
14
22
22
22
00
00
ENDCHAR
STARTCHAR U+0089
ENCODING 137
SWIDTH 500 0
DWIDTH 8 0
BBX 8 16 0 -2
BITMAP 
00
00
00
12
29
44
00
04
04
0E
04
0E
04
04
00
00
ENDCHAR
STARTCHAR U+008A
ENCODING 138
SWIDTH 1000 0
DWIDTH 16 0
BBX 16 16 0 -2
BITMAP 
0000
0000
0800
1400
1F80
0440
0538
0408
07F8
0400
0A00
1100
1100
1100
0000
0000
ENDCHAR
STARTCHAR U+008B
ENCODING 139
SWIDTH 1000 0
DWIDTH 16 0
BBX 16 16 0 -2
BITMAP 
0000
0000
0800
1400
1F80
0440
0538
0408
07F8
0400
0E00
0400
0E00
0400
0400
0000
ENDCHAR
STARTCHAR U+008C
ENCODING 140
SWIDTH 1000 0
DWIDTH 16 0
BBX 16 16 0 -2
BITMAP 
0000
0000
0000
1838
2420
1FE0
0420
0A20
0A70
0A00
1100
1100
1100
1100
0000
0000
ENDCHAR
STARTCHAR U+008D
ENCODING 141
SWIDTH 1000 0
DWIDTH 16 0
BBX 16 16 0 -2
BITMAP 
0000
0000
0000
1838
2420
1FE0
0420
0420
0E70
0400
0E00
0400
0400
0400
0000
0000
ENDCHAR
STARTCHAR U+008E
ENCODING 142
SWIDTH 1000 0
DWIDTH 16 0
BBX 16 16 0 -2
BITMAP 
0000
0000
0000
0FE0
0540
1930
2108
2108
7FFC
0100
0100
0100
0100
0100
0000
0000
ENDCHAR
STARTCHAR U+008F
ENCODING 143
SWIDTH 500 0
DWIDTH 8 0
BBX 8 16 0 -2
BITMAP 
00
00
00
5C
42
42
3E
02
02
02
02
02
02
02
00
00
ENDCHAR
STARTCHAR U+0090
ENCODING 144
SWIDTH 1000 0
DWIDTH 16 0
BBX 16 16 0 -2
BITMAP 
0000
0000
1110
2AA8
2AA8
2448
1010
0060
0080
0080
0080
0080
0080
0080
0000
0000
ENDCHAR
STARTCHAR U+0091
ENCODING 145
SWIDTH 500 0
DWIDTH 8 0
BBX 8 16 0 -2
BITMAP 
00
00
00
04
0A
11
1F
31
51
5F
31
31
51
1F
00
00
ENDCHAR
STARTCHAR U+0092
ENCODING 146
SWIDTH 500 0
DWIDTH 8 0
BBX 8 16 0 -2
BITMAP 
00
00
00
08
08
12
24
78
40
40
40
40
40
40
00
00
ENDCHAR
STARTCHAR U+0093
ENCODING 147
SWIDTH 500 0
DWIDTH 8 0
BBX 8 16 0 -2
BITMAP 
00
00
00
38
20
20
38
08
08
1C
2A
3E
2A
1C
00
00
ENDCHAR
STARTCHAR U+0094
ENCODING 148
SWIDTH 500 0
DWIDTH 8 0
BBX 8 16 0 -2
BITMAP 
00
08
14
08
14
7E
28
28
18
1C
2A
3E
2A
1C
00
00
ENDCHAR
STARTCHAR U+0095
ENCODING 149
SWIDTH 1000 0
DWIDTH 16 0
BBX 16 16 0 -2
BITMAP 
0000
0000
2000
1000
0980
26B0
10C8
0990
06A0
00C0
0080
0080
0080
0080
0000
0000
ENDCHAR
STARTCHAR U+0096
ENCODING 150
SWIDTH 1000 0
DWIDTH 16 0
BBX 16 16 0 -2
BITMAP 
0000
0000
0000
3FF8
2000
2000
2000
3FF8
2108
2948
2528
2108
2948
2528
0000
0000
ENDCHAR
STARTCHAR U+0097
ENCODING 151
SWIDTH 1000 0
DWIDTH 16 0
BBX 16 16 0 -2
BITMAP 
0000
0100
0180
0140
07C0
0920
07C0
0540
0920
1110
1110
0920
0540
0380
0000
0000
ENDCHAR
STARTCHAR U+0098
ENCODING 152
SWIDTH 1000 0
DWIDTH 16 0
BBX 16 16 0 -2
BITMAP 
0000
0100
0380
0100
0BA0
0920
0440
0280
0920
0BA0
0920
0100
0100
0100
0000
0000
ENDCHAR
STARTCHAR U+0099
ENCODING 153
SWIDTH 1000 0
DWIDTH 16 0
BBX 16 16 0 -2
BITMAP 
0000
7C18
1224
1148
1090
0094
0188
0280
0280
0180
0080
01C0
0080
0140
0220
0000
ENDCHAR
STARTCHAR U+009A
ENCODING 154
SWIDTH 500 0
DWIDTH 8 0
BBX 8 16 0 -2
BITMAP 
00
00
00
42
42
7E
42
42
7E
42
42
40
40
40
00
00
ENDCHAR
STARTCHAR U+009B
ENCODING 155
SWIDTH 1000 0
DWIDTH 16 0
BBX 16 16 0 -2
BITMAP 
0000
0000
27C8
1290
0AA0
0440
1390
2108
2288
1450
0440
0820
0820
1010
0000
0000
ENDCHAR
STARTCHAR U+009C
ENCODING 156
SWIDTH 1000 0
DWIDTH 16 0
BBX 16 16 0 -2
BITMAP 
0000
0000
1800
2400
1800
07C0
0820
1010
16D0
1010
16D0
1010
0820
07C0
0000
0000
ENDCHAR
STARTCHAR U+009D
ENCODING 157
SWIDTH 1000 0
DWIDTH 16 0
BBX 16 16 0 -2
BITMAP 
0000
0000
4544
2548
3398
4924
4924
4924
4104
4D64
1110
0D60
0000
0380
0000
0000
ENDCHAR
STARTCHAR U+009E
ENCODING 158
SWIDTH 1000 0
DWIDTH 16 0
BBX 16 16 0 -2
BITMAP 
0000
3018
2828
27C8
2008
2308
2488
2108
2208
2488
2308
2008
3FF8
2108
2108
0000
ENDCHAR
STARTCHAR U+009F
ENCODING 159
SWIDTH 1000 0
DWIDTH 16 0
BBX 16 16 0 -2
BITMAP 
0000
0000
0000
1C20
2210
418C
0820
0820
0820
0A20
0A20
09A0
0820
0FA0
0000
0000
ENDCHAR
STARTCHAR U+00A0
ENCODING 160
SWIDTH 1000 0
DWIDTH 16 0
BBX 16 16 0 -2
BITMAP 
0000
0000
0000
0F00
10B0
2648
2954
4924
50B8
50A4
60B8
40A0
00A0
01F0
0000
0000
ENDCHAR
STARTCHAR U+00A1
ENCODING 161
SWIDTH 1000 0
DWIDTH 16 0
BBX 16 16 0 -2
BITMAP 
0000
0000
783C
47C4
2088
1110
1290
1450
27C8
2548
4544
27C8
1830
06C0
0100
0000
ENDCHAR
STARTCHAR U+00A2
ENCODING 162
SWIDTH 1000 0
DWIDTH 16 0
BBX 16 16 0 -2
BITMAP 
0000
0080
0140
0220
0490
0948
0490
0550
0550
0948
0490
0220
0140
0080
0000
0000
ENDCHAR
STARTCHAR U+00A3
ENCODING 163
SWIDTH 1000 0
DWIDTH 16 0
BBX 16 16 0 -2
BITMAP 
0000
0000
0000
0440
0380
0440
0C60
1290
0440
0820
1450
0280
0280
0280
0000
0000
ENDCHAR
STARTCHAR U+00A4
ENCODING 164
SWIDTH 1000 0
DWIDTH 16 0
BBX 16 16 0 -2
BITMAP 
0000
0000
0000
00C0
0100
0540
0920
0920
0540
0380
0100
0380
0540
0380
0100
0000
ENDCHAR
STARTCHAR U+00A5
ENCODING 165
SWIDTH 1000 0
DWIDTH 16 0
BBX 16 16 0 -2
BITMAP 
0000
0000
0000
0060
0080
0100
0280
0280
0280
0440
0AA0
0100
0970
1088
0F10
0000
ENDCHAR
STARTCHAR U+00A6
ENCODING 166
SWIDTH 1000 0
DWIDTH 16 0
BBX 16 16 0 -2
BITMAP 
0000
0000
0040
0080
0100
0280
0EE0
1450
2548
2928
4924
4004
4004
7FFC
0000
0000
ENDCHAR
STARTCHAR U+00A7
ENCODING 167
SWIDTH 500 0
DWIDTH 8 0
BBX 8 16 0 -2
BITMAP 
00
00
00
7F
41
41
41
41
41
41
41
7F
49
49
00
00
ENDCHAR
STARTCHAR U+00A8
ENCODING 168
SWIDTH 1000 0
DWIDTH 16 0
BBX 16 16 0 -2
BITMAP 
0000
0000
0000
3FFC
2024
28A4
2524
2224
2224
2224
2224
2224
2024
3FFC
0000
0000
ENDCHAR
STARTCHAR U+00A9
ENCODING 169
SWIDTH 1000 0
DWIDTH 16 0
BBX 16 16 0 -2
BITMAP 
0000
0000
0000
6248
1248
1150
18E0
1554
1948
1244
1240
1440
1440
1440
0000
0000
ENDCHAR
STARTCHAR U+00AA
ENCODING 170
SWIDTH 1000 0
DWIDTH 16 0
BBX 16 16 0 -2
BITMAP 
0000
0000
0000
0440
0AA0
0BA0
0440
07C0
0820
0FE0
0820
0FE0
1010
1FF0
0000
0000
ENDCHAR
STARTCHAR U+00AB
ENCODING 171
SWIDTH 1000 0
DWIDTH 16 0
BBX 16 16 0 -2
BITMAP 
0000
0100
0AA0
07C0
2008
5394
2448
07C0
0820
0FE0
0820
0FE0
1010
1FF0
0000
0000
ENDCHAR
STARTCHAR U+00AC
ENCODING 172
SWIDTH 1000 0
DWIDTH 16 0
BBX 16 16 0 -2
BITMAP 
0000
0000
0000
1FF0
1450
1390
1830
1450
1450
1830
1010
1FF0
1110
1110
0000
0000
ENDCHAR
STARTCHAR U+00AD
ENCODING 173
SWIDTH 1000 0
DWIDTH 16 0
BBX 16 16 0 -2
BITMAP 
0000
0000
0000
0000
1008
2004
5C3A
13C8
0810
0810
13C8
5C3A
2004
1008
0000
0000
ENDCHAR
STARTCHAR U+00AE
ENCODING 174
SWIDTH 1000 0
DWIDTH 16 0
BBX 16 16 0 -2
BITMAP 
0000
0000
0000
0000
0000
4004
3838
27C8
1010
1010
27C8
3838
4004
0000
0000
0000
ENDCHAR
STARTCHAR U+00AF
ENCODING 175
SWIDTH 1000 0
DWIDTH 16 0
BBX 16 16 0 -2
BITMAP 
0000
0000
0000
0000
2008
5014
4824
27C8
2008
2008
27C8
4824
5014
2008
0000
0000
ENDCHAR
STARTCHAR U+00B0
ENCODING 176
SWIDTH 1000 0
DWIDTH 16 0
BBX 16 16 0 -2
BITMAP 
0000
0000
0000
0000
0000
0000
003C
01D4
0E14
7014
5014
5014
7FFC
0000
0000
0000
ENDCHAR
STARTCHAR U+00B1
ENCODING 177
SWIDTH 1000 0
DWIDTH 16 0
BBX 16 16 0 -2
BITMAP 
0000
0000
1010
2828
4444
4444
3FF8
2828
4444
4444
4444
4444
4444
7C7C
0000
0000
ENDCHAR
STARTCHAR U+00B2
ENCODING 178
SWIDTH 1000 0
DWIDTH 16 0
BBX 16 16 0 -2
BITMAP 
0000
0000
0280
0280
0280
0480
0900
1200
14E0
1510
14C8
1228
09C8
0410
03E0
0000
ENDCHAR
STARTCHAR U+00B3
ENCODING 179
SWIDTH 500 0
DWIDTH 8 0
BBX 8 16 0 -2
BITMAP 
00
00
00
7F
08
1C
08
08
08
08
08
1C
08
7F
00
00
ENDCHAR
STARTCHAR U+00B4
ENCODING 180
SWIDTH 1000 0
DWIDTH 16 0
BBX 16 16 0 -2
BITMAP 
0000
0000
0000
3800
2400
1200
0EF0
0108
0204
0204
0204
0204
0108
00F0
0000
0000
ENDCHAR
STARTCHAR U+00B5
ENCODING 181
SWIDTH 500 0
DWIDTH 8 0
BBX 8 16 0 -2
BITMAP 
00
00
00
0F
14
24
44
44
44
44
44
24
14
0F
00
00
ENDCHAR
STARTCHAR U+00B6
ENCODING 182
SWIDTH 1000 0
DWIDTH 16 0
BBX 16 16 0 -2
BITMAP 
0000
0000
0000
4002
4182
F24F
4892
E527
566A
55AA
1428
1428
1008
3FFC
0000
0000
ENDCHAR
STARTCHAR U+00B7
ENCODING 183
SWIDTH 1000 0
DWIDTH 16 0
BBX 16 16 0 -2
BITMAP 
0000
0820
4444
2AA8
1010
A82A
4444
2288
0100
0100
0280
0440
0440
07C0
0000
0000
ENDCHAR
STARTCHAR U+00B8
ENCODING 184
SWIDTH 1000 0
DWIDTH 16 0
BBX 16 16 0 -2
BITMAP 
0000
0000
0440
0280
0100
7FFC
4444
4444
4444
4444
4444
4444
4444
4444
0000
0000
ENDCHAR
STARTCHAR U+00B9
ENCODING 185
SWIDTH 1000 0
DWIDTH 16 0
BBX 16 16 0 -2
BITMAP 
0000
0000
0100
0380
0540
0100
0100
1FF0
1010
1010
1010
3FF8
5014
5014
0000
0000
ENDCHAR
STARTCHAR U+00BA
ENCODING 186
SWIDTH 1000 0
DWIDTH 16 0
BBX 16 16 0 -2
BITMAP 
0000
0000
0810
1008
2244
4422
4812
7FFE
4812
4812
7FFE
4812
4812
7FFE
0000
0000
ENDCHAR
STARTCHAR U+00BB
ENCODING 187
SWIDTH 500 0
DWIDTH 8 0
BBX 8 16 0 -2
BITMAP 
00
00
00
60
50
48
44
48
50
50
48
44
48
7C
00
00
ENDCHAR
STARTCHAR U+00BC
ENCODING 188
SWIDTH 500 0
DWIDTH 8 0
BBX 8 16 0 -2
BITMAP 
00
00
00
41
21
1A
04
1A
22
42
42
42
42
3C
00
00
ENDCHAR
STARTCHAR U+00BD
ENCODING 189
SWIDTH 1000 0
DWIDTH 16 0
BBX 16 16 0 -2
BITMAP 
0000
0000
0770
0080
0140
0E38
1004
2002
2FFA
280A
180C
0808
0808
0FF8
0000
0000
ENDCHAR
STARTCHAR U+00BE
ENCODING 190
SWIDTH 1000 0
DWIDTH 16 0
BBX 16 16 0 -2
BITMAP 
0000
0000
0000
0880
0500
0200
1FC0
1240
1240
1040
0880
0880
0500
0F80
0000
0000
ENDCHAR
STARTCHAR U+00BF
ENCODING 191
SWIDTH 1000 0
DWIDTH 16 0
BBX 16 16 0 -2
BITMAP 
0000
0000
5C00
0380
4040
0380
5C0C
0014
5758
08A0
54A0
0110
4110
0110
0000
0000
ENDCHAR
STARTCHAR U+00C0
ENCODING 192
SWIDTH 1000 0
DWIDTH 16 0
BBX 16 16 0 -2
BITMAP 
0000
0000
381C
2814
381C
2814
3FF4
1014
1014
1014
7C3E
542A
542A
7C3E
0000
0000
ENDCHAR
STARTCHAR U+00C1
ENCODING 193
SWIDTH 1000 0
DWIDTH 16 0
BBX 16 16 0 -2
BITMAP 
0000
FFFF
8001
C105
A289
9291
AFE9
A109
8281
8441
8441
8921
8921
8001
FFFF
0000
ENDCHAR
STARTCHAR U+00C2
ENCODING 194
SWIDTH 1000 0
DWIDTH 16 0
BBX 16 16 0 -2
BITMAP 
0000
0000
0100
0280
0440
1EF0
0440
0820
3C78
0820
1010
783C
1010
1010
0000
0000
ENDCHAR
STARTCHAR U+00C3
ENCODING 195
SWIDTH 500 0
DWIDTH 8 0
BBX 8 16 0 -2
BITMAP 
00
00
00
00
1C
22
22
41
41
7F
0A
0A
0A
06
00
00
ENDCHAR
STARTCHAR U+00C4
ENCODING 196
SWIDTH 1000 0
DWIDTH 16 0
BBX 16 16 0 -2
BITMAP 
0000
0000
0000
0000
0000
0000
0000
3FFC
4812
381C
0810
0FF0
0810
0810
0000
0000
ENDCHAR
STARTCHAR U+00C5
ENCODING 197
SWIDTH 1000 0
DWIDTH 16 0
BBX 16 16 0 -2
BITMAP 
0000
0000
0000
0000
0000
3E00
1100
1080
1078
1008
336C
548A
300C
1FF8
0000
0000
ENDCHAR
STARTCHAR U+00C6
ENCODING 198
SWIDTH 1000 0
DWIDTH 16 0
BBX 16 16 0 -2
BITMAP 
0000
0000
0000
0000
0000
0000
6000
1800
0600
0198
0064
0018
0000
0000
0000
0000
ENDCHAR
STARTCHAR U+00C7
ENCODING 199
SWIDTH 1000 0
DWIDTH 16 0
BBX 16 16 0 -2
BITMAP 
0000
0000
0000
0000
0000
0000
0000
2400
1200
7FFE
1200
2400
0000
0000
0000
0000
ENDCHAR
STARTCHAR U+00C8
ENCODING 200
SWIDTH 1000 0
DWIDTH 16 0
BBX 16 16 0 -2
BITMAP 
0000
0000
0000
0000
0000
00FE
0082
0044
0028
7FFE
0028
0044
0028
0010
0000
0000
ENDCHAR
STARTCHAR U+00C9
ENCODING 201
SWIDTH 500 0
DWIDTH 8 0
BBX 8 16 0 -2
BITMAP 
00
00
00
08
1C
2A
2A
49
49
49
3E
08
08
1C
00
00
ENDCHAR
STARTCHAR U+00CA
ENCODING 202
SWIDTH 500 0
DWIDTH 8 0
BBX 8 16 0 -2
BITMAP 
00
00
00
20
20
30
28
24
24
24
28
30
20
20
00
00
ENDCHAR
STARTCHAR U+00CB
ENCODING 203
SWIDTH 500 0
DWIDTH 8 0
BBX 8 16 0 -2
BITMAP 
00
00
00
1C
08
08
3E
49
49
49
2A
2A
1C
08
00
00
ENDCHAR
STARTCHAR U+00CC
ENCODING 204
SWIDTH 1000 0
DWIDTH 16 0
BBX 16 16 0 -2
BITMAP 
0000
0010
0008
0024
0005
0005
7FE4
A2B8
E2A8
AEA8
75B4
1FE5
15A5
0E24
0008
0010
ENDCHAR
STARTCHAR U+00CD
ENCODING 205
SWIDTH 1000 0
DWIDTH 16 0
BBX 16 16 0 -2
BITMAP 
0000
0010
0008
0024
0005
0005
7FE4
B2B8
EAA8
AAA8
6AB4
1FE5
02A5
0024
0008
0010
ENDCHAR
STARTCHAR U+00CE
ENCODING 206
SWIDTH 1000 0
DWIDTH 16 0
BBX 16 16 0 -2
BITMAP 
0000
0000
0000
0000
0000
0000
0000
0000
7E0E
4210
6220
5240
5280
7F00
0000
0000
ENDCHAR
STARTCHAR U+00CF
ENCODING 207
SWIDTH 1000 0
DWIDTH 16 0
BBX 16 16 0 -2
BITMAP 
0000
0000
07C0
0920
1110
2108
4384
4544
7FFC
4544
4384
2108
1110
0920
07C0
0000
ENDCHAR
STARTCHAR U+00D0
ENCODING 208
SWIDTH 1000 0
DWIDTH 16 0
BBX 16 16 0 -2
BITMAP 
0000
0000
0000
1FF0
1550
1548
2544
4BA2
5552
5392
0100
0100
0100
0100
0000
0000
ENDCHAR
STARTCHAR U+00D1
ENCODING 209
SWIDTH 1000 0
DWIDTH 16 0
BBX 16 16 0 -2
BITMAP 
0000
0000
0000
0000
0000
0000
0000
0000
0000
3FFC
2004
2004
2004
3FFC
0000
0000
ENDCHAR
STARTCHAR U+00D2
ENCODING 210
SWIDTH 1000 0
DWIDTH 16 0
BBX 16 16 0 -2
BITMAP 
0000
0000
3838
2448
2388
2008
27C8
2548
2108
2388
2108
2108
2008
3FF8
0000
0000
ENDCHAR
STARTCHAR U+00D3
ENCODING 211
SWIDTH 1000 0
DWIDTH 16 0
BBX 16 16 0 -2
BITMAP 
0000
0000
0380
0440
0440
0440
0380
1450
0820
1450
0280
0100
0100
0100
0100
0000
ENDCHAR
STARTCHAR U+00D4
ENCODING 212
SWIDTH 1000 0
DWIDTH 16 0
BBX 16 16 0 -2
BITMAP 
0000
0000
0000
0000
0000
0000
0000
4004
4004
3FF8
2008
1830
07C0
0000
0000
0000
ENDCHAR
STARTCHAR U+00D5
ENCODING 213
SWIDTH 1000 0
DWIDTH 16 0
BBX 16 16 0 -2
BITMAP 
0000
0000
0010
5FE0
0020
403C
0022
203C
0024
13EA
000A
080A
020A
0080
002A
0000
ENDCHAR
STARTCHAR U+00D6
ENCODING 214
SWIDTH 1000 0
DWIDTH 16 0
BBX 16 16 0 -2
BITMAP 
0000
0000
0008
0000
0010
0240
0000
09FC
0222
12AA
0222
2124
0020
4070
0000
0000
ENDCHAR
STARTCHAR U+00D7
ENCODING 215
SWIDTH 1000 0
DWIDTH 16 0
BBX 16 16 0 -2
BITMAP 
0000
0000
0000
07E0
0810
13C8
2428
2810
2800
2810
2428
13C8
0810
07E0
0000
0000
ENDCHAR
STARTCHAR U+00D8
ENCODING 216
SWIDTH 1000 0
DWIDTH 16 0
BBX 16 16 0 -2
BITMAP 
0000
0000
0000
0000
0000
0010
0008
0004
7FFE
0004
0008
0010
0000
0000
0000
0000
ENDCHAR
STARTCHAR U+00D9
ENCODING 217
SWIDTH 1000 0
DWIDTH 16 0
BBX 16 16 0 -2
BITMAP 
0000
0000
0000
0000
3FFC
0004
2FF4
2814
2814
2814
2814
2FF4
2014
3FF4
0000
0000
ENDCHAR
STARTCHAR U+00DA
ENCODING 218
SWIDTH 1000 0
DWIDTH 16 0
BBX 16 16 0 -2
BITMAP 
0000
0000
0000
4000
4000
4000
4000
2000
2C00
2300
10C0
1030
0E00
017E
0000
0000
ENDCHAR
STARTCHAR U+00DB
ENCODING 219
SWIDTH 1000 0
DWIDTH 16 0
BBX 16 16 0 -2
BITMAP 
0000
0000
0000
003E
0022
7FE2
4002
4002
7FFE
5014
5014
5014
5014
701C
0000
0000
ENDCHAR
STARTCHAR U+00DC
ENCODING 220
SWIDTH 1000 0
DWIDTH 16 0
BBX 16 16 0 -2
BITMAP 
0000
1010
0820
0FE0
08A0
5114
628C
57D4
1550
1550
2548
2388
2FE8
3018
4004
0000
ENDCHAR
STARTCHAR U+00DD
ENCODING 221
SWIDTH 1000 0
DWIDTH 16 0
BBX 16 16 0 -2
BITMAP 
0000
0000
0000
2108
2108
2108
2108
2108
2388
2548
2928
1110
0920
07C0
0000
0000
ENDCHAR
STARTCHAR U+00DE
ENCODING 222
SWIDTH 1000 0
DWIDTH 16 0
BBX 16 16 0 -2
BITMAP 
0000
0000
0000
0000
0000
0000
0000
0000
0000
3FFC
500A
300C
0810
07E0
0000
0000
ENDCHAR
STARTCHAR U+00DF
ENCODING 223
SWIDTH 1000 0
DWIDTH 16 0
BBX 16 16 0 -2
BITMAP 
0000
0000
0000
0000
381C
2814
2814
3FFC
2004
4002
4002
3C7C
0440
0FE0
0000
0000
ENDCHAR
STARTCHAR U+00E0
ENCODING 224
SWIDTH 1000 0
DWIDTH 16 0
BBX 16 16 0 -2
BITMAP 
0000
2008
5014
5014
2008
3FF8
2008
2008
1010
2828
17D0
1290
1110
1110
1110
0000
ENDCHAR
STARTCHAR U+00E1
ENCODING 225
SWIDTH 1000 0
DWIDTH 16 0
BBX 16 16 0 -2
BITMAP 
0000
0000
0000
0FF0
0420
0420
0810
1008
1008
0810
0810
0420
0420
03C0
0000
0000
ENDCHAR
STARTCHAR U+00E2
ENCODING 226
SWIDTH 1000 0
DWIDTH 16 0
BBX 16 16 0 -2
BITMAP 
0000
0000
03C0
2424
524A
542A
381C
1008
1008
0810
0810
0420
0420
03C0
0000
0000
ENDCHAR
STARTCHAR U+00E3
ENCODING 227
SWIDTH 1000 0
DWIDTH 16 0
BBX 16 16 0 -2
BITMAP 
0000
0000
03FC
0448
0448
03F0
0608
0C04
1404
0208
0110
00A0
00A0
00E0
0000
0000
ENDCHAR
STARTCHAR U+00E4
ENCODING 228
SWIDTH 1000 0
DWIDTH 16 0
BBX 16 16 0 -2
BITMAP 
0000
0000
0FF0
1120
1120
0FC0
1820
1010
1010
0820
0440
0280
0280
0380
0000
0000
ENDCHAR
STARTCHAR U+00E5
ENCODING 229
SWIDTH 1000 0
DWIDTH 16 0
BBX 16 16 0 -2
BITMAP 
0000
0000
0FF0
1120
1120
0FC0
3828
5014
5014
2828
0820
0440
0280
0380
0000
0000
ENDCHAR
STARTCHAR U+00E6
ENCODING 230
SWIDTH 1000 0
DWIDTH 16 0
BBX 16 16 0 -2
BITMAP 
0000
0000
07C0
0AA0
0AA0
06C0
06C0
0820
1010
1010
0820
07C0
0AA0
0AA0
0920
0000
ENDCHAR
STARTCHAR U+00E7
ENCODING 231
SWIDTH 1000 0
DWIDTH 16 0
BBX 16 16 0 -2
BITMAP 
0000
0000
0000
0000
4002
2004
1FF8
0810
0810
1008
3C3C
0240
0240
03C0
0000
0000
ENDCHAR
STARTCHAR U+00E8
ENCODING 232
SWIDTH 1000 0
DWIDTH 16 0
BBX 16 16 0 -2
BITMAP 
0000
0000
0000
0FE0
1290
1450
0AA0
0440
0820
0820
0440
0440
0280
0380
0000
0000
ENDCHAR
STARTCHAR U+00E9
ENCODING 233
SWIDTH 1000 0
DWIDTH 16 0
BBX 16 16 0 -2
BITMAP 
0000
0000
0000
1FE0
2490
2490
14A0
084C
1034
1038
0840
0840
0480
0780
0000
0000
ENDCHAR
STARTCHAR U+00EA
ENCODING 234
SWIDTH 1000 0
DWIDTH 16 0
BBX 16 16 0 -2
BITMAP 
0000
0000
0000
0000
0000
3FFC
300C
4A12
53CA
320C
1388
0A90
04A0
03C0
0000
0000
ENDCHAR
STARTCHAR U+00EB
ENCODING 235
SWIDTH 1000 0
DWIDTH 16 0
BBX 16 16 0 -2
BITMAP 
0000
0000
0000
0FF8
0808
380E
4809
4C19
3416
0410
0220
0140
0140
03E0
0000
0000
ENDCHAR
STARTCHAR U+00EC
ENCODING 236
SWIDTH 1000 0
DWIDTH 16 0
BBX 16 16 0 -2
BITMAP 
0000
0000
0000
0000
0000
0000
0000
7FFC
4004
2008
2008
1830
07C0
0000
0000
0000
ENDCHAR
STARTCHAR U+00ED
ENCODING 237
SWIDTH 1000 0
DWIDTH 16 0
BBX 16 16 0 -2
BITMAP 
0000
0000
3018
4FE4
3838
0820
1010
1010
0820
0820
0440
0440
07C0
0000
0000
0000
ENDCHAR
STARTCHAR U+00EE
ENCODING 238
SWIDTH 1000 0
DWIDTH 16 0
BBX 16 16 0 -2
BITMAP 
0000
0000
0000
0000
3018
4FE4
5014
2828
0440
0280
0280
0280
0440
07C0
0000
0000
ENDCHAR
STARTCHAR U+00EF
ENCODING 239
SWIDTH 500 0
DWIDTH 8 0
BBX 8 16 0 -2
BITMAP 
00
00
00
7F
41
41
22
14
08
08
08
14
22
3E
00
00
ENDCHAR
STARTCHAR U+00F0
ENCODING 240
SWIDTH 1000 0
DWIDTH 16 0
BBX 16 16 0 -2
BITMAP 
0000
0000
3F00
1200
1200
1E00
1200
2100
4080
4080
4080
2100
1E00
3F00
0000
0000
ENDCHAR
STARTCHAR U+00F1
ENCODING 241
SWIDTH 1000 0
DWIDTH 16 0
BBX 16 16 0 -2
BITMAP 
0000
0000
0000
0FFF
4402
4204
3E04
2A04
3E04
4108
4108
0108
0108
01F8
0000
0000
ENDCHAR
STARTCHAR U+00F2
ENCODING 242
SWIDTH 1000 0
DWIDTH 16 0
BBX 16 16 0 -2
BITMAP 
0000
0000
0000
1008
2814
2814
2814
1008
3FFC
2004
2004
2004
2004
3FFC
0000
0000
ENDCHAR
STARTCHAR U+00F3
ENCODING 243
SWIDTH 1000 0
DWIDTH 16 0
BBX 16 16 0 -2
BITMAP 
0000
0000
0000
3000
4800
4800
5FFF
4802
2404
2404
4802
0F1E
00A0
00E0
0000
0000
ENDCHAR
STARTCHAR U+00F4
ENCODING 244
SWIDTH 1000 0
DWIDTH 16 0
BBX 16 16 0 -2
BITMAP 
0000
0000
0000
1FFC
1004
1004
1004
1004
0808
0808
0410
0410
0220
01C0
0000
0000
ENDCHAR
STARTCHAR U+00F5
ENCODING 245
SWIDTH 1000 0
DWIDTH 16 0
BBX 16 16 0 -2
BITMAP 
0000
6020
9FDC
6894
2514
4897
0891
051F
1FC0
1240
8D88
DFD8
A028
DFD8
8008
0000
ENDCHAR
STARTCHAR U+00F6
ENCODING 246
SWIDTH 1000 0
DWIDTH 16 0
BBX 16 16 0 -2
BITMAP 
0000
0000
0500
0500
0900
0FE0
1218
14C4
2D02
28CA
481A
5024
1C20
0210
01F0
0000
ENDCHAR
STARTCHAR U+00F7
ENCODING 247
SWIDTH 1000 0
DWIDTH 16 0
BBX 16 16 0 -2
BITMAP 
0000
0000
0000
0000
0000
0000
0000
0000
0000
0000
7FFE
0082
0044
0038
0000
0000
ENDCHAR
STARTCHAR U+00F8
ENCODING 248
SWIDTH 1000 0
DWIDTH 16 0
BBX 16 16 0 -2
BITMAP 
0000
0000
0000
0C00
1200
1200
0200
0200
0200
0200
03F8
0208
0110
00E0
0000
0000
ENDCHAR
STARTCHAR U+00F9
ENCODING 249
SWIDTH 1000 0
DWIDTH 16 0
BBX 16 16 0 -2
BITMAP 
0000
0000
000C
0012
4028
3FF0
2040
1080
1080
0900
2940
4920
4620
2640
0000
0000
ENDCHAR
STARTCHAR U+00FA
ENCODING 250
SWIDTH 1000 0
DWIDTH 16 0
BBX 16 16 0 -2
BITMAP 
0000
0000
0000
0002
0000
1804
2400
2408
19E0
0A08
1200
21D0
0000
0020
0000
0000
ENDCHAR
STARTCHAR U+00FB
ENCODING 251
SWIDTH 1000 0
DWIDTH 16 0
BBX 16 16 0 -2
BITMAP 
0000
FFFF
CF73
B66D
B76D
B76D
CE33
FFFF
FFFF
CC23
B5ED
B463
B5ED
CDE3
FFFF
0000
ENDCHAR
STARTCHAR U+00FC
ENCODING 252
SWIDTH 1000 0
DWIDTH 16 0
BBX 16 16 0 -2
BITMAP 
0000
FFFF
CF73
B66D
B76D
B76D
CE33
FFFF
FFFF
CC31
B5EF
B46F
B5EF
CDF1
FFFF
0000
ENDCHAR
STARTCHAR U+00FD
ENCODING 253
SWIDTH 1000 0
DWIDTH 16 0
BBX 16 16 0 -2
BITMAP 
0000
FFFF
CF73
B66D
B76D
B76D
CE33
FFFF
FFFF
CC23
B5ED
B46D
B5ED
CDE3
FFFF
0000
ENDCHAR
STARTCHAR U+00FE
ENCODING 254
SWIDTH 1000 0
DWIDTH 16 0
BBX 16 16 0 -2
BITMAP 
0000
FFFF
CF73
B66D
B76D
B76D
CE33
FFFF
FFFF
CC21
B5EF
B463
B5EF
CDE1
FFFF
0000
ENDCHAR
STARTCHAR U+00FF
ENCODING 255
SWIDTH 1000 0
DWIDTH 16 0
BBX 16 16 0 -2
BITMAP 
0000
FFFF
CF73
B66D
B76D
B76D
CE33
FFFF
FFFF
CC21
B5EF
B463
B5EF
CDEF
FFFF
0000
ENDCHAR
STARTCHAR U+0100
ENCODING 256
SWIDTH 1000 0
DWIDTH 16 0
BBX 16 16 0 -2
BITMAP 
5555
8000
0001
A238
2241
A238
1405
8838
0001
8878
1809
A810
0821
BE20
0001
AAAA
ENDCHAR
STARTCHAR U+0101
ENCODING 257
SWIDTH 1000 0
DWIDTH 16 0
BBX 16 16 0 -2
BITMAP 
5555
8000
0001
A238
2241
A238
1405
8838
0001
8830
1849
A830
0849
BE30
0001
AAAA
ENDCHAR
STARTCHAR U+0102
ENCODING 258
SWIDTH 1000 0
DWIDTH 16 0
BBX 16 16 0 -2
BITMAP 
5555
8000
0001
A238
2241
A238
1405
8838
0001
8830
1849
A838
0809
BE70
0001
AAAA
ENDCHAR
STARTCHAR U+0103
ENCODING 259
SWIDTH 1000 0
DWIDTH 16 0
BBX 16 16 0 -2
BITMAP 
5555
8000
0001
A238
2241
A238
1405
8838
0001
B830
0449
9848
2049
BC30
0001
AAAA
ENDCHAR
STARTCHAR U+0104
ENCODING 260
SWIDTH 1000 0
DWIDTH 16 0
BBX 16 16 0 -2
BITMAP 
5555
8000
0001
A238
2241
A238
1405
8838
0001
B810
0431
9850
2011
BC7C
0001
AAAA
ENDCHAR
STARTCHAR U+0105
ENCODING 261
SWIDTH 1000 0
DWIDTH 16 0
BBX 16 16 0 -2
BITMAP 
5555
8000
0001
A238
2241
A238
1405
8838
0001
B870
0409
9830
2041
BC78
0001
AAAA
ENDCHAR
STARTCHAR U+0106
ENCODING 262
SWIDTH 1000 0
DWIDTH 16 0
BBX 16 16 0 -2
BITMAP 
5555
8000
0001
A238
2241
A238
1405
8838
0001
B870
0409
9830
2009
BC70
0001
AAAA
ENDCHAR
STARTCHAR U+0107
ENCODING 263
SWIDTH 1000 0
DWIDTH 16 0
BBX 16 16 0 -2
BITMAP 
5555
8000
0001
A238
2241
A238
1405
8838
0001
B848
0449
9878
2009
BC08
0001
AAAA
ENDCHAR
STARTCHAR U+0108
ENCODING 264
SWIDTH 1000 0
DWIDTH 16 0
BBX 16 16 0 -2
BITMAP 
5555
8000
0001
A238
2241
A238
1405
8838
0001
B878
0441
9870
2009
BC70
0001
AAAA
ENDCHAR
STARTCHAR U+0109
ENCODING 265
SWIDTH 1000 0
DWIDTH 16 0
BBX 16 16 0 -2
BITMAP 
5555
8000
0001
A238
2241
A238
1405
8838
0001
B838
0441
9870
2049
BC30
0001
AAAA
ENDCHAR
STARTCHAR U+010A
ENCODING 266
SWIDTH 1000 0
DWIDTH 16 0
BBX 16 16 0 -2
BITMAP 
5555
8000
0001
A238
2241
A238
1405
8838
0001
B878
0409
9810
2021
BC20
0001
AAAA
ENDCHAR
STARTCHAR U+010B
ENCODING 267
SWIDTH 1000 0
DWIDTH 16 0
BBX 16 16 0 -2
BITMAP 
5555
8000
0001
A238
2241
A238
1405
8838
0001
B830
0449
9830
2049
BC30
0001
AAAA
ENDCHAR
STARTCHAR U+010C
ENCODING 268
SWIDTH 1000 0
DWIDTH 16 0
BBX 16 16 0 -2
BITMAP 
5555
8000
0001
A238
2241
A238
1405
8838
0001
B830
0449
9838
2009
BC70
0001
AAAA
ENDCHAR
STARTCHAR U+010D
ENCODING 269
SWIDTH 1000 0
DWIDTH 16 0
BBX 16 16 0 -2
BITMAP 
5555
8000
0001
A238
2241
A238
1405
8838
0001
B830
0449
9848
0449
B830
0001
AAAA
ENDCHAR
STARTCHAR U+010E
ENCODING 270
SWIDTH 1000 0
DWIDTH 16 0
BBX 16 16 0 -2
BITMAP 
5555
8000
0001
A238
2241
A238
1405
8838
0001
B810
0431
9850
0411
B87C
0001
AAAA
ENDCHAR
STARTCHAR U+010F
ENCODING 271
SWIDTH 1000 0
DWIDTH 16 0
BBX 16 16 0 -2
BITMAP 
5555
8000
0001
A238
2241
A238
1405
8838
0001
B870
0409
9830
0441
B878
0001
AAAA
ENDCHAR
STARTCHAR U+0110
ENCODING 272
SWIDTH 1000 0
DWIDTH 16 0
BBX 16 16 0 -2
BITMAP 
5555
8000
0001
A238
2241
A238
1405
8838
0001
B870
0409
9830
0409
B870
0001
AAAA
ENDCHAR
STARTCHAR U+0111
ENCODING 273
SWIDTH 1000 0
DWIDTH 16 0
BBX 16 16 0 -2
BITMAP 
5555
8000
0001
A238
2241
A238
1405
8838
0001
B848
0449
9878
0409
B808
0001
AAAA
ENDCHAR
STARTCHAR U+0112
ENCODING 274
SWIDTH 1000 0
DWIDTH 16 0
BBX 16 16 0 -2
BITMAP 
5555
8000
0001
A238
2241
A238
1405
8838
0001
B878
0441
9870
0409
B870
0001
AAAA
ENDCHAR
STARTCHAR U+0113
ENCODING 275
SWIDTH 1000 0
DWIDTH 16 0
BBX 16 16 0 -2
BITMAP 
5555
8000
0001
A238
2241
A238
1405
8838
0001
B838
0441
9870
0449
B830
0001
AAAA
ENDCHAR
STARTCHAR U+0114
ENCODING 276
SWIDTH 1000 0
DWIDTH 16 0
BBX 16 16 0 -2
BITMAP 
5555
8000
0001
A238
2241
A238
1405
8838
0001
B878
0409
9810
0421
B820
0001
AAAA
ENDCHAR
STARTCHAR U+0115
ENCODING 277
SWIDTH 1000 0
DWIDTH 16 0
BBX 16 16 0 -2
BITMAP 
5555
8000
0001
A238
2241
A238
1405
8838
0001
B830
0449
9830
0449
B830
0001
AAAA
ENDCHAR
STARTCHAR U+0116
ENCODING 278
SWIDTH 1000 0
DWIDTH 16 0
BBX 16 16 0 -2
BITMAP 
5555
8000
0001
A238
2241
A238
1405
8838
0001
B830
0449
9838
0409
B870
0001
AAAA
ENDCHAR
STARTCHAR U+0117
ENCODING 279
SWIDTH 1000 0
DWIDTH 16 0
BBX 16 16 0 -2
BITMAP 
5555
8000
0001
A238
2241
A238
1405
8838
0001
A430
2449
BC48
0449
8430
0001
AAAA
ENDCHAR
STARTCHAR U+0118
ENCODING 280
SWIDTH 1000 0
DWIDTH 16 0
BBX 16 16 0 -2
BITMAP 
5555
8000
0001
A238
2241
A238
1405
8838
0001
A410
2431
BC50
0411
847C
0001
AAAA
ENDCHAR
STARTCHAR U+0119
ENCODING 281
SWIDTH 1000 0
DWIDTH 16 0
BBX 16 16 0 -2
BITMAP 
5555
8000
0001
A238
2241
A238
1405
8838
0001
A470
2409
BC30
0441
8478
0001
AAAA
ENDCHAR
STARTCHAR U+011A
ENCODING 282
SWIDTH 1000 0
DWIDTH 16 0
BBX 16 16 0 -2
BITMAP 
5555
8000
0001
A238
2241
A238
1405
8838
0001
A470
2409
BC30
0409
8470
0001
AAAA
ENDCHAR
STARTCHAR U+011B
ENCODING 283
SWIDTH 1000 0
DWIDTH 16 0
BBX 16 16 0 -2
BITMAP 
5555
8000
0001
A238
2241
A238
1405
8838
0001
A448
2449
BC78
0409
8408
0001
AAAA
ENDCHAR
STARTCHAR U+011C
ENCODING 284
SWIDTH 1000 0
DWIDTH 16 0
BBX 16 16 0 -2
BITMAP 
5555
8000
0001
A238
2241
A238
1405
8838
0001
A478
2441
BC70
0409
8470
0001
AAAA
ENDCHAR
STARTCHAR U+011D
ENCODING 285
SWIDTH 1000 0
DWIDTH 16 0
BBX 16 16 0 -2
BITMAP 
5555
8000
0001
A238
2241
A238
1405
8838
0001
A438
2441
BC70
0449
8430
0001
AAAA
ENDCHAR
STARTCHAR U+011E
ENCODING 286
SWIDTH 1000 0
DWIDTH 16 0
BBX 16 16 0 -2
BITMAP 
5555
8000
0001
A238
2241
A238
1405
8838
0001
A478
2409
BC10
0421
8420
0001
AAAA
ENDCHAR
STARTCHAR U+011F
ENCODING 287
SWIDTH 1000 0
DWIDTH 16 0
BBX 16 16 0 -2
BITMAP 
5555
8000
0001
A238
2241
A238
1405
8838
0001
A430
2449
BC30
0449
8430
0001
AAAA
ENDCHAR
STARTCHAR U+0120
ENCODING 288
SWIDTH 1000 0
DWIDTH 16 0
BBX 16 16 0 -2
BITMAP 
5555
8000
0001
A238
2241
A238
1405
8838
0001
A430
2449
BC38
0409
8470
0001
AAAA
ENDCHAR
STARTCHAR U+0121
ENCODING 289
SWIDTH 1000 0
DWIDTH 16 0
BBX 16 16 0 -2
BITMAP 
5555
8000
0001
A238
2241
A238
1405
8838
0001
BC30
2049
B848
0449
B830
0001
AAAA
ENDCHAR
STARTCHAR U+0122
ENCODING 290
SWIDTH 1000 0
DWIDTH 16 0
BBX 16 16 0 -2
BITMAP 
5555
8000
0001
A238
2241
A238
1405
8838
0001
BC10
2031
B850
0411
B87C
0001
AAAA
ENDCHAR
STARTCHAR U+0123
ENCODING 291
SWIDTH 1000 0
DWIDTH 16 0
BBX 16 16 0 -2
BITMAP 
5555
8000
0001
A238
2241
A238
1405
8838
0001
BC70
2009
B830
0441
B878
0001
AAAA
ENDCHAR
STARTCHAR U+0124
ENCODING 292
SWIDTH 1000 0
DWIDTH 16 0
BBX 16 16 0 -2
BITMAP 
5555
8000
0001
A238
2241
A238
1405
8838
0001
BC70
2009
B830
0409
B870
0001
AAAA
ENDCHAR
STARTCHAR U+0125
ENCODING 293
SWIDTH 1000 0
DWIDTH 16 0
BBX 16 16 0 -2
BITMAP 
5555
8000
0001
A238
2241
A238
1405
8838
0001
BC48
2049
B878
0409
B808
0001
AAAA
ENDCHAR
STARTCHAR U+0126
ENCODING 294
SWIDTH 1000 0
DWIDTH 16 0
BBX 16 16 0 -2
BITMAP 
5555
8000
0001
A238
2241
A238
1405
8838
0001
BC78
2041
B870
0409
B870
0001
AAAA
ENDCHAR
STARTCHAR U+0127
ENCODING 295
SWIDTH 1000 0
DWIDTH 16 0
BBX 16 16 0 -2
BITMAP 
5555
8000
0001
A238
2241
A238
1405
8838
0001
BC38
2041
B870
0449
B830
0001
AAAA
ENDCHAR
STARTCHAR U+0128
ENCODING 296
SWIDTH 1000 0
DWIDTH 16 0
BBX 16 16 0 -2
BITMAP 
5555
8000
0001
A238
2241
A238
1405
8838
0001
BC78
2009
B810
0421
B820
0001
AAAA
ENDCHAR
STARTCHAR U+0129
ENCODING 297
SWIDTH 1000 0
DWIDTH 16 0
BBX 16 16 0 -2
BITMAP 
5555
8000
0001
A238
2241
A238
1405
8838
0001
BC30
2049
B830
0449
B830
0001
AAAA
ENDCHAR
STARTCHAR U+012A
ENCODING 298
SWIDTH 1000 0
DWIDTH 16 0
BBX 16 16 0 -2
BITMAP 
5555
8000
0001
A238
2241
A238
1405
8838
0001
BC30
2049
B838
0409
B870
0001
AAAA
ENDCHAR
STARTCHAR U+012B
ENCODING 299
SWIDTH 1000 0
DWIDTH 16 0
BBX 16 16 0 -2
BITMAP 
5555
8000
0001
A238
2241
A238
1405
8838
0001
9C30
2049
B848
2449
9830
0001
AAAA
ENDCHAR
STARTCHAR U+012C
ENCODING 300
SWIDTH 1000 0
DWIDTH 16 0
BBX 16 16 0 -2
BITMAP 
5555
8000
0001
A238
2241
A238
1405
8838
0001
9C10
2031
B850
2411
987C
0001
AAAA
ENDCHAR
STARTCHAR U+012D
ENCODING 301
SWIDTH 1000 0
DWIDTH 16 0
BBX 16 16 0 -2
BITMAP 
5555
8000
0001
A238
2241
A238
1405
8838
0001
9C70
2009
B830
2441
9878
0001
AAAA
ENDCHAR
STARTCHAR U+012E
ENCODING 302
SWIDTH 1000 0
DWIDTH 16 0
BBX 16 16 0 -2
BITMAP 
5555
8000
0001
A238
2241
A238
1405
8838
0001
9C70
2009
B830
2409
9870
0001
AAAA
ENDCHAR
STARTCHAR U+012F
ENCODING 303
SWIDTH 1000 0
DWIDTH 16 0
BBX 16 16 0 -2
BITMAP 
5555
8000
0001
A238
2241
A238
1405
8838
0001
9C48
2049
B878
2409
9808
0001
AAAA
ENDCHAR
STARTCHAR U+0130
ENCODING 304
SWIDTH 1000 0
DWIDTH 16 0
BBX 16 16 0 -2
BITMAP 
5555
8000
0001
A238
2241
A238
1405
8838
0001
9C78
2041
B870
2409
9870
0001
AAAA
ENDCHAR
STARTCHAR U+0131
ENCODING 305
SWIDTH 1000 0
DWIDTH 16 0
BBX 16 16 0 -2
BITMAP 
5555
8000
0001
A238
2241
A238
1405
8838
0001
9C38
2041
B870
2449
9830
0001
AAAA
ENDCHAR
STARTCHAR U+0132
ENCODING 306
SWIDTH 1000 0
DWIDTH 16 0
BBX 16 16 0 -2
BITMAP 
5555
8000
0001
A238
2241
A238
1405
8838
0001
9C78
2009
B810
2421
9820
0001
AAAA
ENDCHAR
STARTCHAR U+0133
ENCODING 307
SWIDTH 1000 0
DWIDTH 16 0
BBX 16 16 0 -2
BITMAP 
5555
8000
0001
A238
2241
A238
1405
8838
0001
9C30
2049
B830
2449
9830
0001
AAAA
ENDCHAR
STARTCHAR U+0134
ENCODING 308
SWIDTH 1000 0
DWIDTH 16 0
BBX 16 16 0 -2
BITMAP 
5555
8000
0001
A238
2241
A238
1405
8838
0001
9C30
2049
B838
2409
9870
0001
AAAA
ENDCHAR
STARTCHAR U+0135
ENCODING 309
SWIDTH 1000 0
DWIDTH 16 0
BBX 16 16 0 -2
BITMAP 
5555
8000
0001
A238
2241
A238
1405
8838
0001
BC30
0449
8848
1049
9030
0001
AAAA
ENDCHAR
STARTCHAR U+0136
ENCODING 310
SWIDTH 1000 0
DWIDTH 16 0
BBX 16 16 0 -2
BITMAP 
5555
8000
0001
A238
2241
A238
1405
8838
0001
BC10
0431
8850
1011
907C
0001
AAAA
ENDCHAR
STARTCHAR U+0137
ENCODING 311
SWIDTH 1000 0
DWIDTH 16 0
BBX 16 16 0 -2
BITMAP 
5555
8000
0001
A238
2241
A238
1405
8838
0001
BC70
0409
8830
1041
9078
0001
AAAA
ENDCHAR
STARTCHAR U+0138
ENCODING 312
SWIDTH 1000 0
DWIDTH 16 0
BBX 16 16 0 -2
BITMAP 
5555
8000
0001
A238
2241
A238
1405
8838
0001
BC70
0409
8830
1009
9070
0001
AAAA
ENDCHAR
STARTCHAR U+0139
ENCODING 313
SWIDTH 1000 0
DWIDTH 16 0
BBX 16 16 0 -2
BITMAP 
5555
8000
0001
A238
2241
A238
1405
8838
0001
BC48
0449
8878
1009
9008
0001
AAAA
ENDCHAR
STARTCHAR U+013A
ENCODING 314
SWIDTH 1000 0
DWIDTH 16 0
BBX 16 16 0 -2
BITMAP 
5555
8000
0001
A238
2241
A238
1405
8838
0001
BC78
0441
8870
1009
9070
0001
AAAA
ENDCHAR
STARTCHAR U+013B
ENCODING 315
SWIDTH 1000 0
DWIDTH 16 0
BBX 16 16 0 -2
BITMAP 
5555
8000
0001
A238
2241
A238
1405
8838
0001
BC38
0441
8870
1049
9030
0001
AAAA
ENDCHAR
STARTCHAR U+013C
ENCODING 316
SWIDTH 1000 0
DWIDTH 16 0
BBX 16 16 0 -2
BITMAP 
5555
8000
0001
A238
2241
A238
1405
8838
0001
BC78
0409
8810
1021
9020
0001
AAAA
ENDCHAR
STARTCHAR U+013D
ENCODING 317
SWIDTH 1000 0
DWIDTH 16 0
BBX 16 16 0 -2
BITMAP 
5555
8000
0001
A238
2241
A238
1405
8838
0001
BC30
0449
8830
1049
9030
0001
AAAA
ENDCHAR
STARTCHAR U+013E
ENCODING 318
SWIDTH 1000 0
DWIDTH 16 0
BBX 16 16 0 -2
BITMAP 
5555
8000
0001
A238
2241
A238
1405
8838
0001
BC30
0449
8838
1009
9070
0001
AAAA
ENDCHAR
STARTCHAR U+013F
ENCODING 319
SWIDTH 1000 0
DWIDTH 16 0
BBX 16 16 0 -2
BITMAP 
5555
8000
0001
A238
2241
A238
1405
8838
0001
9830
2449
9848
2449
9830
0001
AAAA
ENDCHAR
STARTCHAR U+0140
ENCODING 320
SWIDTH 1000 0
DWIDTH 16 0
BBX 16 16 0 -2
BITMAP 
5555
8000
0001
A238
2241
A238
1405
8838
0001
9810
2431
9850
2411
987C
0001
AAAA
ENDCHAR
STARTCHAR U+0141
ENCODING 321
SWIDTH 1000 0
DWIDTH 16 0
BBX 16 16 0 -2
BITMAP 
5555
8000
0001
A238
2241
A238
1405
8838
0001
9870
2409
9830
2441
9878
0001
AAAA
ENDCHAR
STARTCHAR U+0142
ENCODING 322
SWIDTH 1000 0
DWIDTH 16 0
BBX 16 16 0 -2
BITMAP 
5555
8000
0001
A238
2241
A238
1405
8838
0001
9870
2409
9830
2409
9870
0001
AAAA
ENDCHAR
STARTCHAR U+0143
ENCODING 323
SWIDTH 1000 0
DWIDTH 16 0
BBX 16 16 0 -2
BITMAP 
5555
8000
0001
A238
2241
A238
1405
8838
0001
9848
2449
9878
2409
9808
0001
AAAA
ENDCHAR
STARTCHAR U+0144
ENCODING 324
SWIDTH 1000 0
DWIDTH 16 0
BBX 16 16 0 -2
BITMAP 
5555
8000
0001
A238
2241
A238
1405
8838
0001
9878
2441
9870
2409
9870
0001
AAAA
ENDCHAR
STARTCHAR U+0145
ENCODING 325
SWIDTH 1000 0
DWIDTH 16 0
BBX 16 16 0 -2
BITMAP 
5555
8000
0001
A238
2241
A238
1405
8838
0001
9838
2441
9870
2449
9830
0001
AAAA
ENDCHAR
STARTCHAR U+0146
ENCODING 326
SWIDTH 1000 0
DWIDTH 16 0
BBX 16 16 0 -2
BITMAP 
5555
8000
0001
A238
2241
A238
1405
8838
0001
9878
2409
9810
2421
9820
0001
AAAA
ENDCHAR
STARTCHAR U+0147
ENCODING 327
SWIDTH 1000 0
DWIDTH 16 0
BBX 16 16 0 -2
BITMAP 
5555
8000
0001
A238
2241
A238
1405
8838
0001
9830
2449
9830
2449
9830
0001
AAAA
ENDCHAR
STARTCHAR U+0148
ENCODING 328
SWIDTH 1000 0
DWIDTH 16 0
BBX 16 16 0 -2
BITMAP 
5555
8000
0001
A238
2241
A238
1405
8838
0001
9830
2449
9838
2409
9870
0001
AAAA
ENDCHAR
STARTCHAR U+0149
ENCODING 329
SWIDTH 1000 0
DWIDTH 16 0
BBX 16 16 0 -2
BITMAP 
5555
8000
0001
A238
2241
A238
1405
8838
0001
9830
2449
9C48
0449
B830
0001
AAAA
ENDCHAR
STARTCHAR U+014A
ENCODING 330
SWIDTH 1000 0
DWIDTH 16 0
BBX 16 16 0 -2
BITMAP 
5555
8000
0001
A238
2241
A238
1405
8838
0001
9810
2431
9C50
0411
B87C
0001
AAAA
ENDCHAR
STARTCHAR U+014B
ENCODING 331
SWIDTH 1000 0
DWIDTH 16 0
BBX 16 16 0 -2
BITMAP 
5555
8000
0001
A238
2241
A238
1405
8838
0001
9870
2409
9C30
0441
B878
0001
AAAA
ENDCHAR
STARTCHAR U+014C
ENCODING 332
SWIDTH 1000 0
DWIDTH 16 0
BBX 16 16 0 -2
BITMAP 
5555
8000
0001
A238
2241
A238
1405
8838
0001
9870
2409
9C30
0409
B870
0001
AAAA
ENDCHAR
STARTCHAR U+014D
ENCODING 333
SWIDTH 1000 0
DWIDTH 16 0
BBX 16 16 0 -2
BITMAP 
5555
8000
0001
A238
2241
A238
1405
8838
0001
9848
2449
9C78
0409
B808
0001
AAAA
ENDCHAR
STARTCHAR U+014E
ENCODING 334
SWIDTH 1000 0
DWIDTH 16 0
BBX 16 16 0 -2
BITMAP 
5555
8000
0001
A238
2241
A238
1405
8838
0001
9878
2441
9C70
0409
B870
0001
AAAA
ENDCHAR
STARTCHAR U+014F
ENCODING 335
SWIDTH 1000 0
DWIDTH 16 0
BBX 16 16 0 -2
BITMAP 
5555
8000
0001
A238
2241
A238
1405
8838
0001
9838
2441
9C70
0449
B830
0001
AAAA
ENDCHAR
STARTCHAR U+0150
ENCODING 336
SWIDTH 1000 0
DWIDTH 16 0
BBX 16 16 0 -2
BITMAP 
5555
8000
0001
A238
2241
A238
1405
8838
0001
9878
2409
9C10
0421
B820
0001
AAAA
ENDCHAR
STARTCHAR U+0151
ENCODING 337
SWIDTH 1000 0
DWIDTH 16 0
BBX 16 16 0 -2
BITMAP 
5555
8000
0001
A238
2241
A238
1405
8838
0001
9830
2449
9C30
0449
B830
0001
AAAA
ENDCHAR
STARTCHAR U+0152
ENCODING 338
SWIDTH 1000 0
DWIDTH 16 0
BBX 16 16 0 -2
BITMAP 
5555
8000
0001
A238
2241
A238
1405
8838
0001
9830
2449
9C38
0409
B870
0001
AAAA
ENDCHAR
STARTCHAR U+0153
ENCODING 339
SWIDTH 1000 0
DWIDTH 16 0
BBX 16 16 0 -2
BITMAP 
5555
8000
0001
A238
2241
A238
1405
8838
0001
9110
32A9
92A8
12A9
B910
0001
AAAA
ENDCHAR
STARTCHAR U+0154
ENCODING 340
SWIDTH 1000 0
DWIDTH 16 0
BBX 16 16 0 -2
BITMAP 
5555
8000
0001
A238
2241
A238
1405
8838
0001
9110
32B1
9290
1291
B938
0001
AAAA
ENDCHAR
STARTCHAR U+0155
ENCODING 341
SWIDTH 1000 0
DWIDTH 16 0
BBX 16 16 0 -2
BITMAP 
5555
8000
0001
A238
2241
A238
1405
8838
0001
9130
3289
9290
12A1
B938
0001
AAAA
ENDCHAR
STARTCHAR U+0156
ENCODING 342
SWIDTH 1000 0
DWIDTH 16 0
BBX 16 16 0 -2
BITMAP 
5555
8000
0001
A238
2241
A238
1405
8838
0001
9130
3289
9290
1289
B930
0001
AAAA
ENDCHAR
STARTCHAR U+0157
ENCODING 343
SWIDTH 1000 0
DWIDTH 16 0
BBX 16 16 0 -2
BITMAP 
5555
8000
0001
A238
2241
A238
1405
8838
0001
9128
32A9
92B8
1289
B908
0001
AAAA
ENDCHAR
STARTCHAR U+0158
ENCODING 344
SWIDTH 1000 0
DWIDTH 16 0
BBX 16 16 0 -2
BITMAP 
5555
8000
0001
A238
2241
A238
1405
8838
0001
9138
32A1
92B0
1289
B930
0001
AAAA
ENDCHAR
STARTCHAR U+0159
ENCODING 345
SWIDTH 1000 0
DWIDTH 16 0
BBX 16 16 0 -2
BITMAP 
5555
8000
0001
A238
2241
A238
1405
8838
0001
9118
32A1
92B0
12A9
B910
0001
AAAA
ENDCHAR
STARTCHAR U+015A
ENCODING 346
SWIDTH 1000 0
DWIDTH 16 0
BBX 16 16 0 -2
BITMAP 
5555
8000
0001
A238
2241
A238
1405
8838
0001
9138
3289
9288
1291
B910
0001
AAAA
ENDCHAR
STARTCHAR U+015B
ENCODING 347
SWIDTH 1000 0
DWIDTH 16 0
BBX 16 16 0 -2
BITMAP 
5555
8000
0001
A238
2241
A238
1405
8838
0001
9110
32A9
9290
12A9
B910
0001
AAAA
ENDCHAR
STARTCHAR U+015C
ENCODING 348
SWIDTH 1000 0
DWIDTH 16 0
BBX 16 16 0 -2
BITMAP 
5555
8000
0001
A238
2241
A238
1405
8838
0001
9110
32A9
9298
1289
B930
0001
AAAA
ENDCHAR
STARTCHAR U+015D
ENCODING 349
SWIDTH 1000 0
DWIDTH 16 0
BBX 16 16 0 -2
BITMAP 
5555
8000
0001
A238
2241
A238
1405
8838
0001
9110
3329
9128
1129
BB90
0001
AAAA
ENDCHAR
STARTCHAR U+015E
ENCODING 350
SWIDTH 1000 0
DWIDTH 16 0
BBX 16 16 0 -2
BITMAP 
5555
8000
0001
A238
2241
A238
1405
8838
0001
9110
3331
9110
1111
BBB8
0001
AAAA
ENDCHAR
STARTCHAR U+015F
ENCODING 351
SWIDTH 1000 0
DWIDTH 16 0
BBX 16 16 0 -2
BITMAP 
5555
8000
0001
A238
2241
A238
1405
8838
0001
9130
3309
9110
1121
BBB8
0001
AAAA
ENDCHAR
STARTCHAR U+0160
ENCODING 352
SWIDTH 1000 0
DWIDTH 16 0
BBX 16 16 0 -2
BITMAP 
5555
8000
0001
A238
2241
A238
1405
8838
0001
9130
3309
9110
1109
BBB0
0001
AAAA
ENDCHAR
STARTCHAR U+0161
ENCODING 353
SWIDTH 1000 0
DWIDTH 16 0
BBX 16 16 0 -2
BITMAP 
5555
8000
0001
A238
2241
A238
1405
8838
0001
9128
3329
9138
1109
BB88
0001
AAAA
ENDCHAR
STARTCHAR U+0162
ENCODING 354
SWIDTH 1000 0
DWIDTH 16 0
BBX 16 16 0 -2
BITMAP 
5555
8000
0001
A238
2241
A238
1405
8838
0001
9138
3321
9130
1109
BBB0
0001
AAAA
ENDCHAR
STARTCHAR U+0163
ENCODING 355
SWIDTH 1000 0
DWIDTH 16 0
BBX 16 16 0 -2
BITMAP 
5555
8000
0001
A238
2241
A238
1405
8838
0001
9118
3321
9130
1129
BB90
0001
AAAA
ENDCHAR
STARTCHAR U+0164
ENCODING 356
SWIDTH 1000 0
DWIDTH 16 0
BBX 16 16 0 -2
BITMAP 
5555
8000
0001
A238
2241
A238
1405
8838
0001
9138
3309
9108
1111
BB90
0001
AAAA
ENDCHAR
STARTCHAR U+0165
ENCODING 357
SWIDTH 1000 0
DWIDTH 16 0
BBX 16 16 0 -2
BITMAP 
5555
8000
0001
A238
2241
A238
1405
8838
0001
9110
3329
9110
1129
BB90
0001
AAAA
ENDCHAR
STARTCHAR U+0166
ENCODING 358
SWIDTH 1000 0
DWIDTH 16 0
BBX 16 16 0 -2
BITMAP 
5555
8000
0001
A238
2241
A238
1405
8838
0001
9110
3329
9118
1109
BBB0
0001
AAAA
ENDCHAR
STARTCHAR U+0167
ENCODING 359
SWIDTH 1000 0
DWIDTH 16 0
BBX 16 16 0 -2
BITMAP 
5555
8000
0001
A238
2241
A238
1405
8838
0001
9310
30A9
9128
1229
BB90
0001
AAAA
ENDCHAR
STARTCHAR U+0168
ENCODING 360
SWIDTH 1000 0
DWIDTH 16 0
BBX 16 16 0 -2
BITMAP 
5555
8000
0001
A238
2241
A238
1405
8838
0001
9310
30B1
9110
1211
BBB8
0001
AAAA
ENDCHAR
STARTCHAR U+0169
ENCODING 361
SWIDTH 1000 0
DWIDTH 16 0
BBX 16 16 0 -2
BITMAP 
5555
8000
0001
A238
2241
A238
1405
8838
0001
9330
3089
9110
1221
BBB8
0001
AAAA
ENDCHAR
STARTCHAR U+016A
ENCODING 362
SWIDTH 1000 0
DWIDTH 16 0
BBX 16 16 0 -2
BITMAP 
5555
8000
0001
A238
2241
A238
1405
8838
0001
9330
3089
9110
1209
BBB0
0001
AAAA
ENDCHAR
STARTCHAR U+016B
ENCODING 363
SWIDTH 1000 0
DWIDTH 16 0
BBX 16 16 0 -2
BITMAP 
5555
8000
0001
A238
2241
A238
1405
8838
0001
9328
30A9
9138
1209
BB88
0001
AAAA
ENDCHAR
STARTCHAR U+016C
ENCODING 364
SWIDTH 1000 0
DWIDTH 16 0
BBX 16 16 0 -2
BITMAP 
5555
8000
0001
A238
2241
A238
1405
8838
0001
9338
30A1
9130
1209
BBB0
0001
AAAA
ENDCHAR
STARTCHAR U+016D
ENCODING 365
SWIDTH 1000 0
DWIDTH 16 0
BBX 16 16 0 -2
BITMAP 
5555
8000
0001
A238
2241
A238
1405
8838
0001
9318
30A1
9130
1229
BB90
0001
AAAA
ENDCHAR
STARTCHAR U+016E
ENCODING 366
SWIDTH 1000 0
DWIDTH 16 0
BBX 16 16 0 -2
BITMAP 
5555
8000
0001
A238
2241
A238
1405
8838
0001
9338
3089
9108
1211
BB90
0001
AAAA
ENDCHAR
STARTCHAR U+016F
ENCODING 367
SWIDTH 1000 0
DWIDTH 16 0
BBX 16 16 0 -2
BITMAP 
5555
8000
0001
A238
2241
A238
1405
8838
0001
9310
30A9
9110
1229
BB90
0001
AAAA
ENDCHAR
STARTCHAR U+0170
ENCODING 368
SWIDTH 1000 0
DWIDTH 16 0
BBX 16 16 0 -2
BITMAP 
5555
8000
0001
A238
2241
A238
1405
8838
0001
9310
30A9
9118
1209
BBB0
0001
AAAA
ENDCHAR
STARTCHAR U+0171
ENCODING 369
SWIDTH 1000 0
DWIDTH 16 0
BBX 16 16 0 -2
BITMAP 
5555
8000
0001
A238
2241
A238
1405
8838
0001
9310
30A9
9128
10A9
BB10
0001
AAAA
ENDCHAR
STARTCHAR U+0172
ENCODING 370
SWIDTH 1000 0
DWIDTH 16 0
BBX 16 16 0 -2
BITMAP 
5555
8000
0001
A238
2241
A238
1405
8838
0001
9310
30B1
9110
1091
BB38
0001
AAAA
ENDCHAR
STARTCHAR U+0173
ENCODING 371
SWIDTH 1000 0
DWIDTH 16 0
BBX 16 16 0 -2
BITMAP 
5555
8000
0001
A238
2241
A238
1405
8838
0001
9330
3089
9110
10A1
BB38
0001
AAAA
ENDCHAR
STARTCHAR U+0174
ENCODING 372
SWIDTH 1000 0
DWIDTH 16 0
BBX 16 16 0 -2
BITMAP 
5555
8000
0001
A238
2241
A238
1405
8838
0001
9330
3089
9110
1089
BB30
0001
AAAA
ENDCHAR
STARTCHAR U+0175
ENCODING 373
SWIDTH 1000 0
DWIDTH 16 0
BBX 16 16 0 -2
BITMAP 
5555
8000
0001
A238
2241
A238
1405
8838
0001
9328
30A9
9138
1089
BB08
0001
AAAA
ENDCHAR
STARTCHAR U+0176
ENCODING 374
SWIDTH 1000 0
DWIDTH 16 0
BBX 16 16 0 -2
BITMAP 
5555
8000
0001
A238
2241
A238
1405
8838
0001
9338
30A1
9130
1089
BB30
0001
AAAA
ENDCHAR
STARTCHAR U+0177
ENCODING 375
SWIDTH 1000 0
DWIDTH 16 0
BBX 16 16 0 -2
BITMAP 
5555
8000
0001
A238
2241
A238
1405
8838
0001
9318
30A1
9130
10A9
BB10
0001
AAAA
ENDCHAR
STARTCHAR U+0178
ENCODING 376
SWIDTH 1000 0
DWIDTH 16 0
BBX 16 16 0 -2
BITMAP 
5555
8000
0001
A238
2241
A238
1405
8838
0001
9338
3089
9108
1091
BB10
0001
AAAA
ENDCHAR
STARTCHAR U+0179
ENCODING 377
SWIDTH 1000 0
DWIDTH 16 0
BBX 16 16 0 -2
BITMAP 
5555
8000
0001
A238
2241
A238
1405
8838
0001
9310
30A9
9110
10A9
BB10
0001
AAAA
ENDCHAR
STARTCHAR U+017A
ENCODING 378
SWIDTH 1000 0
DWIDTH 16 0
BBX 16 16 0 -2
BITMAP 
5555
8000
0001
A238
2241
A238
1405
8838
0001
9310
30A9
9118
1089
BB30
0001
AAAA
ENDCHAR
STARTCHAR U+017B
ENCODING 379
SWIDTH 1000 0
DWIDTH 16 0
BBX 16 16 0 -2
BITMAP 
5555
8000
0001
A238
2241
A238
1405
8838
0001
9290
32A9
93A8
10A9
B890
0001
AAAA
ENDCHAR
STARTCHAR U+017C
ENCODING 380
SWIDTH 1000 0
DWIDTH 16 0
BBX 16 16 0 -2
BITMAP 
5555
8000
0001
A238
2241
A238
1405
8838
0001
9290
32B1
9390
1091
B8B8
0001
AAAA
ENDCHAR
STARTCHAR U+017D
ENCODING 381
SWIDTH 1000 0
DWIDTH 16 0
BBX 16 16 0 -2
BITMAP 
5555
8000
0001
A238
2241
A238
1405
8838
0001
92B0
3289
9390
10A1
B8B8
0001
AAAA
ENDCHAR
STARTCHAR U+017E
ENCODING 382
SWIDTH 1000 0
DWIDTH 16 0
BBX 16 16 0 -2
BITMAP 
5555
8000
0001
A238
2241
A238
1405
8838
0001
92B0
3289
9390
1089
B8B0
0001
AAAA
ENDCHAR
STARTCHAR U+017F
ENCODING 383
SWIDTH 1000 0
DWIDTH 16 0
BBX 16 16 0 -2
BITMAP 
5555
8000
0001
A238
2241
A238
1405
8838
0001
92A8
32A9
93B8
1089
B888
0001
AAAA
ENDCHAR
STARTCHAR U+0180
ENCODING 384
SWIDTH 1000 0
DWIDTH 16 0
BBX 16 16 0 -2
BITMAP 
5555
8000
0001
A238
2241
A238
1405
8838
0001
92B8
32A1
93B0
1089
B8B0
0001
AAAA
ENDCHAR
STARTCHAR U+0181
ENCODING 385
SWIDTH 1000 0
DWIDTH 16 0
BBX 16 16 0 -2
BITMAP 
5555
8000
0001
A238
2241
A238
1405
8838
0001
9298
32A1
93B0
10A9
B890
0001
AAAA
ENDCHAR
STARTCHAR U+0182
ENCODING 386
SWIDTH 1000 0
DWIDTH 16 0
BBX 16 16 0 -2
BITMAP 
5555
8000
0001
A238
2241
A238
1405
8838
0001
92B8
3289
9388
1091
B890
0001
AAAA
ENDCHAR
STARTCHAR U+0183
ENCODING 387
SWIDTH 1000 0
DWIDTH 16 0
BBX 16 16 0 -2
BITMAP 
5555
8000
0001
A238
2241
A238
1405
8838
0001
9290
32A9
9390
10A9
B890
0001
AAAA
ENDCHAR
STARTCHAR U+0184
ENCODING 388
SWIDTH 1000 0
DWIDTH 16 0
BBX 16 16 0 -2
BITMAP 
5555
8000
0001
A238
2241
A238
1405
8838
0001
9290
32A9
9398
1089
B8B0
0001
AAAA
ENDCHAR
STARTCHAR U+0185
ENCODING 389
SWIDTH 1000 0
DWIDTH 16 0
BBX 16 16 0 -2
BITMAP 
5555
8000
0001
A238
2241
A238
1405
8838
0001
9390
3229
9328
10A9
BB10
0001
AAAA
ENDCHAR
STARTCHAR U+0186
ENCODING 390
SWIDTH 1000 0
DWIDTH 16 0
BBX 16 16 0 -2
BITMAP 
5555
8000
0001
A238
2241
A238
1405
8838
0001
9390
3231
9310
1091
BB38
0001
AAAA
ENDCHAR
STARTCHAR U+0187
ENCODING 391
SWIDTH 1000 0
DWIDTH 16 0
BBX 16 16 0 -2
BITMAP 
5555
8000
0001
A238
2241
A238
1405
8838
0001
93B0
3209
9310
10A1
BB38
0001
AAAA
ENDCHAR
STARTCHAR U+0188
ENCODING 392
SWIDTH 1000 0
DWIDTH 16 0
BBX 16 16 0 -2
BITMAP 
5555
8000
0001
A238
2241
A238
1405
8838
0001
93B0
3209
9310
1089
BB30
0001
AAAA
ENDCHAR
STARTCHAR U+0189
ENCODING 393
SWIDTH 1000 0
DWIDTH 16 0
BBX 16 16 0 -2
BITMAP 
5555
8000
0001
A238
2241
A238
1405
8838
0001
93A8
3229
9338
1089
BB08
0001
AAAA
ENDCHAR
STARTCHAR U+018A
ENCODING 394
SWIDTH 1000 0
DWIDTH 16 0
BBX 16 16 0 -2
BITMAP 
5555
8000
0001
A238
2241
A238
1405
8838
0001
93B8
3221
9330
1089
BB30
0001
AAAA
ENDCHAR
STARTCHAR U+018B
ENCODING 395
SWIDTH 1000 0
DWIDTH 16 0
BBX 16 16 0 -2
BITMAP 
5555
8000
0001
A238
2241
A238
1405
8838
0001
9398
3221
9330
10A9
BB10
0001
AAAA
ENDCHAR
STARTCHAR U+018C
ENCODING 396
SWIDTH 1000 0
DWIDTH 16 0
BBX 16 16 0 -2
BITMAP 
5555
8000
0001
A238
2241
A238
1405
8838
0001
93B8
3209
9308
1091
BB10
0001
AAAA
ENDCHAR
STARTCHAR U+018D
ENCODING 397
SWIDTH 1000 0
DWIDTH 16 0
BBX 16 16 0 -2
BITMAP 
5555
8000
0001
A238
2241
A238
1405
8838
0001
9390
3229
9310
10A9
BB10
0001
AAAA
ENDCHAR
STARTCHAR U+018E
ENCODING 398
SWIDTH 1000 0
DWIDTH 16 0
BBX 16 16 0 -2
BITMAP 
5555
8000
0001
A238
2241
A238
1405
8838
0001
9390
3229
9318
1089
BB30
0001
AAAA
ENDCHAR
STARTCHAR U+018F
ENCODING 399
SWIDTH 1000 0
DWIDTH 16 0
BBX 16 16 0 -2
BITMAP 
5555
8000
0001
A238
2241
A238
1405
8838
0001
9190
3229
9328
12A9
B910
0001
AAAA
ENDCHAR
STARTCHAR U+0190
ENCODING 400
SWIDTH 1000 0
DWIDTH 16 0
BBX 16 16 0 -2
BITMAP 
5555
8000
0001
A238
2241
A238
1405
8838
0001
9190
3231
9310
1291
B938
0001
AAAA
ENDCHAR
STARTCHAR U+0191
ENCODING 401
SWIDTH 1000 0
DWIDTH 16 0
BBX 16 16 0 -2
BITMAP 
5555
8000
0001
A238
2241
A238
1405
8838
0001
91B0
3209
9310
12A1
B938
0001
AAAA
ENDCHAR
STARTCHAR U+0192
ENCODING 402
SWIDTH 1000 0
DWIDTH 16 0
BBX 16 16 0 -2
BITMAP 
5555
8000
0001
A238
2241
A238
1405
8838
0001
91B0
3209
9310
1289
B930
0001
AAAA
ENDCHAR
STARTCHAR U+0193
ENCODING 403
SWIDTH 1000 0
DWIDTH 16 0
BBX 16 16 0 -2
BITMAP 
5555
8000
0001
A238
2241
A238
1405
8838
0001
91A8
3229
9338
1289
B908
0001
AAAA
ENDCHAR
STARTCHAR U+0194
ENCODING 404
SWIDTH 1000 0
DWIDTH 16 0
BBX 16 16 0 -2
BITMAP 
5555
8000
0001
A238
2241
A238
1405
8838
0001
91B8
3221
9330
1289
B930
0001
AAAA
ENDCHAR
STARTCHAR U+0195
ENCODING 405
SWIDTH 1000 0
DWIDTH 16 0
BBX 16 16 0 -2
BITMAP 
5555
8000
0001
A238
2241
A238
1405
8838
0001
9198
3221
9330
12A9
B910
0001
AAAA
ENDCHAR
STARTCHAR U+0196
ENCODING 406
SWIDTH 1000 0
DWIDTH 16 0
BBX 16 16 0 -2
BITMAP 
5555
8000
0001
A238
2241
A238
1405
8838
0001
91B8
3209
9308
1291
B910
0001
AAAA
ENDCHAR
STARTCHAR U+0197
ENCODING 407
SWIDTH 1000 0
DWIDTH 16 0
BBX 16 16 0 -2
BITMAP 
5555
8000
0001
A238
2241
A238
1405
8838
0001
9190
3229
9310
12A9
B910
0001
AAAA
ENDCHAR
STARTCHAR U+0198
ENCODING 408
SWIDTH 1000 0
DWIDTH 16 0
BBX 16 16 0 -2
BITMAP 
5555
8000
0001
A238
2241
A238
1405
8838
0001
9190
3229
9318
1289
B930
0001
AAAA
ENDCHAR
STARTCHAR U+0199
ENCODING 409
SWIDTH 1000 0
DWIDTH 16 0
BBX 16 16 0 -2
BITMAP 
5555
8000
0001
A238
2241
A238
1405
8838
0001
9390
30A9
90A8
1129
B910
0001
AAAA
ENDCHAR
STARTCHAR U+019A
ENCODING 410
SWIDTH 1000 0
DWIDTH 16 0
BBX 16 16 0 -2
BITMAP 
5555
8000
0001
A238
2241
A238
1405
8838
0001
9390
30B1
9090
1111
B938
0001
AAAA
ENDCHAR
STARTCHAR U+019B
ENCODING 411
SWIDTH 1000 0
DWIDTH 16 0
BBX 16 16 0 -2
BITMAP 
5555
8000
0001
A238
2241
A238
1405
8838
0001
93B0
3089
9090
1121
B938
0001
AAAA
ENDCHAR
STARTCHAR U+019C
ENCODING 412
SWIDTH 1000 0
DWIDTH 16 0
BBX 16 16 0 -2
BITMAP 
5555
8000
0001
A238
2241
A238
1405
8838
0001
93B0
3089
9090
1109
B930
0001
AAAA
ENDCHAR
STARTCHAR U+019D
ENCODING 413
SWIDTH 1000 0
DWIDTH 16 0
BBX 16 16 0 -2
BITMAP 
5555
8000
0001
A238
2241
A238
1405
8838
0001
93A8
30A9
90B8
1109
B908
0001
AAAA
ENDCHAR
STARTCHAR U+019E
ENCODING 414
SWIDTH 1000 0
DWIDTH 16 0
BBX 16 16 0 -2
BITMAP 
5555
8000
0001
A238
2241
A238
1405
8838
0001
93B8
30A1
90B0
1109
B930
0001
AAAA
ENDCHAR
STARTCHAR U+019F
ENCODING 415
SWIDTH 1000 0
DWIDTH 16 0
BBX 16 16 0 -2
BITMAP 
5555
8000
0001
A238
2241
A238
1405
8838
0001
9398
30A1
90B0
1129
B910
0001
AAAA
ENDCHAR
STARTCHAR U+01A0
ENCODING 416
SWIDTH 1000 0
DWIDTH 16 0
BBX 16 16 0 -2
BITMAP 
5555
8000
0001
A238
2241
A238
1405
8838
0001
93B8
3089
9088
1111
B910
0001
AAAA
ENDCHAR
STARTCHAR U+01A1
ENCODING 417
SWIDTH 1000 0
DWIDTH 16 0
BBX 16 16 0 -2
BITMAP 
5555
8000
0001
A238
2241
A238
1405
8838
0001
9390
30A9
9090
1129
B910
0001
AAAA
ENDCHAR
STARTCHAR U+01A2
ENCODING 418
SWIDTH 1000 0
DWIDTH 16 0
BBX 16 16 0 -2
BITMAP 
5555
8000
0001
A238
2241
A238
1405
8838
0001
9390
30A9
9098
1109
B930
0001
AAAA
ENDCHAR
STARTCHAR U+01A3
ENCODING 419
SWIDTH 1000 0
DWIDTH 16 0
BBX 16 16 0 -2
BITMAP 
5555
8000
0001
A238
2241
A238
1405
8838
0001
9110
32A9
9128
12A9
B910
0001
AAAA
ENDCHAR
STARTCHAR U+01A4
ENCODING 420
SWIDTH 1000 0
DWIDTH 16 0
BBX 16 16 0 -2
BITMAP 
5555
8000
0001
A238
2241
A238
1405
8838
0001
9110
32B1
9110
1291
B938
0001
AAAA
ENDCHAR
STARTCHAR U+01A5
ENCODING 421
SWIDTH 1000 0
DWIDTH 16 0
BBX 16 16 0 -2
BITMAP 
5555
8000
0001
A238
2241
A238
1405
8838
0001
9130
3289
9110
12A1
B938
0001
AAAA
ENDCHAR
STARTCHAR U+01A6
ENCODING 422
SWIDTH 1000 0
DWIDTH 16 0
BBX 16 16 0 -2
BITMAP 
5555
8000
0001
A238
2241
A238
1405
8838
0001
9130
3289
9110
1289
B930
0001
AAAA
ENDCHAR
STARTCHAR U+01A7
ENCODING 423
SWIDTH 1000 0
DWIDTH 16 0
BBX 16 16 0 -2
BITMAP 
5555
8000
0001
A238
2241
A238
1405
8838
0001
9128
32A9
9138
1289
B908
0001
AAAA
ENDCHAR
STARTCHAR U+01A8
ENCODING 424
SWIDTH 1000 0
DWIDTH 16 0
BBX 16 16 0 -2
BITMAP 
5555
8000
0001
A238
2241
A238
1405
8838
0001
9138
32A1
9130
1289
B930
0001
AAAA
ENDCHAR
STARTCHAR U+01A9
ENCODING 425
SWIDTH 1000 0
DWIDTH 16 0
BBX 16 16 0 -2
BITMAP 
5555
8000
0001
A238
2241
A238
1405
8838
0001
9118
32A1
9130
12A9
B910
0001
AAAA
ENDCHAR
STARTCHAR U+01AA
ENCODING 426
SWIDTH 1000 0
DWIDTH 16 0
BBX 16 16 0 -2
BITMAP 
5555
8000
0001
A238
2241
A238
1405
8838
0001
9138
3289
9108
1291
B910
0001
AAAA
ENDCHAR
STARTCHAR U+01AB
ENCODING 427
SWIDTH 1000 0
DWIDTH 16 0
BBX 16 16 0 -2
BITMAP 
5555
8000
0001
A238
2241
A238
1405
8838
0001
9110
32A9
9110
12A9
B910
0001
AAAA
ENDCHAR
STARTCHAR U+01AC
ENCODING 428
SWIDTH 1000 0
DWIDTH 16 0
BBX 16 16 0 -2
BITMAP 
5555
8000
0001
A238
2241
A238
1405
8838
0001
9110
32A9
9118
1289
B930
0001
AAAA
ENDCHAR
STARTCHAR U+01AD
ENCODING 429
SWIDTH 1000 0
DWIDTH 16 0
BBX 16 16 0 -2
BITMAP 
5555
8000
0001
A238
2241
A238
1405
8838
0001
9110
32A9
91A8
10A9
BB10
0001
AAAA
ENDCHAR
STARTCHAR U+01AE
ENCODING 430
SWIDTH 1000 0
DWIDTH 16 0
BBX 16 16 0 -2
BITMAP 
5555
8000
0001
A238
2241
A238
1405
8838
0001
9110
32B1
9190
1091
BB38
0001
AAAA
ENDCHAR
STARTCHAR U+01AF
ENCODING 431
SWIDTH 1000 0
DWIDTH 16 0
BBX 16 16 0 -2
BITMAP 
5555
8000
0001
A238
2241
A238
1405
8838
0001
9130
3289
9190
10A1
BB38
0001
AAAA
ENDCHAR
STARTCHAR U+01B0
ENCODING 432
SWIDTH 1000 0
DWIDTH 16 0
BBX 16 16 0 -2
BITMAP 
5555
8000
0001
A238
2241
A238
1405
8838
0001
9130
3289
9190
1089
BB30
0001
AAAA
ENDCHAR
STARTCHAR U+01B1
ENCODING 433
SWIDTH 1000 0
DWIDTH 16 0
BBX 16 16 0 -2
BITMAP 
5555
8000
0001
A238
2241
A238
1405
8838
0001
9128
32A9
91B8
1089
BB08
0001
AAAA
ENDCHAR
STARTCHAR U+01B2
ENCODING 434
SWIDTH 1000 0
DWIDTH 16 0
BBX 16 16 0 -2
BITMAP 
5555
8000
0001
A238
2241
A238
1405
8838
0001
9138
32A1
91B0
1089
BB30
0001
AAAA
ENDCHAR
STARTCHAR U+01B3
ENCODING 435
SWIDTH 1000 0
DWIDTH 16 0
BBX 16 16 0 -2
BITMAP 
5555
8000
0001
A238
2241
A238
1405
8838
0001
9118
32A1
91B0
10A9
BB10
0001
AAAA
ENDCHAR
STARTCHAR U+01B4
ENCODING 436
SWIDTH 1000 0
DWIDTH 16 0
BBX 16 16 0 -2
BITMAP 
5555
8000
0001
A238
2241
A238
1405
8838
0001
9138
3289
9188
1091
BB10
0001
AAAA
ENDCHAR
STARTCHAR U+01B5
ENCODING 437
SWIDTH 1000 0
DWIDTH 16 0
BBX 16 16 0 -2
BITMAP 
5555
8000
0001
A238
2241
A238
1405
8838
0001
9110
32A9
9190
10A9
BB10
0001
AAAA
ENDCHAR
STARTCHAR U+01B6
ENCODING 438
SWIDTH 1000 0
DWIDTH 16 0
BBX 16 16 0 -2
BITMAP 
5555
8000
0001
A238
2241
A238
1405
8838
0001
9110
32A9
9198
1089
BB30
0001
AAAA
ENDCHAR
STARTCHAR U+01B7
ENCODING 439
SWIDTH 1000 0
DWIDTH 16 0
BBX 16 16 0 -2
BITMAP 
5555
8000
0001
A238
2241
A238
1405
8838
0001
B110
0AA9
92A8
22A9
B910
0001
AAAA
ENDCHAR
STARTCHAR U+01B8
ENCODING 440
SWIDTH 1000 0
DWIDTH 16 0
BBX 16 16 0 -2
BITMAP 
5555
8000
0001
A238
2241
A238
1405
8838
0001
B110
0AB1
9290
2291
B938
0001
AAAA
ENDCHAR
STARTCHAR U+01B9
ENCODING 441
SWIDTH 1000 0
DWIDTH 16 0
BBX 16 16 0 -2
BITMAP 
5555
8000
0001
A238
2241
A238
1405
8838
0001
B130
0A89
9290
22A1
B938
0001
AAAA
ENDCHAR
STARTCHAR U+01BA
ENCODING 442
SWIDTH 1000 0
DWIDTH 16 0
BBX 16 16 0 -2
BITMAP 
5555
8000
0001
A238
2241
A238
1405
8838
0001
B130
0A89
9290
2289
B930
0001
AAAA
ENDCHAR
STARTCHAR U+01BB
ENCODING 443
SWIDTH 1000 0
DWIDTH 16 0
BBX 16 16 0 -2
BITMAP 
5555
8000
0001
A238
2241
A238
1405
8838
0001
B128
0AA9
92B8
2289
B908
0001
AAAA
ENDCHAR
STARTCHAR U+01BC
ENCODING 444
SWIDTH 1000 0
DWIDTH 16 0
BBX 16 16 0 -2
BITMAP 
5555
8000
0001
A238
2241
A238
1405
8838
0001
B138
0AA1
92B0
2289
B930
0001
AAAA
ENDCHAR
STARTCHAR U+01BD
ENCODING 445
SWIDTH 1000 0
DWIDTH 16 0
BBX 16 16 0 -2
BITMAP 
5555
8000
0001
A238
2241
A238
1405
8838
0001
B118
0AA1
92B0
22A9
B910
0001
AAAA
ENDCHAR
STARTCHAR U+01BE
ENCODING 446
SWIDTH 1000 0
DWIDTH 16 0
BBX 16 16 0 -2
BITMAP 
5555
8000
0001
A238
2241
A238
1405
8838
0001
B138
0A89
9288
2291
B910
0001
AAAA
ENDCHAR
STARTCHAR U+01BF
ENCODING 447
SWIDTH 1000 0
DWIDTH 16 0
BBX 16 16 0 -2
BITMAP 
5555
8000
0001
A238
2241
A238
1405
8838
0001
B110
0AA9
9290
22A9
B910
0001
AAAA
ENDCHAR
STARTCHAR U+01C0
ENCODING 448
SWIDTH 1000 0
DWIDTH 16 0
BBX 16 16 0 -2
BITMAP 
5555
8000
0001
A238
2241
A238
1405
8838
0001
B110
0AA9
9298
2289
B930
0001
AAAA
ENDCHAR
STARTCHAR U+01C1
ENCODING 449
SWIDTH 1000 0
DWIDTH 16 0
BBX 16 16 0 -2
BITMAP 
5555
8000
0001
A238
2241
A238
1405
8838
0001
B110
0B29
9128
2129
BB90
0001
AAAA
ENDCHAR
STARTCHAR U+01C2
ENCODING 450
SWIDTH 1000 0
DWIDTH 16 0
BBX 16 16 0 -2
BITMAP 
5555
8000
0001
A238
2241
A238
1405
8838
0001
B110
0B31
9110
2111
BBB8
0001
AAAA
ENDCHAR
STARTCHAR U+01C3
ENCODING 451
SWIDTH 1000 0
DWIDTH 16 0
BBX 16 16 0 -2
BITMAP 
5555
8000
0001
A238
2241
A238
1405
8838
0001
B130
0B09
9110
2121
BBB8
0001
AAAA
ENDCHAR
STARTCHAR U+01C4
ENCODING 452
SWIDTH 1000 0
DWIDTH 16 0
BBX 16 16 0 -2
BITMAP 
5555
8000
0001
A238
2241
A238
1405
8838
0001
B130
0B09
9110
2109
BBB0
0001
AAAA
ENDCHAR
STARTCHAR U+01C5
ENCODING 453
SWIDTH 1000 0
DWIDTH 16 0
BBX 16 16 0 -2
BITMAP 
5555
8000
0001
A238
2241
A238
1405
8838
0001
B128
0B29
9138
2109
BB88
0001
AAAA
ENDCHAR
STARTCHAR U+01C6
ENCODING 454
SWIDTH 1000 0
DWIDTH 16 0
BBX 16 16 0 -2
BITMAP 
5555
8000
0001
A238
2241
A238
1405
8838
0001
B138
0B21
9130
2109
BBB0
0001
AAAA
ENDCHAR
STARTCHAR U+01C7
ENCODING 455
SWIDTH 1000 0
DWIDTH 16 0
BBX 16 16 0 -2
BITMAP 
5555
8000
0001
A238
2241
A238
1405
8838
0001
B118
0B21
9130
2129
BB90
0001
AAAA
ENDCHAR
STARTCHAR U+01C8
ENCODING 456
SWIDTH 1000 0
DWIDTH 16 0
BBX 16 16 0 -2
BITMAP 
5555
8000
0001
A238
2241
A238
1405
8838
0001
B138
0B09
9108
2111
BB90
0001
AAAA
ENDCHAR
STARTCHAR U+01C9
ENCODING 457
SWIDTH 1000 0
DWIDTH 16 0
BBX 16 16 0 -2
BITMAP 
5555
8000
0001
A238
2241
A238
1405
8838
0001
B110
0B29
9110
2129
BB90
0001
AAAA
ENDCHAR
STARTCHAR U+01CA
ENCODING 458
SWIDTH 1000 0
DWIDTH 16 0
BBX 16 16 0 -2
BITMAP 
5555
8000
0001
A238
2241
A238
1405
8838
0001
B110
0B29
9118
2109
BBB0
0001
AAAA
ENDCHAR
STARTCHAR U+01CB
ENCODING 459
SWIDTH 1000 0
DWIDTH 16 0
BBX 16 16 0 -2
BITMAP 
5555
8000
0001
A238
2241
A238
1405
8838
0001
B310
08A9
9128
2229
BB90
0001
AAAA
ENDCHAR
STARTCHAR U+01CC
ENCODING 460
SWIDTH 1000 0
DWIDTH 16 0
BBX 16 16 0 -2
BITMAP 
5555
8000
0001
A238
2241
A238
1405
8838
0001
B310
08B1
9110
2211
BBB8
0001
AAAA
ENDCHAR
STARTCHAR U+01CD
ENCODING 461
SWIDTH 1000 0
DWIDTH 16 0
BBX 16 16 0 -2
BITMAP 
5555
8000
0001
A238
2241
A238
1405
8838
0001
B330
0889
9110
2221
BBB8
0001
AAAA
ENDCHAR
STARTCHAR U+01CE
ENCODING 462
SWIDTH 1000 0
DWIDTH 16 0
BBX 16 16 0 -2
BITMAP 
5555
8000
0001
A238
2241
A238
1405
8838
0001
B330
0889
9110
2209
BBB0
0001
AAAA
ENDCHAR
STARTCHAR U+01CF
ENCODING 463
SWIDTH 1000 0
DWIDTH 16 0
BBX 16 16 0 -2
BITMAP 
5555
8000
0001
A238
2241
A238
1405
8838
0001
B328
08A9
9138
2209
BB88
0001
AAAA
ENDCHAR
STARTCHAR U+01D0
ENCODING 464
SWIDTH 1000 0
DWIDTH 16 0
BBX 16 16 0 -2
BITMAP 
5555
8000
0001
A238
2241
A238
1405
8838
0001
B338
08A1
9130
2209
BBB0
0001
AAAA
ENDCHAR
STARTCHAR U+01D1
ENCODING 465
SWIDTH 1000 0
DWIDTH 16 0
BBX 16 16 0 -2
BITMAP 
5555
8000
0001
A238
2241
A238
1405
8838
0001
B318
08A1
9130
2229
BB90
0001
AAAA
ENDCHAR
STARTCHAR U+01D2
ENCODING 466
SWIDTH 1000 0
DWIDTH 16 0
BBX 16 16 0 -2
BITMAP 
5555
8000
0001
A238
2241
A238
1405
8838
0001
B338
0889
9108
2211
BB90
0001
AAAA
ENDCHAR
STARTCHAR U+01D3
ENCODING 467
SWIDTH 1000 0
DWIDTH 16 0
BBX 16 16 0 -2
BITMAP 
5555
8000
0001
A238
2241
A238
1405
8838
0001
B310
08A9
9110
2229
BB90
0001
AAAA
ENDCHAR
STARTCHAR U+01D4
ENCODING 468
SWIDTH 1000 0
DWIDTH 16 0
BBX 16 16 0 -2
BITMAP 
5555
8000
0001
A238
2241
A238
1405
8838
0001
B310
08A9
9118
2209
BBB0
0001
AAAA
ENDCHAR
STARTCHAR U+01D5
ENCODING 469
SWIDTH 1000 0
DWIDTH 16 0
BBX 16 16 0 -2
BITMAP 
5555
8000
0001
A238
2241
A238
1405
8838
0001
B310
08A9
9128
20A9
BB10
0001
AAAA
ENDCHAR
STARTCHAR U+01D6
ENCODING 470
SWIDTH 1000 0
DWIDTH 16 0
BBX 16 16 0 -2
BITMAP 
5555
8000
0001
A238
2241
A238
1405
8838
0001
B310
08B1
9110
2091
BB38
0001
AAAA
ENDCHAR
STARTCHAR U+01D7
ENCODING 471
SWIDTH 1000 0
DWIDTH 16 0
BBX 16 16 0 -2
BITMAP 
5555
8000
0001
A238
2241
A238
1405
8838
0001
B330
0889
9110
20A1
BB38
0001
AAAA
ENDCHAR
STARTCHAR U+01D8
ENCODING 472
SWIDTH 1000 0
DWIDTH 16 0
BBX 16 16 0 -2
BITMAP 
5555
8000
0001
A238
2241
A238
1405
8838
0001
B330
0889
9110
2089
BB30
0001
AAAA
ENDCHAR
STARTCHAR U+01D9
ENCODING 473
SWIDTH 1000 0
DWIDTH 16 0
BBX 16 16 0 -2
BITMAP 
5555
8000
0001
A238
2241
A238
1405
8838
0001
B328
08A9
9138
2089
BB08
0001
AAAA
ENDCHAR
STARTCHAR U+01DA
ENCODING 474
SWIDTH 1000 0
DWIDTH 16 0
BBX 16 16 0 -2
BITMAP 
5555
8000
0001
A238
2241
A238
1405
8838
0001
B338
08A1
9130
2089
BB30
0001
AAAA
ENDCHAR
STARTCHAR U+01DB
ENCODING 475
SWIDTH 1000 0
DWIDTH 16 0
BBX 16 16 0 -2
BITMAP 
5555
8000
0001
A238
2241
A238
1405
8838
0001
B318
08A1
9130
20A9
BB10
0001
AAAA
ENDCHAR
STARTCHAR U+01DC
ENCODING 476
SWIDTH 1000 0
DWIDTH 16 0
BBX 16 16 0 -2
BITMAP 
5555
8000
0001
A238
2241
A238
1405
8838
0001
B338
0889
9108
2091
BB10
0001
AAAA
ENDCHAR
STARTCHAR U+01DD
ENCODING 477
SWIDTH 1000 0
DWIDTH 16 0
BBX 16 16 0 -2
BITMAP 
5555
8000
0001
A238
2241
A238
1405
8838
0001
B310
08A9
9110
20A9
BB10
0001
AAAA
ENDCHAR
STARTCHAR U+01DE
ENCODING 478
SWIDTH 1000 0
DWIDTH 16 0
BBX 16 16 0 -2
BITMAP 
5555
8000
0001
A238
2241
A238
1405
8838
0001
B310
08A9
9118
2089
BB30
0001
AAAA
ENDCHAR
STARTCHAR U+01DF
ENCODING 479
SWIDTH 1000 0
DWIDTH 16 0
BBX 16 16 0 -2
BITMAP 
5555
8000
0001
A238
2241
A238
1405
8838
0001
B290
0AA9
93A8
20A9
B890
0001
AAAA
ENDCHAR
STARTCHAR U+01E0
ENCODING 480
SWIDTH 1000 0
DWIDTH 16 0
BBX 16 16 0 -2
BITMAP 
5555
8000
0001
A238
2241
A238
1405
8838
0001
B290
0AB1
9390
2091
B8B8
0001
AAAA
ENDCHAR
STARTCHAR U+01E1
ENCODING 481
SWIDTH 1000 0
DWIDTH 16 0
BBX 16 16 0 -2
BITMAP 
5555
8000
0001
A238
2241
A238
1405
8838
0001
B2B0
0A89
9390
20A1
B8B8
0001
AAAA
ENDCHAR
STARTCHAR U+01E2
ENCODING 482
SWIDTH 1000 0
DWIDTH 16 0
BBX 16 16 0 -2
BITMAP 
5555
8000
0001
A238
2241
A238
1405
8838
0001
B2B0
0A89
9390
2089
B8B0
0001
AAAA
ENDCHAR
STARTCHAR U+01E3
ENCODING 483
SWIDTH 1000 0
DWIDTH 16 0
BBX 16 16 0 -2
BITMAP 
5555
8000
0001
A238
2241
A238
1405
8838
0001
B2A8
0AA9
93B8
2089
B888
0001
AAAA
ENDCHAR
STARTCHAR U+01E4
ENCODING 484
SWIDTH 1000 0
DWIDTH 16 0
BBX 16 16 0 -2
BITMAP 
5555
8000
0001
A238
2241
A238
1405
8838
0001
B2B8
0AA1
93B0
2089
B8B0
0001
AAAA
ENDCHAR
STARTCHAR U+01E5
ENCODING 485
SWIDTH 1000 0
DWIDTH 16 0
BBX 16 16 0 -2
BITMAP 
5555
8000
0001
A238
2241
A238
1405
8838
0001
B298
0AA1
93B0
20A9
B890
0001
AAAA
ENDCHAR
STARTCHAR U+01E6
ENCODING 486
SWIDTH 1000 0
DWIDTH 16 0
BBX 16 16 0 -2
BITMAP 
5555
8000
0001
A238
2241
A238
1405
8838
0001
B2B8
0A89
9388
2091
B890
0001
AAAA
ENDCHAR
STARTCHAR U+01E7
ENCODING 487
SWIDTH 1000 0
DWIDTH 16 0
BBX 16 16 0 -2
BITMAP 
5555
8000
0001
A238
2241
A238
1405
8838
0001
B290
0AA9
9390
20A9
B890
0001
AAAA
ENDCHAR
STARTCHAR U+01E8
ENCODING 488
SWIDTH 1000 0
DWIDTH 16 0
BBX 16 16 0 -2
BITMAP 
5555
8000
0001
A238
2241
A238
1405
8838
0001
B290
0AA9
9398
2089
B8B0
0001
AAAA
ENDCHAR
STARTCHAR U+01E9
ENCODING 489
SWIDTH 1000 0
DWIDTH 16 0
BBX 16 16 0 -2
BITMAP 
5555
8000
0001
A238
2241
A238
1405
8838
0001
B390
0A29
9328
20A9
BB10
0001
AAAA
ENDCHAR
STARTCHAR U+01EA
ENCODING 490
SWIDTH 1000 0
DWIDTH 16 0
BBX 16 16 0 -2
BITMAP 
5555
8000
0001
A238
2241
A238
1405
8838
0001
B390
0A31
9310
2091
BB38
0001
AAAA
ENDCHAR
STARTCHAR U+01EB
ENCODING 491
SWIDTH 1000 0
DWIDTH 16 0
BBX 16 16 0 -2
BITMAP 
5555
8000
0001
A238
2241
A238
1405
8838
0001
B3B0
0A09
9310
20A1
BB38
0001
AAAA
ENDCHAR
STARTCHAR U+01EC
ENCODING 492
SWIDTH 1000 0
DWIDTH 16 0
BBX 16 16 0 -2
BITMAP 
5555
8000
0001
A238
2241
A238
1405
8838
0001
B3B0
0A09
9310
2089
BB30
0001
AAAA
ENDCHAR
STARTCHAR U+01ED
ENCODING 493
SWIDTH 1000 0
DWIDTH 16 0
BBX 16 16 0 -2
BITMAP 
5555
8000
0001
A238
2241
A238
1405
8838
0001
B3A8
0A29
9338
2089
BB08
0001
AAAA
ENDCHAR
STARTCHAR U+01EE
ENCODING 494
SWIDTH 1000 0
DWIDTH 16 0
BBX 16 16 0 -2
BITMAP 
5555
8000
0001
A238
2241
A238
1405
8838
0001
B3B8
0A21
9330
2089
BB30
0001
AAAA
ENDCHAR
STARTCHAR U+01EF
ENCODING 495
SWIDTH 1000 0
DWIDTH 16 0
BBX 16 16 0 -2
BITMAP 
5555
8000
0001
A238
2241
A238
1405
8838
0001
B398
0A21
9330
20A9
BB10
0001
AAAA
ENDCHAR
STARTCHAR U+01F0
ENCODING 496
SWIDTH 1000 0
DWIDTH 16 0
BBX 16 16 0 -2
BITMAP 
0000
0000
0100
0100
0280
0440
0940
0420
0450
0440
0AA0
0280
0540
06C0
0000
0000
ENDCHAR
STARTCHAR U+01F1
ENCODING 497
SWIDTH 1000 0
DWIDTH 16 0
BBX 16 16 0 -2
BITMAP 
0000
0000
0000
0820
1110
1290
0AA0
0440
0820
0920
0AA0
06C0
0100
0000
0000
0000
ENDCHAR
STARTCHAR U+01F2
ENCODING 498
SWIDTH 1000 0
DWIDTH 16 0
BBX 16 16 0 -2
BITMAP 
0000
0000
0080
0140
0140
0E80
1360
0D90
0160
0D00
1360
0D90
0160
0100
0000
0000
ENDCHAR
STARTCHAR U+01F3
ENCODING 499
SWIDTH 1000 0
DWIDTH 16 0
BBX 16 16 0 -2
BITMAP 
0000
0000
1020
3870
1020
0C70
1820
0AC0
1440
04A0
0B00
0300
0300
0780
0000
0000
ENDCHAR
STARTCHAR U+01F4
ENCODING 500
SWIDTH 1000 0
DWIDTH 16 0
BBX 16 16 0 -2
BITMAP 
0000
0000
0000
07C0
0AA0
0440
0280
0100
01C0
0700
0100
0180
0300
0100
0000
0000
ENDCHAR
STARTCHAR U+01F5
ENCODING 501
SWIDTH 1000 0
DWIDTH 16 0
BBX 16 16 0 -2
BITMAP 
0000
0000
0000
06C0
0920
1550
1390
0EE0
1390
1550
0920
06C0
0000
0000
0000
0000
ENDCHAR
STARTCHAR U+01F6
ENCODING 502
SWIDTH 1000 0
DWIDTH 16 0
BBX 16 16 0 -2
BITMAP 
0000
0000
0900
1680
1690
16A8
12A8
0AD0
08D0
0620
02C0
0280
0280
0380
0000
0000
ENDCHAR
STARTCHAR U+01F7
ENCODING 503
SWIDTH 1000 0
DWIDTH 16 0
BBX 16 16 0 -2
BITMAP 
0000
0000
0000
0EE0
1110
1110
1110
1110
1110
1110
0920
0540
0540
0FE0
0000
0000
ENDCHAR
STARTCHAR U+01F8
ENCODING 504
SWIDTH 1000 0
DWIDTH 16 0
BBX 16 16 0 -2
BITMAP 
0000
0000
0300
04C0
0420
0540
0540
0540
0540
0540
0540
0440
0240
01C0
0000
0000
ENDCHAR
STARTCHAR U+01F9
ENCODING 505
SWIDTH 1000 0
DWIDTH 16 0
BBX 16 16 0 -2
BITMAP 
0000
0000
0000
0300
0480
05C0
0A80
0DC0
0A80
0DC0
0A80
0540
04C0
0300
0000
0000
ENDCHAR
STARTCHAR U+01FA
ENCODING 506
SWIDTH 1000 0
DWIDTH 16 0
BBX 16 16 0 -2
BITMAP 
0000
0000
0000
0000
0000
0000
0000
7FFC
2AA8
1550
0AA0
0540
0280
0100
0000
0000
ENDCHAR
STARTCHAR U+01FB
ENCODING 507
SWIDTH 1000 0
DWIDTH 16 0
BBX 16 16 0 -2
BITMAP 
0000
0000
0000
0100
1E80
1080
1080
1040
2020
1C90
0220
0140
0080
0000
0000
0000
ENDCHAR
STARTCHAR U+01FC
ENCODING 508
SWIDTH 1000 0
DWIDTH 16 0
BBX 16 16 0 -2
BITMAP 
0000
01F8
0290
0290
0520
0540
0540
0540
04A0
02A0
02A0
02A0
0520
0FC0
0000
0000
ENDCHAR
STARTCHAR U+01FD
ENCODING 509
SWIDTH 1000 0
DWIDTH 16 0
BBX 16 16 0 -2
BITMAP 
0000
0000
0000
0000
0000
0000
0240
0000
0420
0000
0242
0004
0008
0010
0000
0000
ENDCHAR
STARTCHAR U+01FE
ENCODING 510
SWIDTH 1000 0
DWIDTH 16 0
BBX 16 16 0 -2
BITMAP 
0000
FFFF
CF73
B66D
B76D
B76D
CE33
FFFF
FFFF
EC21
CDEF
EC63
EDEF
C5E1
FFFF
0000
ENDCHAR
STARTCHAR U+01FF
ENCODING 511
SWIDTH 1000 0
DWIDTH 16 0
BBX 16 16 0 -2
BITMAP 
0000
FFFF
CF73
B66D
B76D
B76D
CE33
FFFF
FFFF
EC21
CDEF
EC63
EDEF
C5EF
FFFF
0000
ENDCHAR
STARTCHAR U+0280
ENCODING 640
SWIDTH 500 0
DWIDTH 8 0
BBX 8 16 0 -2
BITMAP 
00
00
00
00
20
30
28
24
3E
20
20
20
20
20
00
00
ENDCHAR
STARTCHAR U+0281
ENCODING 641
SWIDTH 500 0
DWIDTH 8 0
BBX 8 16 0 -2
BITMAP 
00
00
00
00
08
1C
2A
08
08
08
08
08
08
08
00
00
ENDCHAR
STARTCHAR U+0282
ENCODING 642
SWIDTH 500 0
DWIDTH 8 0
BBX 8 16 0 -2
BITMAP 
00
00
00
00
7C
42
42
42
7C
42
42
42
42
7C
00
00
ENDCHAR
STARTCHAR U+0283
ENCODING 643
SWIDTH 500 0
DWIDTH 8 0
BBX 8 16 0 -2
BITMAP 
00
00
00
00
40
6A
6A
54
54
40
40
40
40
40
00
00
ENDCHAR
STARTCHAR U+0284
ENCODING 644
SWIDTH 500 0
DWIDTH 8 0
BBX 8 16 0 -2
BITMAP 
00
00
00
00
09
0A
0C
08
08
08
08
08
08
08
00
00
ENDCHAR
STARTCHAR U+0285
ENCODING 645
SWIDTH 500 0
DWIDTH 8 0
BBX 8 16 0 -2
BITMAP 
00
00
00
00
08
08
14
14
22
22
22
41
41
7F
00
00
ENDCHAR
STARTCHAR U+0286
ENCODING 646
SWIDTH 500 0
DWIDTH 8 0
BBX 8 16 0 -2
BITMAP 
00
00
00
00
7E
40
40
40
7C
40
40
40
40
7E
00
00
ENDCHAR
STARTCHAR U+0287
ENCODING 647
SWIDTH 500 0
DWIDTH 8 0
BBX 8 16 0 -2
BITMAP 
00
00
00
00
7E
40
40
40
7C
40
40
40
40
40
00
00
ENDCHAR
STARTCHAR U+0288
ENCODING 648
SWIDTH 500 0
DWIDTH 8 0
BBX 8 16 0 -2
BITMAP 
00
00
00
00
3E
08
08
08
08
08
08
08
08
3E
00
00
ENDCHAR
STARTCHAR U+0289
ENCODING 649
SWIDTH 500 0
DWIDTH 8 0
BBX 8 16 0 -2
BITMAP 
00
00
00
00
00
C6
28
28
10
10
10
28
28
C6
00
00
ENDCHAR
STARTCHAR U+028A
ENCODING 650
SWIDTH 500 0
DWIDTH 8 0
BBX 8 16 0 -2
BITMAP 
00
00
00
00
08
08
08
08
08
08
08
08
08
08
00
00
ENDCHAR
STARTCHAR U+028B
ENCODING 651
SWIDTH 500 0
DWIDTH 8 0
BBX 8 16 0 -2
BITMAP 
00
00
00
00
20
22
24
28
30
30
28
24
22
20
00
00
ENDCHAR
STARTCHAR U+028C
ENCODING 652
SWIDTH 500 0
DWIDTH 8 0
BBX 8 16 0 -2
BITMAP 
00
00
00
00
08
49
2A
1C
08
1C
2A
49
08
08
00
00
ENDCHAR
STARTCHAR U+028D
ENCODING 653
SWIDTH 500 0
DWIDTH 8 0
BBX 8 16 0 -2
BITMAP 
00
00
00
00
08
08
14
14
22
22
22
41
41
41
00
00
ENDCHAR
STARTCHAR U+028E
ENCODING 654
SWIDTH 1000 0
DWIDTH 16 0
BBX 16 16 0 -2
BITMAP 
0000
0000
0000
0000
0440
0440
0AA0
0AA0
1110
1110
0000
0000
0000
0000
0000
0000
ENDCHAR
STARTCHAR U+028F
ENCODING 655
SWIDTH 1000 0
DWIDTH 16 0
BBX 16 16 0 -2
BITMAP 
0000
0000
0000
0000
0408
0C10
1220
2240
4180
8100
0000
0000
0000
0000
0000
0000
ENDCHAR
STARTCHAR U+0290
ENCODING 656
SWIDTH 500 0
DWIDTH 8 0
BBX 8 16 0 -2
BITMAP 
00
00
00
00
00
41
22
14
08
14
22
41
00
00
00
00
ENDCHAR
STARTCHAR U+0291
ENCODING 657
SWIDTH 500 0
DWIDTH 8 0
BBX 8 16 0 -2
BITMAP 
00
00
00
00
3E
08
08
08
3E
08
08
08
08
3E
00
00
ENDCHAR
STARTCHAR U+0292
ENCODING 658
SWIDTH 500 0
DWIDTH 8 0
BBX 8 16 0 -2
BITMAP 
00
00
00
00
3C
42
42
42
42
42
42
42
42
3C
00
00
ENDCHAR
STARTCHAR U+0293
ENCODING 659
SWIDTH 500 0
DWIDTH 8 0
BBX 8 16 0 -2
BITMAP 
00
00
00
00
38
24
22
22
22
20
20
20
20
20
00
00
ENDCHAR
STARTCHAR U+0294
ENCODING 660
SWIDTH 500 0
DWIDTH 8 0
BBX 8 16 0 -2
BITMAP 
00
00
00
00
08
08
14
14
22
22
14
14
08
08
00
00
ENDCHAR
STARTCHAR U+0295
ENCODING 661
SWIDTH 500 0
DWIDTH 8 0
BBX 8 16 0 -2
BITMAP 
00
00
00
00
7C
42
42
42
7C
40
40
40
40
40
00
00
ENDCHAR
STARTCHAR U+0296
ENCODING 662
SWIDTH 500 0
DWIDTH 8 0
BBX 8 16 0 -2
BITMAP 
00
00
00
00
3C
42
42
40
30
0C
02
42
42
3C
00
00
ENDCHAR
STARTCHAR U+0297
ENCODING 663
SWIDTH 500 0
DWIDTH 8 0
BBX 8 16 0 -2
BITMAP 
00
00
00
00
7F
08
08
08
08
08
08
08
08
08
00
00
ENDCHAR
STARTCHAR U+0298
ENCODING 664
SWIDTH 1000 0
DWIDTH 16 0
BBX 16 16 0 -2
BITMAP 
0000
0000
0000
0000
1110
0AA0
0440
0100
0100
0100
0100
0100
0100
0100
0000
0000
ENDCHAR
STARTCHAR U+0299
ENCODING 665
SWIDTH 500 0
DWIDTH 8 0
BBX 8 16 0 -2
BITMAP 
00
00
00
00
95
95
8A
4A
44
44
28
28
10
10
00
00
ENDCHAR
STARTCHAR U+029A
ENCODING 666
SWIDTH 1000 0
DWIDTH 16 0
BBX 16 16 0 -2
BITMAP 
0000
0000
0000
0000
0280
1110
0AA0
0440
0100
0100
0100
0100
0100
0100
0000
0000
ENDCHAR
STARTCHAR U+029B
ENCODING 667
SWIDTH 500 0
DWIDTH 8 0
BBX 8 16 0 -2
BITMAP 
00
00
00
00
08
08
08
08
3E
08
08
08
08
08
00
00
ENDCHAR
STARTCHAR U+029C
ENCODING 668
SWIDTH 500 0
DWIDTH 8 0
BBX 8 16 0 -2
BITMAP 
00
00
00
00
49
49
49
2A
2A
2A
1C
1C
08
08
00
00
ENDCHAR
STARTCHAR U+029D
ENCODING 669
SWIDTH 1000 0
DWIDTH 16 0
BBX 16 16 0 -2
BITMAP 
0000
FFFF
CF73
B66D
B76D
B76D
CE33
FFFF
FFFF
8663
F5AD
862D
BFAD
8663
FFFF
0000
ENDCHAR
STARTCHAR U+029E
ENCODING 670
SWIDTH 1000 0
DWIDTH 16 0
BBX 16 16 0 -2
BITMAP 
0000
FFFF
CF73
B66D
B76D
B76D
CE33
FFFF
FFFF
8661
F5AF
8623
BFAF
8661
FFFF
0000
ENDCHAR
STARTCHAR U+029F
ENCODING 671
SWIDTH 1000 0
DWIDTH 16 0
BBX 16 16 0 -2
BITMAP 
0000
FFFF
CF73
B66D
B76D
B76D
CE33
FFFF
FFFF
8661
F5AF
8623
BFAF
866F
FFFF
0000
ENDCHAR
STARTCHAR U+02A0
ENCODING 672
SWIDTH 500 0
DWIDTH 8 0
BBX 8 16 0 -2
BITMAP 
00
00
00
00
08
08
14
14
22
22
3E
41
41
41
00
00
ENDCHAR
STARTCHAR U+02A1
ENCODING 673
SWIDTH 500 0
DWIDTH 8 0
BBX 8 16 0 -2
BITMAP 
00
00
00
00
30
28
24
24
38
28
24
24
28
30
00
00
ENDCHAR
STARTCHAR U+02A2
ENCODING 674
SWIDTH 500 0
DWIDTH 8 0
BBX 8 16 0 -2
BITMAP 
00
00
00
06
08
10
10
20
20
20
10
10
08
06
00
00
ENDCHAR
STARTCHAR U+02A3
ENCODING 675
SWIDTH 500 0
DWIDTH 8 0
BBX 8 16 0 -2
BITMAP 
00
00
00
00
08
08
14
14
22
22
22
41
41
7F
00
00
ENDCHAR
STARTCHAR U+02A4
ENCODING 676
SWIDTH 500 0
DWIDTH 8 0
BBX 8 16 0 -2
BITMAP 
00
00
40
70
4C
40
40
40
70
48
40
40
70
4C
00
00
ENDCHAR
STARTCHAR U+02A5
ENCODING 677
SWIDTH 500 0
DWIDTH 8 0
BBX 8 16 0 -2
BITMAP 
00
00
40
70
4C
40
40
40
70
48
40
40
40
40
00
00
ENDCHAR
STARTCHAR U+02A6
ENCODING 678
SWIDTH 500 0
DWIDTH 8 0
BBX 8 16 0 -2
BITMAP 
00
00
00
00
3E
08
08
08
08
08
08
08
08
3E
00
00
ENDCHAR
STARTCHAR U+02A7
ENCODING 679
SWIDTH 500 0
DWIDTH 8 0
BBX 8 16 0 -2
BITMAP 
00
00
00
00
7F
41
41
41
7F
41
41
41
41
7F
00
00
ENDCHAR
STARTCHAR U+02A8
ENCODING 680
SWIDTH 500 0
DWIDTH 8 0
BBX 8 16 0 -2
BITMAP 
00
00
00
00
1C
2A
49
49
7F
49
49
49
2A
1C
00
00
ENDCHAR
STARTCHAR U+02A9
ENCODING 681
SWIDTH 500 0
DWIDTH 8 0
BBX 8 16 0 -2
BITMAP 
00
00
40
70
4C
40
40
40
40
40
40
40
40
40
00
00
ENDCHAR
STARTCHAR U+02AA
ENCODING 682
SWIDTH 500 0
DWIDTH 8 0
BBX 8 16 0 -2
BITMAP 
00
00
00
00
42
62
52
4A
46
42
40
40
40
40
00
00
ENDCHAR
STARTCHAR U+02AB
ENCODING 683
SWIDTH 500 0
DWIDTH 8 0
BBX 8 16 0 -2
BITMAP 
00
00
00
00
1C
22
41
41
41
41
41
41
22
1C
00
00
ENDCHAR
STARTCHAR U+02AC
ENCODING 684
SWIDTH 500 0
DWIDTH 8 0
BBX 8 16 0 -2
BITMAP 
00
00
00
00
1C
22
41
41
41
40
40
40
40
40
00
00
ENDCHAR
STARTCHAR U+02AD
ENCODING 685
SWIDTH 500 0
DWIDTH 8 0
BBX 8 16 0 -2
BITMAP 
00
00
00
00
1C
22
41
41
41
22
1C
08
08
08
00
00
ENDCHAR
STARTCHAR U+02AE
ENCODING 686
SWIDTH 500 0
DWIDTH 8 0
BBX 8 16 0 -2
BITMAP 
00
00
00
00
02
02
0E
12
22
22
12
0E
02
02
00
00
ENDCHAR
STARTCHAR U+02AF
ENCODING 687
SWIDTH 500 0
DWIDTH 8 0
BBX 8 16 0 -2
BITMAP 
00
00
00
00
30
2C
22
22
22
2C
30
28
24
20
00
00
ENDCHAR
STARTCHAR U+02B0
ENCODING 688
SWIDTH 1000 0
DWIDTH 16 0
BBX 16 16 0 -2
BITMAP 
0000
0000
0000
0000
0410
0A28
0A28
0A28
1144
1144
1144
2082
2082
2082
0000
0000
ENDCHAR
STARTCHAR U+02B1
ENCODING 689
SWIDTH 500 0
DWIDTH 8 0
BBX 8 16 0 -2
BITMAP 
00
00
00
00
7F
08
08
08
08
08
08
08
08
08
00
00
ENDCHAR
STARTCHAR U+02B2
ENCODING 690
SWIDTH 500 0
DWIDTH 8 0
BBX 8 16 0 -2
BITMAP 
00
00
00
00
41
22
22
14
14
08
08
08
08
08
00
00
ENDCHAR
STARTCHAR U+02B3
ENCODING 691
SWIDTH 500 0
DWIDTH 8 0
BBX 8 16 0 -2
BITMAP 
00
00
00
08
08
1C
2A
49
49
49
2A
1C
08
08
00
00
ENDCHAR
STARTCHAR U+02B4
ENCODING 692
SWIDTH 500 0
DWIDTH 8 0
BBX 8 16 0 -2
BITMAP 
00
00
00
00
00
41
22
14
08
14
22
41
00
00
00
00
ENDCHAR
STARTCHAR U+02B5
ENCODING 693
SWIDTH 500 0
DWIDTH 8 0
BBX 8 16 0 -2
BITMAP 
00
00
00
00
49
2A
2A
1C
1C
08
08
08
08
08
00
00
ENDCHAR
STARTCHAR U+02B6
ENCODING 694
SWIDTH 500 0
DWIDTH 8 0
BBX 8 16 0 -2
BITMAP 
00
00
00
00
3E
41
41
41
41
41
22
14
14
77
00
00
ENDCHAR
STARTCHAR U+02B7
ENCODING 695
SWIDTH 1000 0
DWIDTH 16 0
BBX 16 16 0 -2
BITMAP 
0000
0000
0000
0000
0410
0A28
0A28
0A28
1144
1144
1144
2082
2082
3FFE
0000
0000
ENDCHAR
STARTCHAR U+02B8
ENCODING 696
SWIDTH 500 0
DWIDTH 8 0
BBX 8 16 0 -2
BITMAP 
00
00
00
00
1C
2A
49
49
49
49
49
49
2A
1C
00
00
ENDCHAR
STARTCHAR U+02B9
ENCODING 697
SWIDTH 500 0
DWIDTH 8 0
BBX 8 16 0 -2
BITMAP 
00
00
00
00
0E
12
22
22
3E
22
22
22
12
0E
00
00
ENDCHAR
STARTCHAR U+02BA
ENCODING 698
SWIDTH 500 0
DWIDTH 8 0
BBX 8 16 0 -2
BITMAP 
00
00
00
00
7F
41
41
41
41
41
7F
00
00
00
00
00
ENDCHAR
STARTCHAR U+02BB
ENCODING 699
SWIDTH 500 0
DWIDTH 8 0
BBX 8 16 0 -2
BITMAP 
00
00
00
00
7F
41
41
41
41
41
7F
08
08
08
00
00
ENDCHAR
STARTCHAR U+02BC
ENCODING 700
SWIDTH 500 0
DWIDTH 8 0
BBX 8 16 0 -2
BITMAP 
00
00
00
00
7F
41
41
22
22
22
14
14
08
08
00
00
ENDCHAR
STARTCHAR U+02BD
ENCODING 701
SWIDTH 500 0
DWIDTH 8 0
BBX 8 16 0 -2
BITMAP 
00
00
00
00
7F
22
22
14
14
08
08
08
08
08
00
00
ENDCHAR
STARTCHAR U+02BE
ENCODING 702
SWIDTH 500 0
DWIDTH 8 0
BBX 8 16 0 -2
BITMAP 
00
00
00
00
08
14
22
41
00
00
08
14
22
41
00
00
ENDCHAR
STARTCHAR U+02BF
ENCODING 703
SWIDTH 500 0
DWIDTH 8 0
BBX 8 16 0 -2
BITMAP 
00
00
00
00
7F
49
49
49
49
49
49
49
49
49
00
00
ENDCHAR
STARTCHAR U+02C0
ENCODING 704
SWIDTH 500 0
DWIDTH 8 0
BBX 8 16 0 -2
BITMAP 
00
00
00
7F
22
22
14
14
08
14
14
22
22
7F
00
00
ENDCHAR
STARTCHAR U+02C1
ENCODING 705
SWIDTH 500 0
DWIDTH 8 0
BBX 8 16 0 -2
BITMAP 
00
00
00
7F
22
22
14
14
08
14
14
22
22
41
00
00
ENDCHAR
STARTCHAR U+02C2
ENCODING 706
SWIDTH 500 0
DWIDTH 8 0
BBX 8 16 0 -2
BITMAP 
00
00
00
81
42
42
24
24
24
24
24
24
42
42
81
00
ENDCHAR
STARTCHAR U+02C3
ENCODING 707
SWIDTH 500 0
DWIDTH 8 0
BBX 8 16 0 -2
BITMAP 
00
00
00
00
18
20
40
4C
42
21
19
01
02
0C
00
00
ENDCHAR
STARTCHAR U+02C4
ENCODING 708
SWIDTH 500 0
DWIDTH 8 0
BBX 8 16 0 -2
BITMAP 
00
00
00
00
22
22
55
55
08
14
14
22
22
41
00
00
ENDCHAR
STARTCHAR U+02C5
ENCODING 709
SWIDTH 500 0
DWIDTH 8 0
BBX 8 16 0 -2
BITMAP 
00
00
00
00
49
49
49
49
7F
49
49
49
49
49
00
00
ENDCHAR
STARTCHAR U+02C6
ENCODING 710
SWIDTH 500 0
DWIDTH 8 0
BBX 8 16 0 -2
BITMAP 
00
00
00
00
20
10
08
7C
10
20
20
21
11
0E
00
00
ENDCHAR
STARTCHAR U+02C7
ENCODING 711
SWIDTH 500 0
DWIDTH 8 0
BBX 8 16 0 -2
BITMAP 
00
00
00
00
08
1C
2A
49
08
08
08
08
08
08
00
00
ENDCHAR
STARTCHAR U+02C8
ENCODING 712
SWIDTH 500 0
DWIDTH 8 0
BBX 8 16 0 -2
BITMAP 
00
00
00
00
41
41
41
41
49
49
08
08
08
08
00
00
ENDCHAR
STARTCHAR U+02C9
ENCODING 713
SWIDTH 500 0
DWIDTH 8 0
BBX 8 16 0 -2
BITMAP 
00
00
00
00
1C
20
40
40
5C
42
42
42
22
1C
00
00
ENDCHAR
STARTCHAR U+02CA
ENCODING 714
SWIDTH 500 0
DWIDTH 8 0
BBX 8 16 0 -2
BITMAP 
00
00
00
00
42
21
21
11
11
12
12
24
28
70
00
00
ENDCHAR
STARTCHAR U+02CB
ENCODING 715
SWIDTH 500 0
DWIDTH 8 0
BBX 8 16 0 -2
BITMAP 
00
00
00
00
70
28
24
12
12
11
11
21
21
42
00
00
ENDCHAR
STARTCHAR U+02CC
ENCODING 716
SWIDTH 500 0
DWIDTH 8 0
BBX 8 16 0 -2
BITMAP 
00
00
00
00
22
42
44
44
24
1F
04
04
02
02
00
00
ENDCHAR
STARTCHAR U+02CD
ENCODING 717
SWIDTH 500 0
DWIDTH 8 0
BBX 8 16 0 -2
BITMAP 
00
00
00
00
22
22
22
22
24
38
20
20
20
20
00
00
ENDCHAR
STARTCHAR U+02CE
ENCODING 718
SWIDTH 500 0
DWIDTH 8 0
BBX 8 16 0 -2
BITMAP 
00
00
00
00
08
08
14
14
22
22
22
41
5D
41
00
00
ENDCHAR
STARTCHAR U+02CF
ENCODING 719
SWIDTH 500 0
DWIDTH 8 0
BBX 8 16 0 -2
BITMAP 
00
00
00
00
42
42
42
42
7E
42
42
42
42
42
00
00
ENDCHAR
STARTCHAR U+02D0
ENCODING 720
SWIDTH 500 0
DWIDTH 8 0
BBX 8 16 0 -2
BITMAP 
00
00
00
00
49
49
49
49
7F
08
08
08
08
08
00
00
ENDCHAR
STARTCHAR U+02D1
ENCODING 721
SWIDTH 1000 0
DWIDTH 16 0
BBX 16 16 0 -2
BITMAP 
0000
FFFF
CF73
B66D
B76D
B76D
CE33
FFFF
FFFF
847B
F5B3
85BB
BDBB
8471
FFFF
0000
ENDCHAR
STARTCHAR U+02D2
ENCODING 722
SWIDTH 1000 0
DWIDTH 16 0
BBX 16 16 0 -2
BITMAP 
0000
FFFF
CF73
B66D
B76D
B76D
CE33
FFFF
FFFF
8461
F5BD
85A1
BDAF
8461
FFFF
0000
ENDCHAR
STARTCHAR U+02D3
ENCODING 723
SWIDTH 1000 0
DWIDTH 16 0
BBX 16 16 0 -2
BITMAP 
0000
FFFF
CF73
B66D
B76D
B76D
CE33
FFFF
FFFF
8463
F5BD
85B1
BDBD
8463
FFFF
0000
ENDCHAR
STARTCHAR U+02D4
ENCODING 724
SWIDTH 1000 0
DWIDTH 16 0
BBX 16 16 0 -2
BITMAP 
0000
FFFF
CF73
B66D
B76D
B76D
CE33
FFFF
FFFF
846D
F5AD
85A1
BDBD
847D
FFFF
0000
ENDCHAR
STARTCHAR U+02D5
ENCODING 725
SWIDTH 1000 0
DWIDTH 16 0
BBX 16 16 0 -2
BITMAP 
0000
FFFF
CF73
B66D
B76D
B76D
CE33
FFFF
FFFF
8461
F5AF
85A1
BDBD
8461
FFFF
0000
ENDCHAR
STARTCHAR U+02D6
ENCODING 726
SWIDTH 1000 0
DWIDTH 16 0
BBX 16 16 0 -2
BITMAP 
0000
FFFF
CF73
B66D
B76D
B76D
CE33
FFFF
FFFF
8473
F5AF
85A3
BDAD
8473
FFFF
0000
ENDCHAR
STARTCHAR U+02D7
ENCODING 727
SWIDTH 1000 0
DWIDTH 16 0
BBX 16 16 0 -2
BITMAP 
0000
FFFF
CF73
B66D
B76D
B76D
CE33
FFFF
FFFF
8461
F5BD
85BB
BDB7
8477
FFFF
0000
ENDCHAR
STARTCHAR U+02D8
ENCODING 728
SWIDTH 1000 0
DWIDTH 16 0
BBX 16 16 0 -2
BITMAP 
0000
FFFF
CF73
B66D
B76D
B76D
CE33
FFFF
FFFF
8473
F5AD
85B3
BDAD
8473
FFFF
0000
ENDCHAR
STARTCHAR U+02D9
ENCODING 729
SWIDTH 1000 0
DWIDTH 16 0
BBX 16 16 0 -2
BITMAP 
0000
FFFF
CF73
B66D
B76D
B76D
CE33
FFFF
FFFF
8473
F5AD
85B1
BDBD
8473
FFFF
0000
ENDCHAR
STARTCHAR U+02DA
ENCODING 730
SWIDTH 1000 0
DWIDTH 16 0
BBX 16 16 0 -2
BITMAP 
0000
FFFF
CF73
B66D
B76D
B76D
CE33
FFFF
FFFF
8461
F5AD
85A1
BDAD
846D
FFFF
0000
ENDCHAR
STARTCHAR U+02DB
ENCODING 731
SWIDTH 1000 0
DWIDTH 16 0
BBX 16 16 0 -2
BITMAP 
0000
FFFF
CF73
B66D
B76D
B76D
CE33
FFFF
FFFF
8463
F5AD
85A3
BDAD
8463
FFFF
0000
ENDCHAR
STARTCHAR U+02DC
ENCODING 732
SWIDTH 1000 0
DWIDTH 16 0
BBX 16 16 0 -2
BITMAP 
0000
FFFF
CF73
B66D
B76D
B76D
CE33
FFFF
FFFF
8471
F5AF
85AF
BDAF
8471
FFFF
0000
ENDCHAR
STARTCHAR U+02DD
ENCODING 733
SWIDTH 1000 0
DWIDTH 16 0
BBX 16 16 0 -2
BITMAP 
0000
FFFF
CF73
B66D
B76D
B76D
CE33
FFFF
FFFF
8463
F5AD
85AD
BDAD
8463
FFFF
0000
ENDCHAR
STARTCHAR U+02DE
ENCODING 734
SWIDTH 1000 0
DWIDTH 16 0
BBX 16 16 0 -2
BITMAP 
0000
FFFF
CF73
B66D
B76D
B76D
CE33
FFFF
FFFF
8461
F5AF
85A3
BDAF
8461
FFFF
0000
ENDCHAR
STARTCHAR U+02DF
ENCODING 735
SWIDTH 1000 0
DWIDTH 16 0
BBX 16 16 0 -2
BITMAP 
0000
FFFF
CF73
B66D
B76D
B76D
CE33
FFFF
FFFF
8461
F5AF
85A3
BDAF
846F
FFFF
0000
ENDCHAR
STARTCHAR U+02E0
ENCODING 736
SWIDTH 500 0
DWIDTH 8 0
BBX 8 16 0 -2
BITMAP 
00
00
00
00
00
00
24
00
42
00
24
00
10
20
40
00
ENDCHAR
STARTCHAR U+02E1
ENCODING 737
SWIDTH 500 0
DWIDTH 8 0
BBX 8 16 0 -2
BITMAP 
00
00
00
00
00
00
00
00
00
08
04
02
02
3C
00
00
ENDCHAR
STARTCHAR U+02E2
ENCODING 738
SWIDTH 500 0
DWIDTH 8 0
BBX 8 16 0 -2
BITMAP 
00
00
00
00
00
00
00
00
00
00
92
92
92
6C
00
00
ENDCHAR
STARTCHAR U+02E3
ENCODING 739
SWIDTH 500 0
DWIDTH 8 0
BBX 8 16 0 -2
BITMAP 
00
00
00
00
00
00
00
00
00
00
11
AE
A0
60
20
00
ENDCHAR
STARTCHAR U+02E4
ENCODING 740
SWIDTH 500 0
DWIDTH 8 0
BBX 8 16 0 -2
BITMAP 
00
00
00
00
00
00
00
00
00
18
24
04
08
10
20
40
ENDCHAR
STARTCHAR U+02E5
ENCODING 741
SWIDTH 500 0
DWIDTH 8 0
BBX 8 16 0 -2
BITMAP 
00
00
00
00
00
00
00
1C
20
20
1C
20
20
1C
00
00
ENDCHAR
STARTCHAR U+02E6
ENCODING 742
SWIDTH 500 0
DWIDTH 8 0
BBX 8 16 0 -2
BITMAP 
00
00
00
00
00
00
06
38
40
40
38
40
40
38
00
00
ENDCHAR
STARTCHAR U+02E7
ENCODING 743
SWIDTH 500 0
DWIDTH 8 0
BBX 8 16 0 -2
BITMAP 
00
00
00
00
00
00
00
38
04
04
38
04
04
38
00
00
ENDCHAR
STARTCHAR U+02E8
ENCODING 744
SWIDTH 500 0
DWIDTH 8 0
BBX 8 16 0 -2
BITMAP 
00
00
00
00
20
20
20
20
20
20
2C
32
22
7C
00
00
ENDCHAR
STARTCHAR U+02E9
ENCODING 745
SWIDTH 500 0
DWIDTH 8 0
BBX 8 16 0 -2
BITMAP 
00
00
00
00
00
18
24
24
42
7F
42
24
24
18
00
00
ENDCHAR
STARTCHAR U+02EA
ENCODING 746
SWIDTH 500 0
DWIDTH 8 0
BBX 8 16 0 -2
BITMAP 
00
00
00
00
00
00
00
00
10
10
10
10
10
0C
00
00
ENDCHAR
STARTCHAR U+02EB
ENCODING 747
SWIDTH 500 0
DWIDTH 8 0
BBX 8 16 0 -2
BITMAP 
00
00
00
00
00
40
40
40
40
40
49
49
49
36
00
00
ENDCHAR
STARTCHAR U+02EC
ENCODING 748
SWIDTH 500 0
DWIDTH 8 0
BBX 8 16 0 -2
BITMAP 
00
00
00
00
00
00
04
04
04
04
04
07
04
44
44
38
ENDCHAR
STARTCHAR U+02ED
ENCODING 749
SWIDTH 500 0
DWIDTH 8 0
BBX 8 16 0 -2
BITMAP 
00
00
00
00
00
00
00
00
92
92
6C
20
40
FE
00
00
ENDCHAR
STARTCHAR U+02EE
ENCODING 750
SWIDTH 500 0
DWIDTH 8 0
BBX 8 16 0 -2
BITMAP 
00
00
00
00
00
00
00
04
22
12
12
12
24
78
00
00
ENDCHAR
STARTCHAR U+02EF
ENCODING 751
SWIDTH 500 0
DWIDTH 8 0
BBX 8 16 0 -2
BITMAP 
00
00
00
00
00
00
00
00
30
0C
12
22
24
38
00
00
ENDCHAR
STARTCHAR U+02F0
ENCODING 752
SWIDTH 500 0
DWIDTH 8 0
BBX 8 16 0 -2
BITMAP 
00
00
00
00
00
00
00
00
10
08
14
22
14
08
00
00
ENDCHAR
STARTCHAR U+02F1
ENCODING 753
SWIDTH 500 0
DWIDTH 8 0
BBX 8 16 0 -2
BITMAP 
00
00
00
00
00
00
02
04
08
34
42
92
92
6C
00
00
ENDCHAR
STARTCHAR U+02F2
ENCODING 754
SWIDTH 500 0
DWIDTH 8 0
BBX 8 16 0 -2
BITMAP 
00
00
00
00
00
00
00
00
00
06
09
0E
08
30
C0
00
ENDCHAR
STARTCHAR U+02F3
ENCODING 755
SWIDTH 500 0
DWIDTH 8 0
BBX 8 16 0 -2
BITMAP 
00
00
00
00
00
00
00
00
10
08
04
18
20
3E
00
00
ENDCHAR
STARTCHAR U+02F4
ENCODING 756
SWIDTH 500 0
DWIDTH 8 0
BBX 8 16 0 -2
BITMAP 
00
00
00
00
00
00
00
00
02
0C
30
40
48
30
00
00
ENDCHAR
STARTCHAR U+02F5
ENCODING 757
SWIDTH 500 0
DWIDTH 8 0
BBX 8 16 0 -2
BITMAP 
00
00
00
00
00
00
00
00
00
3C
04
18
20
3E
00
00
ENDCHAR
STARTCHAR U+02F6
ENCODING 758
SWIDTH 500 0
DWIDTH 8 0
BBX 8 16 0 -2
BITMAP 
00
00
00
00
00
00
00
00
00
18
20
44
40
38
00
00
ENDCHAR
STARTCHAR U+02F7
ENCODING 759
SWIDTH 500 0
DWIDTH 8 0
BBX 8 16 0 -2
BITMAP 
00
00
00
00
00
00
00
3C
4A
3C
04
18
20
3E
00
00
ENDCHAR
STARTCHAR U+02F8
ENCODING 760
SWIDTH 500 0
DWIDTH 8 0
BBX 8 16 0 -2
BITMAP 
00
00
00
00
00
00
04
06
0C
14
0C
06
04
44
44
38
ENDCHAR
STARTCHAR U+02F9
ENCODING 761
SWIDTH 500 0
DWIDTH 8 0
BBX 8 16 0 -2
BITMAP 
00
00
00
00
00
00
00
00
00
10
08
1E
04
18
20
3E
ENDCHAR
STARTCHAR U+02FA
ENCODING 762
SWIDTH 500 0
DWIDTH 8 0
BBX 8 16 0 -2
BITMAP 
00
00
00
00
00
00
10
00
44
00
92
92
92
6C
00
00
ENDCHAR
STARTCHAR U+02FB
ENCODING 763
SWIDTH 500 0
DWIDTH 8 0
BBX 8 16 0 -2
BITMAP 
00
00
00
00
00
00
00
22
1C
0C
08
30
40
7C
00
00
ENDCHAR
STARTCHAR U+02FC
ENCODING 764
SWIDTH 1000 0
DWIDTH 16 0
BBX 16 16 0 -2
BITMAP 
0000
FFFF
CF73
B66D
B76D
B76D
CE33
FFFF
FFFF
8431
F5EF
846F
BDEF
85F1
FFFF
0000
ENDCHAR
STARTCHAR U+02FD
ENCODING 765
SWIDTH 1000 0
DWIDTH 16 0
BBX 16 16 0 -2
BITMAP 
0000
FFFF
CF73
B66D
B76D
B76D
CE33
FFFF
FFFF
8423
F5ED
846D
BDED
85E3
FFFF
0000
ENDCHAR
STARTCHAR U+02FE
ENCODING 766
SWIDTH 1000 0
DWIDTH 16 0
BBX 16 16 0 -2
BITMAP 
0000
FFFF
CF73
B66D
B76D
B76D
CE33
FFFF
FFFF
8421
F5EF
8463
BDEF
85E1
FFFF
0000
ENDCHAR
STARTCHAR U+02FF
ENCODING 767
SWIDTH 1000 0
DWIDTH 16 0
BBX 16 16 0 -2
BITMAP 
0000
FFFF
CF73
B66D
B76D
B76D
CE33
FFFF
FFFF
8421
F5EF
8463
BDEF
85EF
FFFF
0000
ENDCHAR
STARTCHAR U+0300
ENCODING 768
SWIDTH 500 0
DWIDTH 8 0
BBX 8 16 0 -2
BITMAP 
00
00
00
00
60
50
48
48
44
44
7E
42
42
42
00
00
ENDCHAR
STARTCHAR U+0301
ENCODING 769
SWIDTH 500 0
DWIDTH 8 0
BBX 8 16 0 -2
BITMAP 
00
00
00
00
30
28
24
24
38
28
24
24
28
30
00
00
ENDCHAR
STARTCHAR U+0302
ENCODING 770
SWIDTH 500 0
DWIDTH 8 0
BBX 8 16 0 -2
BITMAP 
00
00
00
06
08
10
10
20
20
20
10
10
08
06
00
00
ENDCHAR
STARTCHAR U+0303
ENCODING 771
SWIDTH 500 0
DWIDTH 8 0
BBX 8 16 0 -2
BITMAP 
00
00
00
00
70
48
44
42
42
42
44
44
48
48
00
00
ENDCHAR
STARTCHAR U+0304
ENCODING 772
SWIDTH 500 0
DWIDTH 8 0
BBX 8 16 0 -2
BITMAP 
00
00
40
70
4C
40
40
40
70
48
40
40
70
4C
00
00
ENDCHAR
STARTCHAR U+0305
ENCODING 773
SWIDTH 500 0
DWIDTH 8 0
BBX 8 16 0 -2
BITMAP 
00
00
40
70
4C
40
40
40
70
48
40
40
40
40
00
00
ENDCHAR
STARTCHAR U+0306
ENCODING 774
SWIDTH 500 0
DWIDTH 8 0
BBX 8 16 0 -2
BITMAP 
00
00
00
00
38
0E
08
08
08
08
08
08
38
06
00
00
ENDCHAR
STARTCHAR U+0307
ENCODING 775
SWIDTH 500 0
DWIDTH 8 0
BBX 8 16 0 -2
BITMAP 
00
00
00
00
7F
41
41
41
7F
41
41
41
41
7F
00
00
ENDCHAR
STARTCHAR U+0308
ENCODING 776
SWIDTH 500 0
DWIDTH 8 0
BBX 8 16 0 -2
BITMAP 
00
00
00
00
1C
22
63
55
49
49
55
63
22
1C
00
00
ENDCHAR
STARTCHAR U+0309
ENCODING 777
SWIDTH 500 0
DWIDTH 8 0
BBX 8 16 0 -2
BITMAP 
00
00
00
00
08
08
08
08
08
08
08
08
08
08
00
00
ENDCHAR
STARTCHAR U+030A
ENCODING 778
SWIDTH 500 0
DWIDTH 8 0
BBX 8 16 0 -2
BITMAP 
00
00
00
00
40
44
48
50
60
60
50
48
44
40
00
00
ENDCHAR
STARTCHAR U+030B
ENCODING 779
SWIDTH 500 0
DWIDTH 8 0
BBX 8 16 0 -2
BITMAP 
00
00
00
00
20
20
20
20
20
20
20
26
38
20
00
00
ENDCHAR
STARTCHAR U+030C
ENCODING 780
SWIDTH 500 0
DWIDTH 8 0
BBX 8 16 0 -2
BITMAP 
00
00
00
00
40
6A
6A
54
54
40
40
40
40
40
00
00
ENDCHAR
STARTCHAR U+030D
ENCODING 781
SWIDTH 500 0
DWIDTH 8 0
BBX 8 16 0 -2
BITMAP 
00
00
00
00
41
62
54
48
40
40
40
40
40
40
00
00
ENDCHAR
STARTCHAR U+030E
ENCODING 782
SWIDTH 500 0
DWIDTH 8 0
BBX 8 16 0 -2
BITMAP 
00
00
00
00
7F
49
49
49
7F
49
49
49
49
7F
00
00
ENDCHAR
STARTCHAR U+030F
ENCODING 783
SWIDTH 500 0
DWIDTH 8 0
BBX 8 16 0 -2
BITMAP 
00
00
00
00
1C
22
41
41
41
41
41
41
22
1C
00
00
ENDCHAR
STARTCHAR U+0310
ENCODING 784
SWIDTH 500 0
DWIDTH 8 0
BBX 8 16 0 -2
BITMAP 
00
00
00
00
38
24
22
22
22
20
20
20
20
20
00
00
ENDCHAR
STARTCHAR U+0311
ENCODING 785
SWIDTH 500 0
DWIDTH 8 0
BBX 8 16 0 -2
BITMAP 
00
00
00
00
41
63
55
49
41
41
41
41
41
41
00
00
ENDCHAR
STARTCHAR U+0312
ENCODING 786
SWIDTH 500 0
DWIDTH 8 0
BBX 8 16 0 -2
BITMAP 
00
00
00
00
1C
22
41
41
41
22
1C
08
08
08
00
00
ENDCHAR
STARTCHAR U+0313
ENCODING 787
SWIDTH 500 0
DWIDTH 8 0
BBX 8 16 0 -2
BITMAP 
00
00
00
00
30
2C
22
22
22
2C
30
20
20
20
00
00
ENDCHAR
STARTCHAR U+0314
ENCODING 788
SWIDTH 500 0
DWIDTH 8 0
BBX 8 16 0 -2
BITMAP 
00
00
00
00
04
08
10
20
10
08
04
08
10
20
00
00
ENDCHAR
STARTCHAR U+0315
ENCODING 789
SWIDTH 500 0
DWIDTH 8 0
BBX 8 16 0 -2
BITMAP 
00
00
00
00
7F
08
08
08
08
08
08
08
08
08
00
00
ENDCHAR
STARTCHAR U+0316
ENCODING 790
SWIDTH 500 0
DWIDTH 8 0
BBX 8 16 0 -2
BITMAP 
00
00
00
00
41
22
14
08
08
08
08
08
08
08
00
00
ENDCHAR
STARTCHAR U+0317
ENCODING 791
SWIDTH 500 0
DWIDTH 8 0
BBX 8 16 0 -2
BITMAP 
00
00
00
00
00
41
22
14
08
14
22
41
00
00
00
00
ENDCHAR
STARTCHAR U+0318
ENCODING 792
SWIDTH 500 0
DWIDTH 8 0
BBX 8 16 0 -2
BITMAP 
00
00
00
00
1C
2A
49
49
49
2A
1C
08
08
08
00
00
ENDCHAR
STARTCHAR U+0319
ENCODING 793
SWIDTH 500 0
DWIDTH 8 0
BBX 8 16 0 -2
BITMAP 
00
00
00
00
49
2A
1C
08
08
08
08
08
08
08
00
00
ENDCHAR
STARTCHAR U+031A
ENCODING 794
SWIDTH 500 0
DWIDTH 8 0
BBX 8 16 0 -2
BITMAP 
00
00
00
00
00
1C
22
22
22
1C
22
22
22
1C
00
00
ENDCHAR
STARTCHAR U+031B
ENCODING 795
SWIDTH 500 0
DWIDTH 8 0
BBX 8 16 0 -2
BITMAP 
00
00
00
00
30
2C
22
22
2C
30
20
20
20
20
00
00
ENDCHAR
STARTCHAR U+031C
ENCODING 796
SWIDTH 500 0
DWIDTH 8 0
BBX 8 16 0 -2
BITMAP 
00
00
00
00
20
20
20
20
30
2C
22
22
2C
30
00
00
ENDCHAR
STARTCHAR U+031D
ENCODING 797
SWIDTH 500 0
DWIDTH 8 0
BBX 8 16 0 -2
BITMAP 
00
00
00
00
04
04
04
04
3C
04
04
04
04
04
00
00
ENDCHAR
STARTCHAR U+031E
ENCODING 798
SWIDTH 500 0
DWIDTH 8 0
BBX 8 16 0 -2
BITMAP 
00
00
00
00
41
49
49
22
22
22
14
14
08
08
00
00
ENDCHAR
STARTCHAR U+031F
ENCODING 799
SWIDTH 500 0
DWIDTH 8 0
BBX 8 16 0 -2
BITMAP 
00
00
00
00
08
08
49
2A
1C
08
1C
2A
49
08
00
00
ENDCHAR
STARTCHAR U+0320
ENCODING 800
SWIDTH 500 0
DWIDTH 8 0
BBX 8 16 0 -2
BITMAP 
00
00
00
00
08
08
08
08
08
08
08
08
08
08
00
00
ENDCHAR
STARTCHAR U+0321
ENCODING 801
SWIDTH 500 0
DWIDTH 8 0
BBX 8 16 0 -2
BITMAP 
00
00
00
00
08
08
14
14
22
22
22
41
41
41
00
00
ENDCHAR
STARTCHAR U+0322
ENCODING 802
SWIDTH 500 0
DWIDTH 8 0
BBX 8 16 0 -2
BITMAP 
00
00
00
00
00
41
22
14
08
14
22
41
00
00
00
00
ENDCHAR
STARTCHAR U+0323
ENCODING 803
SWIDTH 500 0
DWIDTH 8 0
BBX 8 16 0 -2
BITMAP 
00
00
00
00
08
1C
2A
49
08
08
08
08
08
08
00
00
ENDCHAR
STARTCHAR U+0324
ENCODING 804
SWIDTH 1000 0
DWIDTH 16 0
BBX 16 16 0 -2
BITMAP 
0000
FFFF
CF73
B66D
B76D
B76D
CE33
FFFF
FFFF
8C2D
F7AD
C421
F5FD
8C3D
FFFF
0000
ENDCHAR
STARTCHAR U+0325
ENCODING 805
SWIDTH 1000 0
DWIDTH 16 0
BBX 16 16 0 -2
BITMAP 
0000
FFFF
CF73
B66D
B76D
B76D
CE33
FFFF
FFFF
8C21
F7AF
C421
F5FD
8C21
FFFF
0000
ENDCHAR
STARTCHAR U+0326
ENCODING 806
SWIDTH 1000 0
DWIDTH 16 0
BBX 16 16 0 -2
BITMAP 
0000
FFFF
CF73
B66D
B76D
B76D
CE33
FFFF
FFFF
8C33
F7AF
C423
F5ED
8C33
FFFF
0000
ENDCHAR
STARTCHAR U+0327
ENCODING 807
SWIDTH 1000 0
DWIDTH 16 0
BBX 16 16 0 -2
BITMAP 
0000
FFFF
CF73
B66D
B76D
B76D
CE33
FFFF
FFFF
8C21
F7BD
C43B
F5F7
8C37
FFFF
0000
ENDCHAR
STARTCHAR U+0328
ENCODING 808
SWIDTH 1000 0
DWIDTH 16 0
BBX 16 16 0 -2
BITMAP 
0000
FFFF
CF73
B66D
B76D
B76D
CE33
FFFF
FFFF
8C33
F7AD
C433
F5ED
8C33
FFFF
0000
ENDCHAR
STARTCHAR U+0329
ENCODING 809
SWIDTH 1000 0
DWIDTH 16 0
BBX 16 16 0 -2
BITMAP 
0000
FFFF
CF73
B66D
B76D
B76D
CE33
FFFF
FFFF
8C33
F7AD
C431
F5FD
8C33
FFFF
0000
ENDCHAR
STARTCHAR U+032A
ENCODING 810
SWIDTH 1000 0
DWIDTH 16 0
BBX 16 16 0 -2
BITMAP 
0000
FFFF
CF73
B66D
B76D
B76D
CE33
FFFF
FFFF
8C21
F7AD
C421
F5ED
8C2D
FFFF
0000
ENDCHAR
STARTCHAR U+032B
ENCODING 811
SWIDTH 1000 0
DWIDTH 16 0
BBX 16 16 0 -2
BITMAP 
0000
FFFF
CF73
B66D
B76D
B76D
CE33
FFFF
FFFF
8C23
F7AD
C423
F5ED
8C23
FFFF
0000
ENDCHAR
STARTCHAR U+032C
ENCODING 812
SWIDTH 1000 0
DWIDTH 16 0
BBX 16 16 0 -2
BITMAP 
0000
FFFF
CF73
B66D
B76D
B76D
CE33
FFFF
FFFF
8C31
F7AF
C42F
F5EF
8C31
FFFF
0000
ENDCHAR
STARTCHAR U+032D
ENCODING 813
SWIDTH 1000 0
DWIDTH 16 0
BBX 16 16 0 -2
BITMAP 
0000
FFFF
CF73
B66D
B76D
B76D
CE33
FFFF
FFFF
8C23
F7AD
C42D
F5ED
8C23
FFFF
0000
ENDCHAR
STARTCHAR U+032E
ENCODING 814
SWIDTH 1000 0
DWIDTH 16 0
BBX 16 16 0 -2
BITMAP 
0000
FFFF
CF73
B66D
B76D
B76D
CE33
FFFF
FFFF
8C21
F7AF
C423
F5EF
8C21
FFFF
0000
ENDCHAR
STARTCHAR U+032F
ENCODING 815
SWIDTH 1000 0
DWIDTH 16 0
BBX 16 16 0 -2
BITMAP 
0000
FFFF
CF73
B66D
B76D
B76D
CE33
FFFF
FFFF
8C21
F7AF
C423
F5EF
8C2F
FFFF
0000
ENDCHAR
STARTCHAR U+0330
ENCODING 816
SWIDTH 500 0
DWIDTH 8 0
BBX 8 16 0 -2
BITMAP 
00
00
00
00
30
08
24
44
42
42
5E
40
40
40
00
00
ENDCHAR
STARTCHAR U+0331
ENCODING 817
SWIDTH 500 0
DWIDTH 8 0
BBX 8 16 0 -2
BITMAP 
00
00
00
00
4C
42
42
42
7C
42
42
42
42
7C
00
00
ENDCHAR
STARTCHAR U+0332
ENCODING 818
SWIDTH 500 0
DWIDTH 8 0
BBX 8 16 0 -2
BITMAP 
00
00
00
00
7E
40
40
40
40
40
40
40
40
40
00
00
ENDCHAR
STARTCHAR U+0333
ENCODING 819
SWIDTH 500 0
DWIDTH 8 0
BBX 8 16 0 -2
BITMAP 
00
00
00
00
60
10
08
08
04
24
42
42
45
39
00
00
ENDCHAR
STARTCHAR U+0334
ENCODING 820
SWIDTH 500 0
DWIDTH 8 0
BBX 8 16 0 -2
BITMAP 
00
00
00
00
00
1C
22
41
40
7C
40
41
22
1C
00
00
ENDCHAR
STARTCHAR U+0335
ENCODING 821
SWIDTH 500 0
DWIDTH 8 0
BBX 8 16 0 -2
BITMAP 
00
00
00
00
00
00
44
44
44
44
44
44
44
3E
00
00
ENDCHAR
STARTCHAR U+0336
ENCODING 822
SWIDTH 500 0
DWIDTH 8 0
BBX 8 16 0 -2
BITMAP 
00
00
00
00
7E
04
08
08
10
10
20
20
40
7E
00
00
ENDCHAR
STARTCHAR U+0337
ENCODING 823
SWIDTH 500 0
DWIDTH 8 0
BBX 8 16 0 -2
BITMAP 
00
00
00
00
40
40
40
7C
42
42
42
42
42
42
00
00
ENDCHAR
STARTCHAR U+0338
ENCODING 824
SWIDTH 500 0
DWIDTH 8 0
BBX 8 16 0 -2
BITMAP 
00
00
00
00
08
08
2A
49
49
49
2A
1C
08
08
08
00
ENDCHAR
STARTCHAR U+0339
ENCODING 825
SWIDTH 500 0
DWIDTH 8 0
BBX 8 16 0 -2
BITMAP 
00
00
00
00
00
00
00
00
08
08
08
08
08
08
00
00
ENDCHAR
STARTCHAR U+033A
ENCODING 826
SWIDTH 500 0
DWIDTH 8 0
BBX 8 16 0 -2
BITMAP 
00
00
00
00
4C
42
42
42
7C
50
48
48
44
44
00
00
ENDCHAR
STARTCHAR U+033B
ENCODING 827
SWIDTH 500 0
DWIDTH 8 0
BBX 8 16 0 -2
BITMAP 
00
00
00
00
60
10
08
08
04
04
0A
12
21
21
00
00
ENDCHAR
STARTCHAR U+033C
ENCODING 828
SWIDTH 500 0
DWIDTH 8 0
BBX 8 16 0 -2
BITMAP 
00
00
00
00
41
63
5D
41
41
41
41
41
41
41
00
00
ENDCHAR
STARTCHAR U+033D
ENCODING 829
SWIDTH 500 0
DWIDTH 8 0
BBX 8 16 0 -2
BITMAP 
00
00
00
00
41
61
51
51
49
49
45
45
43
41
00
00
ENDCHAR
STARTCHAR U+033E
ENCODING 830
SWIDTH 500 0
DWIDTH 8 0
BBX 8 16 0 -2
BITMAP 
00
00
00
00
1C
22
42
40
40
40
46
42
22
1D
01
02
ENDCHAR
STARTCHAR U+033F
ENCODING 831
SWIDTH 500 0
DWIDTH 8 0
BBX 8 16 0 -2
BITMAP 
00
00
00
00
00
00
00
7C
22
22
22
22
22
22
00
00
ENDCHAR
STARTCHAR U+0340
ENCODING 832
SWIDTH 500 0
DWIDTH 8 0
BBX 8 16 0 -2
BITMAP 
00
00
00
00
00
00
00
7E
42
42
42
42
42
42
00
00
ENDCHAR
STARTCHAR U+0341
ENCODING 833
SWIDTH 500 0
DWIDTH 8 0
BBX 8 16 0 -2
BITMAP 
00
00
00
00
42
42
42
42
42
42
3E
02
02
02
00
00
ENDCHAR
STARTCHAR U+0342
ENCODING 834
SWIDTH 500 0
DWIDTH 8 0
BBX 8 16 0 -2
BITMAP 
00
00
00
00
4C
42
42
42
7C
50
48
44
42
40
40
00
ENDCHAR
STARTCHAR U+0343
ENCODING 835
SWIDTH 500 0
DWIDTH 8 0
BBX 8 16 0 -2
BITMAP 
00
00
00
00
1E
21
21
20
18
06
01
21
21
1E
00
00
ENDCHAR
STARTCHAR U+0344
ENCODING 836
SWIDTH 500 0
DWIDTH 8 0
BBX 8 16 0 -2
BITMAP 
00
00
00
00
7F
49
08
08
08
08
08
08
08
08
00
00
ENDCHAR
STARTCHAR U+0345
ENCODING 837
SWIDTH 500 0
DWIDTH 8 0
BBX 8 16 0 -2
BITMAP 
00
00
00
00
41
41
41
22
1E
04
04
04
04
04
00
00
ENDCHAR
STARTCHAR U+0346
ENCODING 838
SWIDTH 500 0
DWIDTH 8 0
BBX 8 16 0 -2
BITMAP 
00
00
00
00
40
40
7C
40
40
40
7C
40
40
40
40
00
ENDCHAR
STARTCHAR U+0347
ENCODING 839
SWIDTH 500 0
DWIDTH 8 0
BBX 8 16 0 -2
BITMAP 
00
00
00
00
00
00
00
44
28
28
10
28
28
44
00
00
ENDCHAR
STARTCHAR U+0348
ENCODING 840
SWIDTH 500 0
DWIDTH 8 0
BBX 8 16 0 -2
BITMAP 
00
00
00
00
00
00
0C
12
21
2D
2D
21
12
0C
00
00
ENDCHAR
STARTCHAR U+0349
ENCODING 841
SWIDTH 500 0
DWIDTH 8 0
BBX 8 16 0 -2
BITMAP 
00
00
00
00
00
00
00
1C
22
22
22
14
08
36
00
00
ENDCHAR
STARTCHAR U+034A
ENCODING 842
SWIDTH 500 0
DWIDTH 8 0
BBX 8 16 0 -2
BITMAP 
00
00
00
00
08
1C
2A
49
08
08
08
08
08
08
00
00
ENDCHAR
STARTCHAR U+034B
ENCODING 843
SWIDTH 1000 0
DWIDTH 16 0
BBX 16 16 0 -2
BITMAP 
0000
FFFF
CF73
B66D
B76D
B76D
CE33
FFFF
FFFF
8DA3
F5AD
C423
F7AD
8FA3
FFFF
0000
ENDCHAR
STARTCHAR U+034C
ENCODING 844
SWIDTH 1000 0
DWIDTH 16 0
BBX 16 16 0 -2
BITMAP 
0000
FFFF
CF73
B66D
B76D
B76D
CE33
FFFF
FFFF
8DB1
F5AF
C42F
F7AF
8FB1
FFFF
0000
ENDCHAR
STARTCHAR U+034D
ENCODING 845
SWIDTH 1000 0
DWIDTH 16 0
BBX 16 16 0 -2
BITMAP 
0000
FFFF
CF73
B66D
B76D
B76D
CE33
FFFF
FFFF
8DA3
F5AD
C42D
F7AD
8FA3
FFFF
0000
ENDCHAR
STARTCHAR U+034E
ENCODING 846
SWIDTH 1000 0
DWIDTH 16 0
BBX 16 16 0 -2
BITMAP 
0000
FFFF
CF73
B66D
B76D
B76D
CE33
FFFF
FFFF
8DA1
F5AF
C423
F7AF
8FA1
FFFF
0000
ENDCHAR
STARTCHAR U+034F
ENCODING 847
SWIDTH 1000 0
DWIDTH 16 0
BBX 16 16 0 -2
BITMAP 
0000
FFFF
CF73
B66D
B76D
B76D
CE33
FFFF
FFFF
8DA1
F5AF
C423
F7AF
8FAF
FFFF
0000
ENDCHAR
STARTCHAR U+0350
ENCODING 848
SWIDTH 500 0
DWIDTH 8 0
BBX 8 16 0 -2
BITMAP 
00
00
00
00
7E
42
44
04
09
0A
1C
18
30
20
00
00
ENDCHAR
STARTCHAR U+0351
ENCODING 849
SWIDTH 500 0
DWIDTH 8 0
BBX 8 16 0 -2
BITMAP 
00
00
00
00
08
08
08
08
08
3E
49
49
49
36
00
00
ENDCHAR
STARTCHAR U+0352
ENCODING 850
SWIDTH 500 0
DWIDTH 8 0
BBX 8 16 0 -2
BITMAP 
00
00
00
00
3F
49
49
28
08
08
08
08
08
08
00
00
ENDCHAR
STARTCHAR U+0353
ENCODING 851
SWIDTH 500 0
DWIDTH 8 0
BBX 8 16 0 -2
BITMAP 
00
00
00
00
04
04
04
08
10
28
44
42
41
21
00
00
ENDCHAR
STARTCHAR U+0354
ENCODING 852
SWIDTH 500 0
DWIDTH 8 0
BBX 8 16 0 -2
BITMAP 
00
00
00
00
02
02
02
44
44
48
70
40
40
40
00
00
ENDCHAR
STARTCHAR U+0355
ENCODING 853
SWIDTH 500 0
DWIDTH 8 0
BBX 8 16 0 -2
BITMAP 
00
00
00
00
FE
92
92
92
92
92
92
92
91
91
00
00
ENDCHAR
STARTCHAR U+0356
ENCODING 854
SWIDTH 500 0
DWIDTH 8 0
BBX 8 16 0 -2
BITMAP 
00
00
00
00
FE
92
92
92
92
92
92
91
9F
F0
00
00
ENDCHAR
STARTCHAR U+0357
ENCODING 855
SWIDTH 500 0
DWIDTH 8 0
BBX 8 16 0 -2
BITMAP 
00
00
00
00
06
3A
22
22
22
42
42
42
5A
66
00
00
ENDCHAR
STARTCHAR U+0358
ENCODING 856
SWIDTH 500 0
DWIDTH 8 0
BBX 8 16 0 -2
BITMAP 
00
00
00
00
00
10
08
08
08
10
10
10
10
08
00
00
ENDCHAR
STARTCHAR U+0359
ENCODING 857
SWIDTH 500 0
DWIDTH 8 0
BBX 8 16 0 -2
BITMAP 
00
00
00
00
7E
42
42
42
04
04
04
04
04
02
00
00
ENDCHAR
STARTCHAR U+035A
ENCODING 858
SWIDTH 500 0
DWIDTH 8 0
BBX 8 16 0 -2
BITMAP 
00
00
00
00
04
0A
08
08
10
10
10
7E
42
42
00
00
ENDCHAR
STARTCHAR U+035B
ENCODING 859
SWIDTH 500 0
DWIDTH 8 0
BBX 8 16 0 -2
BITMAP 
00
00
00
00
40
40
22
22
12
14
08
08
04
04
00
00
ENDCHAR
STARTCHAR U+035C
ENCODING 860
SWIDTH 500 0
DWIDTH 8 0
BBX 8 16 0 -2
BITMAP 
00
00
00
00
00
00
00
00
8E
8A
52
52
22
21
00
00
ENDCHAR
STARTCHAR U+035D
ENCODING 861
SWIDTH 500 0
DWIDTH 8 0
BBX 8 16 0 -2
BITMAP 
00
00
00
00
00
00
00
42
A2
22
14
14
08
08
00
00
ENDCHAR
STARTCHAR U+035E
ENCODING 862
SWIDTH 500 0
DWIDTH 8 0
BBX 8 16 0 -2
BITMAP 
00
00
00
00
40
40
4C
72
42
40
40
40
40
40
00
00
ENDCHAR
STARTCHAR U+035F
ENCODING 863
SWIDTH 500 0
DWIDTH 8 0
BBX 8 16 0 -2
BITMAP 
00
00
00
00
40
40
40
5E
62
02
04
04
08
08
00
00
ENDCHAR
STARTCHAR U+0360
ENCODING 864
SWIDTH 500 0
DWIDTH 8 0
BBX 8 16 0 -2
BITMAP 
00
00
00
00
7F
41
41
42
42
22
24
14
14
08
00
00
ENDCHAR
STARTCHAR U+0361
ENCODING 865
SWIDTH 500 0
DWIDTH 8 0
BBX 8 16 0 -2
BITMAP 
00
00
00
00
60
50
40
40
40
20
20
12
14
08
00
00
ENDCHAR
STARTCHAR U+0362
ENCODING 866
SWIDTH 500 0
DWIDTH 8 0
BBX 8 16 0 -2
BITMAP 
00
00
00
00
3F
41
49
28
08
08
08
08
49
3E
00
00
ENDCHAR
STARTCHAR U+0363
ENCODING 867
SWIDTH 500 0
DWIDTH 8 0
BBX 8 16 0 -2
BITMAP 
00
00
00
00
44
4A
4A
52
50
60
40
40
40
40
00
00
ENDCHAR
STARTCHAR U+0364
ENCODING 868
SWIDTH 500 0
DWIDTH 8 0
BBX 8 16 0 -2
BITMAP 
00
00
00
00
02
01
01
01
01
12
0A
04
18
E0
80
00
ENDCHAR
STARTCHAR U+0365
ENCODING 869
SWIDTH 500 0
DWIDTH 8 0
BBX 8 16 0 -2
BITMAP 
00
00
00
0C
12
12
2C
28
28
44
44
44
82
82
00
00
ENDCHAR
STARTCHAR U+0366
ENCODING 870
SWIDTH 500 0
DWIDTH 8 0
BBX 8 16 0 -2
BITMAP 
00
00
00
00
91
91
92
92
92
92
92
92
92
FE
00
00
ENDCHAR
STARTCHAR U+0367
ENCODING 871
SWIDTH 500 0
DWIDTH 8 0
BBX 8 16 0 -2
BITMAP 
00
00
00
00
F0
90
90
90
10
10
10
10
10
1E
00
00
ENDCHAR
STARTCHAR U+0368
ENCODING 872
SWIDTH 500 0
DWIDTH 8 0
BBX 8 16 0 -2
BITMAP 
00
00
00
00
BE
A2
92
92
92
92
92
92
92
F1
00
00
ENDCHAR
STARTCHAR U+0369
ENCODING 873
SWIDTH 500 0
DWIDTH 8 0
BBX 8 16 0 -2
BITMAP 
00
00
00
00
0F
11
12
22
22
22
22
22
22
21
00
00
ENDCHAR
STARTCHAR U+036A
ENCODING 874
SWIDTH 500 0
DWIDTH 8 0
BBX 8 16 0 -2
BITMAP 
00
00
00
00
92
92
92
92
92
92
92
AA
AA
44
00
00
ENDCHAR
STARTCHAR U+036B
ENCODING 875
SWIDTH 500 0
DWIDTH 8 0
BBX 8 16 0 -2
BITMAP 
00
00
00
4E
50
20
5C
82
82
92
92
AA
AA
44
00
00
ENDCHAR
STARTCHAR U+036C
ENCODING 876
SWIDTH 500 0
DWIDTH 8 0
BBX 8 16 0 -2
BITMAP 
00
00
00
00
04
04
08
08
10
FC
20
20
40
C0
00
00
ENDCHAR
STARTCHAR U+036D
ENCODING 877
SWIDTH 500 0
DWIDTH 8 0
BBX 8 16 0 -2
BITMAP 
00
00
00
00
10
10
10
10
10
10
10
10
10
10
00
00
ENDCHAR
STARTCHAR U+036E
ENCODING 878
SWIDTH 500 0
DWIDTH 8 0
BBX 8 16 0 -2
BITMAP 
00
00
00
00
FC
44
28
28
10
10
28
28
40
7E
00
00
ENDCHAR
STARTCHAR U+036F
ENCODING 879
SWIDTH 500 0
DWIDTH 8 0
BBX 8 16 0 -2
BITMAP 
00
00
00
00
F0
90
90
90
10
14
12
12
12
1E
00
00
ENDCHAR
STARTCHAR U+0370
ENCODING 880
SWIDTH 500 0
DWIDTH 8 0
BBX 8 16 0 -2
BITMAP 
00
00
00
00
40
40
40
40
40
40
40
42
42
7E
00
00
ENDCHAR
STARTCHAR U+0371
ENCODING 881
SWIDTH 500 0
DWIDTH 8 0
BBX 8 16 0 -2
BITMAP 
00
00
00
00
3F
49
49
48
08
08
0E
09
09
0E
00
00
ENDCHAR
STARTCHAR U+0372
ENCODING 882
SWIDTH 500 0
DWIDTH 8 0
BBX 8 16 0 -2
BITMAP 
00
00
00
00
22
1C
61
91
91
0A
0A
0A
04
04
00
00
ENDCHAR
STARTCHAR U+0373
ENCODING 883
SWIDTH 500 0
DWIDTH 8 0
BBX 8 16 0 -2
BITMAP 
00
00
00
00
9B
6D
49
49
4A
48
48
48
4A
4C
00
00
ENDCHAR
STARTCHAR U+0374
ENCODING 884
SWIDTH 500 0
DWIDTH 8 0
BBX 8 16 0 -2
BITMAP 
00
00
00
00
4C
B4
A4
A4
24
24
24
24
25
26
00
00
ENDCHAR
STARTCHAR U+0375
ENCODING 885
SWIDTH 500 0
DWIDTH 8 0
BBX 8 16 0 -2
BITMAP 
00
00
00
00
82
82
54
6C
44
28
28
28
10
10
00
00
ENDCHAR
STARTCHAR U+0376
ENCODING 886
SWIDTH 500 0
DWIDTH 8 0
BBX 8 16 0 -2
BITMAP 
3C
24
0E
10
00
00
24
00
42
00
24
00
00
00
00
00
ENDCHAR
STARTCHAR U+0377
ENCODING 887
SWIDTH 500 0
DWIDTH 8 0
BBX 8 16 0 -2
BITMAP 
10
38
44
44
00
00
24
00
42
00
24
00
00
00
00
00
ENDCHAR
STARTCHAR U+0378
ENCODING 888
SWIDTH 500 0
DWIDTH 8 0
BBX 8 16 0 -2
BITMAP 
38
28
28
38
00
00
24
00
42
00
24
00
00
00
00
00
ENDCHAR
STARTCHAR U+0379
ENCODING 889
SWIDTH 500 0
DWIDTH 8 0
BBX 8 16 0 -2
BITMAP 
C2
24
28
10
00
00
24
00
42
00
24
00
00
00
00
00
ENDCHAR
STARTCHAR U+037A
ENCODING 890
SWIDTH 500 0
DWIDTH 8 0
BBX 8 16 0 -2
BITMAP 
18
10
14
18
00
00
24
00
42
00
24
00
00
00
00
00
ENDCHAR
STARTCHAR U+037B
ENCODING 891
SWIDTH 1000 0
DWIDTH 16 0
BBX 16 16 0 -2
BITMAP 
0000
FFFF
CF73
B66D
B76D
B76D
CE33
FFFF
FFFF
8C23
F7AD
C763
F6ED
8EE3
FFFF
0000
ENDCHAR
STARTCHAR U+037C
ENCODING 892
SWIDTH 1000 0
DWIDTH 16 0
BBX 16 16 0 -2
BITMAP 
0000
FFFF
CF73
B66D
B76D
B76D
CE33
FFFF
FFFF
8C31
F7AF
C76F
F6EF
8EF1
FFFF
0000
ENDCHAR
STARTCHAR U+037D
ENCODING 893
SWIDTH 1000 0
DWIDTH 16 0
BBX 16 16 0 -2
BITMAP 
0000
FFFF
CF73
B66D
B76D
B76D
CE33
FFFF
FFFF
8C23
F7AD
C76D
F6ED
8EE3
FFFF
0000
ENDCHAR
STARTCHAR U+037E
ENCODING 894
SWIDTH 1000 0
DWIDTH 16 0
BBX 16 16 0 -2
BITMAP 
0000
FFFF
CF73
B66D
B76D
B76D
CE33
FFFF
FFFF
8C21
F7AF
C763
F6EF
8EE1
FFFF
0000
ENDCHAR
STARTCHAR U+037F
ENCODING 895
SWIDTH 1000 0
DWIDTH 16 0
BBX 16 16 0 -2
BITMAP 
0000
FFFF
CF73
B66D
B76D
B76D
CE33
FFFF
FFFF
8C21
F7AF
C763
F6EF
8EEF
FFFF
0000
ENDCHAR
STARTCHAR U+0380
ENCODING 896
SWIDTH 1000 0
DWIDTH 16 0
BBX 16 16 0 -2
BITMAP 
0000
0000
0000
0000
0000
4400
6600
7FFE
6600
4400
0000
0000
0000
0000
0000
0000
ENDCHAR
STARTCHAR U+0381
ENCODING 897
SWIDTH 1000 0
DWIDTH 16 0
BBX 16 16 0 -2
BITMAP 
0000
3EF8
1C70
0820
0820
0820
0820
0820
0820
0000
4400
6600
7FFE
6600
4400
0000
ENDCHAR
STARTCHAR U+0382
ENCODING 898
SWIDTH 1000 0
DWIDTH 16 0
BBX 16 16 0 -2
BITMAP 
0000
07C0
0380
0100
0100
0100
0100
0100
0100
0100
0100
0100
0100
0100
0100
0000
ENDCHAR
STARTCHAR U+0383
ENCODING 899
SWIDTH 1000 0
DWIDTH 16 0
BBX 16 16 0 -2
BITMAP 
0000
07C0
0380
0100
0100
07C0
0380
0100
0100
07C0
0380
0100
0100
0100
0100
0000
ENDCHAR
STARTCHAR U+0384
ENCODING 900
SWIDTH 1000 0
DWIDTH 16 0
BBX 16 16 0 -2
BITMAP 
0000
FFFE
739C
2108
2108
2108
2108
2108
2108
0000
4440
6660
7FFE
6660
4440
0000
ENDCHAR
STARTCHAR U+0385
ENCODING 901
SWIDTH 1000 0
DWIDTH 16 0
BBX 16 16 0 -2
BITMAP 
4000
6000
7FFE
6000
4000
4000
6000
7FFE
6000
4000
4000
6000
7FFE
6000
4000
0000
ENDCHAR
STARTCHAR U+0386
ENCODING 902
SWIDTH 1000 0
DWIDTH 16 0
BBX 16 16 0 -2
BITMAP 
0000
0000
4000
6000
7C00
6110
4198
01FF
4198
6110
7C00
6000
4000
0000
0000
0000
ENDCHAR
STARTCHAR U+0387
ENCODING 903
SWIDTH 1000 0
DWIDTH 16 0
BBX 16 16 0 -2
BITMAP 
0000
07C0
0380
0100
0100
07C0
0380
0100
0100
0100
0100
0100
0100
0100
0100
0000
ENDCHAR
STARTCHAR U+0388
ENCODING 904
SWIDTH 1000 0
DWIDTH 16 0
BBX 16 16 0 -2
BITMAP 
0000
07C0
0380
0102
0104
0108
4118
6138
7FF8
6138
4218
0608
0E04
0602
0200
0100
ENDCHAR
STARTCHAR U+0389
ENCODING 905
SWIDTH 1000 0
DWIDTH 16 0
BBX 16 16 0 -2
BITMAP 
0000
07C0
0380
0102
0104
0108
4118
6138
7FF8
6138
4118
0108
0104
0102
0100
0000
ENDCHAR
STARTCHAR U+038A
ENCODING 906
SWIDTH 1000 0
DWIDTH 16 0
BBX 16 16 0 -2
BITMAP 
0000
3EF8
1C70
0820
0820
3EF8
1C70
0820
0820
3EF8
1C70
0820
0820
0820
0820
0000
ENDCHAR
STARTCHAR U+038B
ENCODING 907
SWIDTH 1000 0
DWIDTH 16 0
BBX 16 16 0 -2
BITMAP 
0000
0000
4000
6000
7C00
6100
4180
01FF
4180
6100
7C00
6000
4000
0000
0000
0000
ENDCHAR
STARTCHAR U+038C
ENCODING 908
SWIDTH 1000 0
DWIDTH 16 0
BBX 16 16 0 -2
BITMAP 
0000
03E0
01C0
0098
028E
048F
0888
1888
3890
7890
38A0
18A0
0880
0480
0280
0000
ENDCHAR
STARTCHAR U+038D
ENCODING 909
SWIDTH 1000 0
DWIDTH 16 0
BBX 16 16 0 -2
BITMAP 
0000
FFFE
739C
2108
2108
2108
2108
2108
2108
2108
2108
2108
2108
2108
2108
0000
ENDCHAR
STARTCHAR U+038E
ENCODING 910
SWIDTH 1000 0
DWIDTH 16 0
BBX 16 16 0 -2
BITMAP 
0000
207C
3038
3FF0
3010
2010
0010
0010
0010
0010
0010
0010
0010
0010
0010
0000
ENDCHAR
STARTCHAR U+038F
ENCODING 911
SWIDTH 1000 0
DWIDTH 16 0
BBX 16 16 0 -2
BITMAP 
0000
0000
0230
041C
081E
1810
3810
7820
3820
1840
0840
0480
0280
0000
0000
0000
ENDCHAR
STARTCHAR U+0390
ENCODING 912
SWIDTH 1000 0
DWIDTH 16 0
BBX 16 16 0 -2
BITMAP 
0000
0000
0000
0000
0000
4440
6660
7FFE
6660
4440
0000
0000
0000
0000
0000
0000
ENDCHAR
STARTCHAR U+0391
ENCODING 913
SWIDTH 1000 0
DWIDTH 16 0
BBX 16 16 0 -2
BITMAP 
0000
0000
4002
6004
7FC8
6018
4038
0078
4038
6018
7FC8
6004
4002
0000
0000
0000
ENDCHAR
STARTCHAR U+0392
ENCODING 914
SWIDTH 1000 0
DWIDTH 16 0
BBX 16 16 0 -2
BITMAP 
0000
0000
3EF8
1C70
0820
0820
0820
0000
07C0
0380
0100
0100
0100
0000
0000
0000
ENDCHAR
STARTCHAR U+0393
ENCODING 915
SWIDTH 1000 0
DWIDTH 16 0
BBX 16 16 0 -2
BITMAP 
0000
0000
0020
0040
0080
0180
0380
0780
0380
0180
0080
0040
0020
0000
0000
0000
ENDCHAR
STARTCHAR U+0394
ENCODING 916
SWIDTH 1000 0
DWIDTH 16 0
BBX 16 16 0 -2
BITMAP 
0000
0000
4000
6000
7FFE
6000
4000
0000
4000
6000
7FFE
6000
4000
0000
0000
0000
ENDCHAR
STARTCHAR U+0395
ENCODING 917
SWIDTH 1000 0
DWIDTH 16 0
BBX 16 16 0 -2
BITMAP 
0000
3EF8
1C70
0820
0820
0820
0820
0820
0820
0820
0820
0820
0820
0820
0820
0000
ENDCHAR
STARTCHAR U+0396
ENCODING 918
SWIDTH 1000 0
DWIDTH 16 0
BBX 16 16 0 -2
BITMAP 
0000
0000
0002
0004
0008
4018
6038
7FF8
6038
4018
0008
0004
0002
0000
0000
0000
ENDCHAR
STARTCHAR U+0397
ENCODING 919
SWIDTH 1000 0
DWIDTH 16 0
BBX 16 16 0 -2
BITMAP 
0000
0000
4400
6600
7FC0
6610
4418
001F
4418
6610
7FC0
6600
4400
0000
0000
0000
ENDCHAR
STARTCHAR U+0398
ENCODING 920
SWIDTH 1000 0
DWIDTH 16 0
BBX 16 16 0 -2
BITMAP 
0000
07C0
0380
0100
0140
0180
0100
0300
0700
0F00
0700
0300
0100
0180
0140
0000
ENDCHAR
STARTCHAR U+0399
ENCODING 921
SWIDTH 1000 0
DWIDTH 16 0
BBX 16 16 0 -2
BITMAP 
0000
0000
0000
0000
0004
4008
6010
7FFE
6040
4080
0F00
0700
0300
0100
0000
0000
ENDCHAR
STARTCHAR U+039A
ENCODING 922
SWIDTH 1000 0
DWIDTH 16 0
BBX 16 16 0 -2
BITMAP 
0000
0000
0000
0000
0000
4000
6000
7FFE
6000
4000
0000
0000
0000
0000
0000
0000
ENDCHAR
STARTCHAR U+039B
ENCODING 923
SWIDTH 1000 0
DWIDTH 16 0
BBX 16 16 0 -2
BITMAP 
4000
6000
7FFE
6000
4000
4000
6000
7FFE
6000
4000
4000
6000
7FFE
6E00
4400
0400
ENDCHAR
STARTCHAR U+039C
ENCODING 924
SWIDTH 1000 0
DWIDTH 16 0
BBX 16 16 0 -2
BITMAP 
0000
FFFE
739C
2108
2108
2108
2108
2108
2108
2108
0000
4000
6000
7FFE
6000
4000
ENDCHAR
STARTCHAR U+039D
ENCODING 925
SWIDTH 1000 0
DWIDTH 16 0
BBX 16 16 0 -2
BITMAP 
1004
27C8
6398
2108
1104
1104
2108
6118
2108
1104
1104
2108
6118
2108
1104
0000
ENDCHAR
STARTCHAR U+039E
ENCODING 926
SWIDTH 1000 0
DWIDTH 16 0
BBX 16 16 0 -2
BITMAP 
0000
FFFF
CF73
B66D
B76D
B76D
CE33
FFFF
FFFF
8E61
F5AF
C623
F7AF
8E61
FFFF
0000
ENDCHAR
STARTCHAR U+039F
ENCODING 927
SWIDTH 1000 0
DWIDTH 16 0
BBX 16 16 0 -2
BITMAP 
0000
0000
0000
0000
0000
0000
07C0
0380
0100
0100
0100
0000
0000
0000
0000
0000
ENDCHAR
STARTCHAR U+03A0
ENCODING 928
SWIDTH 1000 0
DWIDTH 16 0
BBX 16 16 0 -2
BITMAP 
0000
4000
6000
5FFF
6000
4000
0000
7FFF
294A
1084
1084
1084
1084
1084
1084
0000
ENDCHAR
STARTCHAR U+03A1
ENCODING 929
SWIDTH 1000 0
DWIDTH 16 0
BBX 16 16 0 -2
BITMAP 
0000
4400
6600
5DFE
6600
4400
0000
3EF8
1450
0820
0820
0820
0820
0820
0820
0000
ENDCHAR
STARTCHAR U+03A2
ENCODING 930
SWIDTH 1000 0
DWIDTH 16 0
BBX 16 16 0 -2
BITMAP 
0000
0100
0580
097F
1180
3100
5000
93FF
514A
3084
1084
0884
0484
0084
0084
0000
ENDCHAR
STARTCHAR U+03A3
ENCODING 931
SWIDTH 1000 0
DWIDTH 16 0
BBX 16 16 0 -2
BITMAP 
0000
7C00
2800
1200
1300
12FE
1300
1200
1000
1200
1300
12FE
1300
1200
1000
0000
ENDCHAR
STARTCHAR U+03A4
ENCODING 932
SWIDTH 1000 0
DWIDTH 16 0
BBX 16 16 0 -2
BITMAP 
0000
007C
0128
0210
0410
0C10
1410
2410
1410
0C10
0410
0210
0110
0010
0010
0000
ENDCHAR
STARTCHAR U+03A5
ENCODING 933
SWIDTH 1000 0
DWIDTH 16 0
BBX 16 16 0 -2
BITMAP 
0000
0FF8
0550
0220
0A20
1220
3228
522C
922B
522C
3228
1220
0A20
0220
0220
0000
ENDCHAR
STARTCHAR U+03A6
ENCODING 934
SWIDTH 1000 0
DWIDTH 16 0
BBX 16 16 0 -2
BITMAP 
0000
0110
0598
0977
1198
3110
5180
917F
5180
3100
1180
097F
0580
0100
0000
0000
ENDCHAR
STARTCHAR U+03A7
ENCODING 935
SWIDTH 1000 0
DWIDTH 16 0
BBX 16 16 0 -2
BITMAP 
0000
01FF
00AA
0044
1144
2244
6644
AA44
6644
2244
1144
0044
0044
0044
0044
0000
ENDCHAR
STARTCHAR U+03A8
ENCODING 936
SWIDTH 1000 0
DWIDTH 16 0
BBX 16 16 0 -2
BITMAP 
4000
6000
5FF0
6000
4000
0000
7DF0
28A0
1040
1050
1058
1057
1058
1050
1040
0000
ENDCHAR
STARTCHAR U+03A9
ENCODING 937
SWIDTH 1000 0
DWIDTH 16 0
BBX 16 16 0 -2
BITMAP 
0000
07C0
0280
0102
0104
0108
4118
6128
5FC8
6128
4118
0108
0104
0102
0100
0000
ENDCHAR
STARTCHAR U+03AA
ENCODING 938
SWIDTH 1000 0
DWIDTH 16 0
BBX 16 16 0 -2
BITMAP 
0000
0020
0030
00AF
0130
4320
6530
592F
6530
4320
0130
00AF
0030
0020
0000
0000
ENDCHAR
STARTCHAR U+03AB
ENCODING 939
SWIDTH 1000 0
DWIDTH 16 0
BBX 16 16 0 -2
BITMAP 
0000
07DF
028A
0104
41FC
6154
5D24
6124
4124
6124
5D24
6124
4124
0124
0124
0000
ENDCHAR
STARTCHAR U+03AC
ENCODING 940
SWIDTH 1000 0
DWIDTH 16 0
BBX 16 16 0 -2
BITMAP 
0000
FFF8
5550
2220
2220
2228
222C
222B
222C
2228
2220
2220
2220
2220
2220
0000
ENDCHAR
STARTCHAR U+03AD
ENCODING 941
SWIDTH 1000 0
DWIDTH 16 0
BBX 16 16 0 -2
BITMAP 
0000
4000
6000
5FFE
6000
4000
0000
3EF8
1450
0820
0820
0820
0820
0820
0820
0000
ENDCHAR
STARTCHAR U+03AE
ENCODING 942
SWIDTH 1000 0
DWIDTH 16 0
BBX 16 16 0 -2
BITMAP 
4000
61FF
5EAA
6044
4044
4044
6044
5F44
6044
4044
4044
6044
5F44
6044
4044
0000
ENDCHAR
STARTCHAR U+03AF
ENCODING 943
SWIDTH 1000 0
DWIDTH 16 0
BBX 16 16 0 -2
BITMAP 
0000
001F
020A
0B04
12F4
3344
5264
905C
5264
3344
12F4
0B04
0204
0004
0004
0000
ENDCHAR
STARTCHAR U+03B0
ENCODING 944
SWIDTH 1000 0
DWIDTH 16 0
BBX 16 16 0 -2
BITMAP 
0000
7C3E
2814
1048
1088
1188
1288
1488
1288
1188
1088
1048
1008
1008
1008
0000
ENDCHAR
STARTCHAR U+03B1
ENCODING 945
SWIDTH 1000 0
DWIDTH 16 0
BBX 16 16 0 -2
BITMAP 
4000
6000
5FFE
6400
4600
05FE
4600
6400
5FFE
6000
5FF8
0A50
0420
0420
0420
0000
ENDCHAR
STARTCHAR U+03B2
ENCODING 946
SWIDTH 1000 0
DWIDTH 16 0
BBX 16 16 0 -2
BITMAP 
0000
003E
4014
6008
5FE8
6008
4008
0008
4008
6008
5FE8
6008
4008
0008
0008
0000
ENDCHAR
STARTCHAR U+03B3
ENCODING 947
SWIDTH 1000 0
DWIDTH 16 0
BBX 16 16 0 -2
BITMAP 
0000
F800
5042
2084
2108
2318
2528
2948
2528
2318
2108
2084
2042
2000
2000
0000
ENDCHAR
STARTCHAR U+03B4
ENCODING 948
SWIDTH 1000 0
DWIDTH 16 0
BBX 16 16 0 -2
BITMAP 
0000
0000
8002
C004
BFC8
C018
8028
0048
8028
C018
BFC8
C004
8002
0000
0000
0000
ENDCHAR
STARTCHAR U+03B5
ENCODING 949
SWIDTH 1000 0
DWIDTH 16 0
BBX 16 16 0 -2
BITMAP 
0000
0000
0010
0858
1097
3198
5290
9480
5290
3198
1097
0858
0010
0000
0000
0000
ENDCHAR
STARTCHAR U+03B6
ENCODING 950
SWIDTH 1000 0
DWIDTH 16 0
BBX 16 16 0 -2
BITMAP 
0000
0FBE
0514
0208
0208
83F8
C2A8
BA48
C248
8248
0248
0248
0248
0248
0248
0000
ENDCHAR
STARTCHAR U+03B7
ENCODING 951
SWIDTH 1000 0
DWIDTH 16 0
BBX 16 16 0 -2
BITMAP 
0000
F800
5020
20B0
212E
2330
2520
2D00
2520
2330
212E
20B0
2020
2000
2000
0000
ENDCHAR
STARTCHAR U+03B8
ENCODING 952
SWIDTH 1000 0
DWIDTH 16 0
BBX 16 16 0 -2
BITMAP 
0000
0000
8010
C020
BE40
D0D0
9958
1657
9958
D0D0
BE40
C020
8010
0000
0000
0000
ENDCHAR
STARTCHAR U+03B9
ENCODING 953
SWIDTH 1000 0
DWIDTH 16 0
BBX 16 16 0 -2
BITMAP 
0000
F800
5040
2080
2100
2340
2560
295E
2560
2340
2100
2080
2040
2000
2000
0000
ENDCHAR
STARTCHAR U+03BA
ENCODING 954
SWIDTH 1000 0
DWIDTH 16 0
BBX 16 16 0 -2
BITMAP 
0000
1F00
0A00
0500
0580
057E
85A0
C530
BC2E
C530
85A0
057E
0580
0500
0400
0000
ENDCHAR
STARTCHAR U+03BB
ENCODING 955
SWIDTH 1000 0
DWIDTH 16 0
BBX 16 16 0 -2
BITMAP 
0000
07C0
0280
0100
4100
6100
5FFE
6100
4100
0000
3EF8
1450
0820
0820
0820
0000
ENDCHAR
STARTCHAR U+03BC
ENCODING 956
SWIDTH 1000 0
DWIDTH 16 0
BBX 16 16 0 -2
BITMAP 
4000
603E
5F94
6008
4008
4008
6008
5FE8
6008
4008
4008
6008
5FE8
6008
4008
0000
ENDCHAR
STARTCHAR U+03BD
ENCODING 957
SWIDTH 1000 0
DWIDTH 16 0
BBX 16 16 0 -2
BITMAP 
0000
0000
0021
0042
0084
818C
C294
BCA4
C294
818C
0084
0042
0021
0000
0000
0000
ENDCHAR
STARTCHAR U+03BE
ENCODING 958
SWIDTH 1000 0
DWIDTH 16 0
BBX 16 16 0 -2
BITMAP 
0000
003E
0014
0108
0188
0178
2188
3108
2E08
3108
2188
0178
0188
0108
0008
0000
ENDCHAR
STARTCHAR U+03BF
ENCODING 959
SWIDTH 1000 0
DWIDTH 16 0
BBX 16 16 0 -2
BITMAP 
0000
7C00
2800
1200
1300
12FE
1320
1230
102E
1230
1320
12FE
1300
1200
1000
0000
ENDCHAR
STARTCHAR U+03C0
ENCODING 960
SWIDTH 1000 0
DWIDTH 16 0
BBX 16 16 0 -2
BITMAP 
0000
7C1F
280A
1004
1004
1444
1664
15DC
1664
1444
1004
1004
1004
1004
1004
0000
ENDCHAR
STARTCHAR U+03C1
ENCODING 961
SWIDTH 1000 0
DWIDTH 16 0
BBX 16 16 0 -2
BITMAP 
0000
4000
6000
5FFE
6000
4108
0210
0630
0A50
1290
0A50
0630
0210
0108
0000
0000
ENDCHAR
STARTCHAR U+03C2
ENCODING 962
SWIDTH 1000 0
DWIDTH 16 0
BBX 16 16 0 -2
BITMAP 
0000
4000
6000
5FFE
6000
4000
4000
6000
5FFE
6000
5FF8
0A50
0420
0420
0420
0000
ENDCHAR
STARTCHAR U+03C3
ENCODING 963
SWIDTH 1000 0
DWIDTH 16 0
BBX 16 16 0 -2
BITMAP 
0000
0000
0501
0982
1164
318C
5114
9024
5114
318C
1164
0982
0501
0000
0000
0000
ENDCHAR
STARTCHAR U+03C4
ENCODING 964
SWIDTH 1000 0
DWIDTH 16 0
BBX 16 16 0 -2
BITMAP 
0000
FFFF
CF73
B66D
B76D
B76D
CE33
FFFF
FFFF
8E2D
F5ED
C5E1
F5FD
8E3D
FFFF
0000
ENDCHAR
STARTCHAR U+03C5
ENCODING 965
SWIDTH 1000 0
DWIDTH 16 0
BBX 16 16 0 -2
BITMAP 
0000
FFFF
CF73
B66D
B76D
B76D
CE33
FFFF
FFFF
8E21
F5EF
C5E1
F5FD
8E21
FFFF
0000
ENDCHAR
STARTCHAR U+03C6
ENCODING 966
SWIDTH 1000 0
DWIDTH 16 0
BBX 16 16 0 -2
BITMAP 
0000
FFFF
CF73
B66D
B76D
B76D
CE33
FFFF
FFFF
8E33
F5EF
C5E3
F5ED
8E33
FFFF
0000
ENDCHAR
STARTCHAR U+03C7
ENCODING 967
SWIDTH 1000 0
DWIDTH 16 0
BBX 16 16 0 -2
BITMAP 
0000
FFFF
CF73
B66D
B76D
B76D
CE33
FFFF
FFFF
8E21
F5FD
C5FB
F5F7
8E37
FFFF
0000
ENDCHAR
STARTCHAR U+03C8
ENCODING 968
SWIDTH 1000 0
DWIDTH 16 0
BBX 16 16 0 -2
BITMAP 
0000
01F0
88A0
CC41
BB42
CC46
884A
0052
884A
CC46
BB42
CC41
8840
0040
0040
0000
ENDCHAR
STARTCHAR U+03C9
ENCODING 969
SWIDTH 1000 0
DWIDTH 16 0
BBX 16 16 0 -2
BITMAP 
0880
0CDF
0BBA
0CC4
8884
CCC4
BBBC
CCC4
8884
CCC4
BBBC
CCC4
8884
0CC4
0BBC
0CC0
ENDCHAR
STARTCHAR U+03CA
ENCODING 970
SWIDTH 1000 0
DWIDTH 16 0
BBX 16 16 0 -2
BITMAP 
1200
1BF8
16D0
1B20
9221
DB22
B6E6
DB2A
9232
DB2A
B6E6
DB22
9221
1B20
16E0
1B00
ENDCHAR
STARTCHAR U+03CB
ENCODING 971
SWIDTH 1000 0
DWIDTH 16 0
BBX 16 16 0 -2
BITMAP 
0000
01F0
00A0
8040
C141
B242
C646
8A4A
1252
8A4A
C646
B242
C141
8040
0040
0000
ENDCHAR
STARTCHAR U+03CC
ENCODING 972
SWIDTH 1000 0
DWIDTH 16 0
BBX 16 16 0 -2
BITMAP 
0880
113E
3314
5508
3308
1108
0888
0008
0888
1108
3308
5508
3308
1108
0888
0000
ENDCHAR
STARTCHAR U+03CD
ENCODING 973
SWIDTH 1000 0
DWIDTH 16 0
BBX 16 16 0 -2
BITMAP 
1200
25FF
6CAA
B444
6C44
2444
1244
0044
1244
2444
6C44
B444
6C44
2444
1244
0000
ENDCHAR
STARTCHAR U+03CE
ENCODING 974
SWIDTH 1000 0
DWIDTH 16 0
BBX 16 16 0 -2
BITMAP 
0000
0000
0000
0011
0022
9066
D8AA
B732
D8AA
9066
0022
0011
0000
0000
0000
0000
ENDCHAR
STARTCHAR U+03CF
ENCODING 975
SWIDTH 1000 0
DWIDTH 16 0
BBX 16 16 0 -2
BITMAP 
4440
6660
5DDE
6660
4440
0000
0842
1084
318C
5294
94A4
5294
318C
1084
0842
0000
ENDCHAR
STARTCHAR U+03D0
ENCODING 976
SWIDTH 1000 0
DWIDTH 16 0
BBX 16 16 0 -2
BITMAP 
0000
0000
0000
0200
0600
0A00
1E00
0100
0080
0040
0020
0010
0008
0000
0000
0000
ENDCHAR
STARTCHAR U+03D1
ENCODING 977
SWIDTH 1000 0
DWIDTH 16 0
BBX 16 16 0 -2
BITMAP 
0000
07C0
0280
0100
0100
0100
0100
0100
0100
0100
0100
0100
0100
0100
0100
0000
ENDCHAR
STARTCHAR U+03D2
ENCODING 978
SWIDTH 1000 0
DWIDTH 16 0
BBX 16 16 0 -2
BITMAP 
0000
07C0
0280
0100
0100
07C0
0280
0100
0100
0100
0100
0100
0100
0100
0100
0000
ENDCHAR
STARTCHAR U+03D3
ENCODING 979
SWIDTH 1000 0
DWIDTH 16 0
BBX 16 16 0 -2
BITMAP 
0000
0000
0020
0040
0080
0180
0280
0480
0280
0180
0080
0040
0020
0000
0000
0000
ENDCHAR
STARTCHAR U+03D4
ENCODING 980
SWIDTH 1000 0
DWIDTH 16 0
BBX 16 16 0 -2
BITMAP 
0040
0080
0180
0280
0180
0080
0040
0000
0040
0080
0180
0280
0180
0080
0040
0000
ENDCHAR
STARTCHAR U+03D5
ENCODING 981
SWIDTH 1000 0
DWIDTH 16 0
BBX 16 16 0 -2
BITMAP 
0000
2008
3018
2FE8
3018
2008
07C0
0280
0100
0100
0100
0100
0100
0100
0100
0000
ENDCHAR
STARTCHAR U+03D6
ENCODING 982
SWIDTH 1000 0
DWIDTH 16 0
BBX 16 16 0 -2
BITMAP 
0000
FFFF
CF73
B66D
B76D
B76D
CE33
FFFF
FFFF
8C73
F5AF
C5A3
F5AD
8C73
FFFF
0000
ENDCHAR
STARTCHAR U+03D7
ENCODING 983
SWIDTH 1000 0
DWIDTH 16 0
BBX 16 16 0 -2
BITMAP 
0000
FFFF
CF73
B66D
B76D
B76D
CE33
FFFF
FFFF
8C61
F5BD
C5BB
F5B7
8C77
FFFF
0000
ENDCHAR
STARTCHAR U+03D8
ENCODING 984
SWIDTH 1000 0
DWIDTH 16 0
BBX 16 16 0 -2
BITMAP 
0000
FFFF
CF73
B66D
B76D
B76D
CE33
FFFF
FFFF
8C73
F5AD
C5B3
F5AD
8C73
FFFF
0000
ENDCHAR
STARTCHAR U+03D9
ENCODING 985
SWIDTH 1000 0
DWIDTH 16 0
BBX 16 16 0 -2
BITMAP 
0000
FFFF
CF73
B66D
B76D
B76D
CE33
FFFF
FFFF
8C73
F5AD
C5B1
F5BD
8C73
FFFF
0000
ENDCHAR
STARTCHAR U+03DA
ENCODING 986
SWIDTH 1000 0
DWIDTH 16 0
BBX 16 16 0 -2
BITMAP 
0000
FFFF
CF73
B66D
B76D
B76D
CE33
FFFF
FFFF
8C61
F5AD
C5A1
F5AD
8C6D
FFFF
0000
ENDCHAR
STARTCHAR U+03DB
ENCODING 987
SWIDTH 1000 0
DWIDTH 16 0
BBX 16 16 0 -2
BITMAP 
0000
FFFF
CF73
B66D
B76D
B76D
CE33
FFFF
FFFF
8C63
F5AD
C5A3
F5AD
8C63
FFFF
0000
ENDCHAR
STARTCHAR U+03DC
ENCODING 988
SWIDTH 1000 0
DWIDTH 16 0
BBX 16 16 0 -2
BITMAP 
0000
FFFF
CF73
B66D
B76D
B76D
CE33
FFFF
FFFF
8C71
F5AF
C5AF
F5AF
8C71
FFFF
0000
ENDCHAR
STARTCHAR U+03DD
ENCODING 989
SWIDTH 1000 0
DWIDTH 16 0
BBX 16 16 0 -2
BITMAP 
0000
FFFF
CF73
B66D
B76D
B76D
CE33
FFFF
FFFF
8C63
F5AD
C5AD
F5AD
8C63
FFFF
0000
ENDCHAR
STARTCHAR U+03DE
ENCODING 990
SWIDTH 1000 0
DWIDTH 16 0
BBX 16 16 0 -2
BITMAP 
0000
FFFF
CF73
B66D
B76D
B76D
CE33
FFFF
FFFF
8C61
F5AF
C5A3
F5AF
8C61
FFFF
0000
ENDCHAR
STARTCHAR U+03DF
ENCODING 991
SWIDTH 1000 0
DWIDTH 16 0
BBX 16 16 0 -2
BITMAP 
0000
FFFF
CF73
B66D
B76D
B76D
CE33
FFFF
FFFF
8C61
F5AF
C5A3
F5AF
8C6F
FFFF
0000
ENDCHAR
STARTCHAR U+0400
ENCODING 1024
SWIDTH 500 0
DWIDTH 8 0
BBX 8 16 0 -2
BITMAP 
00
00
00
00
30
48
04
04
3C
44
44
44
44
38
00
00
ENDCHAR
STARTCHAR U+0401
ENCODING 1025
SWIDTH 500 0
DWIDTH 8 0
BBX 8 16 0 -2
BITMAP 
00
00
00
00
18
24
40
40
38
40
40
42
44
38
00
00
ENDCHAR
STARTCHAR U+0402
ENCODING 1026
SWIDTH 500 0
DWIDTH 8 0
BBX 8 16 0 -2
BITMAP 
00
00
00
00
30
48
44
44
3C
44
44
44
44
38
00
00
ENDCHAR
STARTCHAR U+0403
ENCODING 1027
SWIDTH 500 0
DWIDTH 8 0
BBX 8 16 0 -2
BITMAP 
00
00
00
00
1C
2A
2A
49
47
41
41
22
22
1C
00
00
ENDCHAR
STARTCHAR U+0404
ENCODING 1028
SWIDTH 500 0
DWIDTH 8 0
BBX 8 16 0 -2
BITMAP 
00
00
00
00
1C
22
22
41
41
41
41
22
22
1C
00
00
ENDCHAR
STARTCHAR U+0405
ENCODING 1029
SWIDTH 500 0
DWIDTH 8 0
BBX 8 16 0 -2
BITMAP 
00
00
00
00
1C
2A
2A
49
49
49
49
2A
2A
1C
00
00
ENDCHAR
STARTCHAR U+0406
ENCODING 1030
SWIDTH 500 0
DWIDTH 8 0
BBX 8 16 0 -2
BITMAP 
00
00
00
00
00
08
08
28
18
0C
0A
08
08
08
00
00
ENDCHAR
STARTCHAR U+0407
ENCODING 1031
SWIDTH 500 0
DWIDTH 8 0
BBX 8 16 0 -2
BITMAP 
00
00
00
00
02
02
02
02
02
02
02
02
3A
46
00
00
ENDCHAR
STARTCHAR U+0408
ENCODING 1032
SWIDTH 500 0
DWIDTH 8 0
BBX 8 16 0 -2
BITMAP 
00
00
00
00
04
04
04
04
04
04
44
24
14
0C
00
00
ENDCHAR
STARTCHAR U+0409
ENCODING 1033
SWIDTH 500 0
DWIDTH 8 0
BBX 8 16 0 -2
BITMAP 
00
00
00
00
01
01
01
01
01
01
01
49
2D
1B
00
00
ENDCHAR
STARTCHAR U+040A
ENCODING 1034
SWIDTH 500 0
DWIDTH 8 0
BBX 8 16 0 -2
BITMAP 
00
00
00
00
62
5C
40
40
40
40
40
40
40
40
00
00
ENDCHAR
STARTCHAR U+040B
ENCODING 1035
SWIDTH 500 0
DWIDTH 8 0
BBX 8 16 0 -2
BITMAP 
00
00
00
00
30
48
44
44
3C
04
04
04
04
04
00
00
ENDCHAR
STARTCHAR U+040C
ENCODING 1036
SWIDTH 500 0
DWIDTH 8 0
BBX 8 16 0 -2
BITMAP 
00
00
00
00
08
08
08
08
08
08
3E
49
49
31
00
00
ENDCHAR
STARTCHAR U+040D
ENCODING 1037
SWIDTH 500 0
DWIDTH 8 0
BBX 8 16 0 -2
BITMAP 
00
00
00
0C
32
52
4A
4A
3E
42
42
42
42
3C
00
00
ENDCHAR
STARTCHAR U+040E
ENCODING 1038
SWIDTH 500 0
DWIDTH 8 0
BBX 8 16 0 -2
BITMAP 
00
00
00
00
41
41
41
41
41
41
49
49
49
36
00
00
ENDCHAR
STARTCHAR U+040F
ENCODING 1039
SWIDTH 500 0
DWIDTH 8 0
BBX 8 16 0 -2
BITMAP 
00
00
00
00
42
A2
A4
7F
24
24
28
28
28
10
00
00
ENDCHAR
STARTCHAR U+0410
ENCODING 1040
SWIDTH 500 0
DWIDTH 8 0
BBX 8 16 0 -2
BITMAP 
00
00
00
00
46
49
49
3E
08
08
08
08
08
08
00
00
ENDCHAR
STARTCHAR U+0411
ENCODING 1041
SWIDTH 500 0
DWIDTH 8 0
BBX 8 16 0 -2
BITMAP 
00
00
00
00
7E
02
02
02
02
02
02
02
02
02
00
00
ENDCHAR
STARTCHAR U+0412
ENCODING 1042
SWIDTH 500 0
DWIDTH 8 0
BBX 8 16 0 -2
BITMAP 
00
00
00
00
34
4C
44
44
3C
44
44
44
44
3C
00
00
ENDCHAR
STARTCHAR U+0413
ENCODING 1043
SWIDTH 500 0
DWIDTH 8 0
BBX 8 16 0 -2
BITMAP 
00
00
00
00
1C
22
42
02
02
02
02
02
02
02
00
00
ENDCHAR
STARTCHAR U+0414
ENCODING 1044
SWIDTH 500 0
DWIDTH 8 0
BBX 8 16 0 -2
BITMAP 
00
00
00
00
1A
26
22
42
7E
42
42
22
26
1A
00
00
ENDCHAR
STARTCHAR U+0415
ENCODING 1045
SWIDTH 500 0
DWIDTH 8 0
BBX 8 16 0 -2
BITMAP 
00
00
00
00
1C
22
42
40
40
40
40
42
22
1C
00
00
ENDCHAR
STARTCHAR U+0416
ENCODING 1046
SWIDTH 500 0
DWIDTH 8 0
BBX 8 16 0 -2
BITMAP 
00
00
00
00
18
24
20
20
1C
08
10
10
20
20
00
00
ENDCHAR
STARTCHAR U+0417
ENCODING 1047
SWIDTH 500 0
DWIDTH 8 0
BBX 8 16 0 -2
BITMAP 
00
00
00
00
1C
22
41
41
41
41
49
49
49
36
00
00
ENDCHAR
STARTCHAR U+0418
ENCODING 1048
SWIDTH 500 0
DWIDTH 8 0
BBX 8 16 0 -2
BITMAP 
00
00
00
00
1C
2A
49
47
41
41
49
49
49
36
00
00
ENDCHAR
STARTCHAR U+0419
ENCODING 1049
SWIDTH 500 0
DWIDTH 8 0
BBX 8 16 0 -2
BITMAP 
00
00
00
00
18
24
44
44
78
40
40
40
40
40
00
00
ENDCHAR
STARTCHAR U+041A
ENCODING 1050
SWIDTH 500 0
DWIDTH 8 0
BBX 8 16 0 -2
BITMAP 
00
00
00
00
18
24
44
44
78
44
44
44
44
38
00
00
ENDCHAR
STARTCHAR U+041B
ENCODING 1051
SWIDTH 500 0
DWIDTH 8 0
BBX 8 16 0 -2
BITMAP 
00
00
00
00
40
40
40
40
40
40
40
40
40
7E
00
00
ENDCHAR
STARTCHAR U+041C
ENCODING 1052
SWIDTH 500 0
DWIDTH 8 0
BBX 8 16 0 -2
BITMAP 
00
00
00
00
41
41
22
22
14
14
08
14
14
14
08
00
ENDCHAR
STARTCHAR U+041D
ENCODING 1053
SWIDTH 500 0
DWIDTH 8 0
BBX 8 16 0 -2
BITMAP 
00
00
00
00
0C
12
12
22
F4
1F
28
24
24
18
00
00
ENDCHAR
STARTCHAR U+041E
ENCODING 1054
SWIDTH 500 0
DWIDTH 8 0
BBX 8 16 0 -2
BITMAP 
00
00
00
00
18
24
40
40
70
48
44
44
44
38
00
00
ENDCHAR
STARTCHAR U+041F
ENCODING 1055
SWIDTH 500 0
DWIDTH 8 0
BBX 8 16 0 -2
BITMAP 
00
00
00
00
5C
62
41
41
41
41
41
41
62
5C
00
00
ENDCHAR
STARTCHAR U+0420
ENCODING 1056
SWIDTH 500 0
DWIDTH 8 0
BBX 8 16 0 -2
BITMAP 
00
00
00
1C
22
22
20
10
08
04
02
22
22
1C
00
00
ENDCHAR
STARTCHAR U+0421
ENCODING 1057
SWIDTH 500 0
DWIDTH 8 0
BBX 8 16 0 -2
BITMAP 
00
00
00
00
08
08
3A
49
49
3E
08
08
08
08
00
00
ENDCHAR
STARTCHAR U+0422
ENCODING 1058
SWIDTH 500 0
DWIDTH 8 0
BBX 8 16 0 -2
BITMAP 
00
00
00
00
40
40
40
40
40
40
40
42
44
38
00
00
ENDCHAR
STARTCHAR U+0423
ENCODING 1059
SWIDTH 500 0
DWIDTH 8 0
BBX 8 16 0 -2
BITMAP 
00
00
00
00
38
44
42
02
02
02
02
42
44
38
00
00
ENDCHAR
STARTCHAR U+0424
ENCODING 1060
SWIDTH 500 0
DWIDTH 8 0
BBX 8 16 0 -2
BITMAP 
00
00
00
00
20
20
20
20
27
39
01
01
01
01
00
00
ENDCHAR
STARTCHAR U+0425
ENCODING 1061
SWIDTH 500 0
DWIDTH 8 0
BBX 8 16 0 -2
BITMAP 
00
00
00
00
41
43
45
45
49
49
51
51
61
41
00
00
ENDCHAR
STARTCHAR U+0426
ENCODING 1062
SWIDTH 500 0
DWIDTH 8 0
BBX 8 16 0 -2
BITMAP 
00
00
00
00
02
12
0A
06
03
02
02
92
5A
36
00
00
ENDCHAR
STARTCHAR U+0427
ENCODING 1063
SWIDTH 500 0
DWIDTH 8 0
BBX 8 16 0 -2
BITMAP 
00
00
00
00
1C
2A
2A
49
59
4D
49
2A
2A
1C
00
00
ENDCHAR
STARTCHAR U+0428
ENCODING 1064
SWIDTH 500 0
DWIDTH 8 0
BBX 8 16 0 -2
BITMAP 
00
00
00
00
00
00
00
38
44
04
3C
44
44
38
00
00
ENDCHAR
STARTCHAR U+0429
ENCODING 1065
SWIDTH 500 0
DWIDTH 8 0
BBX 8 16 0 -2
BITMAP 
00
00
00
00
00
00
00
38
44
40
30
40
44
38
00
00
ENDCHAR
STARTCHAR U+042A
ENCODING 1066
SWIDTH 500 0
DWIDTH 8 0
BBX 8 16 0 -2
BITMAP 
00
00
00
00
00
00
00
38
44
44
3C
44
44
38
00
00
ENDCHAR
STARTCHAR U+042B
ENCODING 1067
SWIDTH 500 0
DWIDTH 8 0
BBX 8 16 0 -2
BITMAP 
00
00
00
00
00
00
00
1C
2A
49
47
41
22
1C
00
00
ENDCHAR
STARTCHAR U+042C
ENCODING 1068
SWIDTH 500 0
DWIDTH 8 0
BBX 8 16 0 -2
BITMAP 
00
00
00
00
00
00
00
1C
22
41
41
41
22
1C
00
00
ENDCHAR
STARTCHAR U+042D
ENCODING 1069
SWIDTH 500 0
DWIDTH 8 0
BBX 8 16 0 -2
BITMAP 
00
00
00
00
00
00
00
1C
2A
49
49
49
2A
1C
00
00
ENDCHAR
STARTCHAR U+042E
ENCODING 1070
SWIDTH 500 0
DWIDTH 8 0
BBX 8 16 0 -2
BITMAP 
00
00
00
00
00
00
00
00
08
28
18
0C
0A
08
00
00
ENDCHAR
STARTCHAR U+042F
ENCODING 1071
SWIDTH 500 0
DWIDTH 8 0
BBX 8 16 0 -2
BITMAP 
00
00
00
00
00
00
00
02
02
02
02
02
3A
46
00
00
ENDCHAR
STARTCHAR U+0430
ENCODING 1072
SWIDTH 500 0
DWIDTH 8 0
BBX 8 16 0 -2
BITMAP 
00
00
00
00
00
00
00
00
04
04
04
24
14
0C
00
00
ENDCHAR
STARTCHAR U+0431
ENCODING 1073
SWIDTH 500 0
DWIDTH 8 0
BBX 8 16 0 -2
BITMAP 
00
00
00
00
00
00
00
01
01
01
01
49
2D
1B
00
00
ENDCHAR
STARTCHAR U+0432
ENCODING 1074
SWIDTH 500 0
DWIDTH 8 0
BBX 8 16 0 -2
BITMAP 
00
00
00
00
00
00
00
62
5C
40
40
40
40
40
00
00
ENDCHAR
STARTCHAR U+0433
ENCODING 1075
SWIDTH 500 0
DWIDTH 8 0
BBX 8 16 0 -2
BITMAP 
00
00
00
00
00
00
00
38
44
44
3C
04
04
04
00
00
ENDCHAR
STARTCHAR U+0434
ENCODING 1076
SWIDTH 500 0
DWIDTH 8 0
BBX 8 16 0 -2
BITMAP 
00
00
00
00
00
00
00
08
08
08
08
3E
49
31
00
00
ENDCHAR
STARTCHAR U+0435
ENCODING 1077
SWIDTH 500 0
DWIDTH 8 0
BBX 8 16 0 -2
BITMAP 
00
00
00
00
00
00
3C
52
4A
3E
42
42
42
3C
00
00
ENDCHAR
STARTCHAR U+0436
ENCODING 1078
SWIDTH 500 0
DWIDTH 8 0
BBX 8 16 0 -2
BITMAP 
00
00
00
00
00
00
00
41
41
41
41
49
49
36
00
00
ENDCHAR
STARTCHAR U+0437
ENCODING 1079
SWIDTH 500 0
DWIDTH 8 0
BBX 8 16 0 -2
BITMAP 
00
00
00
00
00
00
00
42
A2
A4
7F
24
28
10
00
00
ENDCHAR
STARTCHAR U+0438
ENCODING 1080
SWIDTH 500 0
DWIDTH 8 0
BBX 8 16 0 -2
BITMAP 
00
00
00
00
00
00
00
46
49
49
3E
08
08
08
00
00
ENDCHAR
STARTCHAR U+0439
ENCODING 1081
SWIDTH 500 0
DWIDTH 8 0
BBX 8 16 0 -2
BITMAP 
00
00
00
00
00
00
00
3E
02
02
02
02
02
02
00
00
ENDCHAR
STARTCHAR U+043A
ENCODING 1082
SWIDTH 500 0
DWIDTH 8 0
BBX 8 16 0 -2
BITMAP 
00
00
00
00
00
00
00
34
4C
44
3C
44
44
3C
00
00
ENDCHAR
STARTCHAR U+043B
ENCODING 1083
SWIDTH 500 0
DWIDTH 8 0
BBX 8 16 0 -2
BITMAP 
00
00
00
00
00
00
00
1C
22
22
02
02
02
02
00
00
ENDCHAR
STARTCHAR U+043C
ENCODING 1084
SWIDTH 500 0
DWIDTH 8 0
BBX 8 16 0 -2
BITMAP 
00
00
00
00
00
00
00
1A
26
42
7E
42
26
1A
00
00
ENDCHAR
STARTCHAR U+043D
ENCODING 1085
SWIDTH 500 0
DWIDTH 8 0
BBX 8 16 0 -2
BITMAP 
00
00
00
00
00
00
00
1C
22
40
40
40
22
1C
00
00
ENDCHAR
STARTCHAR U+043E
ENCODING 1086
SWIDTH 500 0
DWIDTH 8 0
BBX 8 16 0 -2
BITMAP 
00
00
00
00
00
00
00
18
24
20
1C
08
10
20
00
00
ENDCHAR
STARTCHAR U+043F
ENCODING 1087
SWIDTH 500 0
DWIDTH 8 0
BBX 8 16 0 -2
BITMAP 
00
00
00
00
00
00
00
1C
22
41
41
49
49
36
00
00
ENDCHAR
STARTCHAR U+0440
ENCODING 1088
SWIDTH 500 0
DWIDTH 8 0
BBX 8 16 0 -2
BITMAP 
00
00
00
00
00
00
00
1C
2A
49
47
41
49
36
00
00
ENDCHAR
STARTCHAR U+0441
ENCODING 1089
SWIDTH 500 0
DWIDTH 8 0
BBX 8 16 0 -2
BITMAP 
00
00
00
00
00
00
00
38
44
44
78
40
40
40
00
00
ENDCHAR
STARTCHAR U+0442
ENCODING 1090
SWIDTH 500 0
DWIDTH 8 0
BBX 8 16 0 -2
BITMAP 
00
00
00
00
00
00
00
18
24
44
78
44
44
38
00
00
ENDCHAR
STARTCHAR U+0443
ENCODING 1091
SWIDTH 500 0
DWIDTH 8 0
BBX 8 16 0 -2
BITMAP 
00
00
00
00
00
00
00
20
20
20
20
20
20
3E
00
00
ENDCHAR
STARTCHAR U+0444
ENCODING 1092
SWIDTH 500 0
DWIDTH 8 0
BBX 8 16 0 -2
BITMAP 
00
00
00
00
00
00
00
41
22
14
08
14
14
14
08
00
ENDCHAR
STARTCHAR U+0445
ENCODING 1093
SWIDTH 500 0
DWIDTH 8 0
BBX 8 16 0 -2
BITMAP 
00
00
00
00
00
00
00
0C
12
22
F4
1F
28
24
18
00
ENDCHAR
STARTCHAR U+0446
ENCODING 1094
SWIDTH 500 0
DWIDTH 8 0
BBX 8 16 0 -2
BITMAP 
00
00
00
00
00
00
00
18
24
20
38
24
24
18
00
00
ENDCHAR
STARTCHAR U+0447
ENCODING 1095
SWIDTH 500 0
DWIDTH 8 0
BBX 8 16 0 -2
BITMAP 
00
00
00
00
00
00
00
58
64
44
44
44
64
58
00
00
ENDCHAR
STARTCHAR U+0448
ENCODING 1096
SWIDTH 500 0
DWIDTH 8 0
BBX 8 16 0 -2
BITMAP 
00
00
00
00
00
00
00
1C
22
10
08
04
22
1C
00
00
ENDCHAR
STARTCHAR U+0449
ENCODING 1097
SWIDTH 500 0
DWIDTH 8 0
BBX 8 16 0 -2
BITMAP 
00
00
00
00
00
00
00
08
08
3A
49
49
3E
08
08
00
ENDCHAR
STARTCHAR U+044A
ENCODING 1098
SWIDTH 500 0
DWIDTH 8 0
BBX 8 16 0 -2
BITMAP 
00
00
00
00
00
00
00
20
20
20
20
24
24
18
00
00
ENDCHAR
STARTCHAR U+044B
ENCODING 1099
SWIDTH 500 0
DWIDTH 8 0
BBX 8 16 0 -2
BITMAP 
00
00
00
00
00
00
00
38
44
04
04
04
44
38
00
00
ENDCHAR
STARTCHAR U+044C
ENCODING 1100
SWIDTH 500 0
DWIDTH 8 0
BBX 8 16 0 -2
BITMAP 
00
00
00
00
00
00
00
10
10
10
16
1A
02
02
00
00
ENDCHAR
STARTCHAR U+044D
ENCODING 1101
SWIDTH 500 0
DWIDTH 8 0
BBX 8 16 0 -2
BITMAP 
00
00
00
00
00
00
00
41
43
45
49
51
61
41
00
00
ENDCHAR
STARTCHAR U+044E
ENCODING 1102
SWIDTH 500 0
DWIDTH 8 0
BBX 8 16 0 -2
BITMAP 
00
00
00
00
00
00
00
02
0A
06
03
92
5A
36
00
00
ENDCHAR
STARTCHAR U+044F
ENCODING 1103
SWIDTH 500 0
DWIDTH 8 0
BBX 8 16 0 -2
BITMAP 
00
00
00
00
00
00
1C
2A
49
59
4D
49
2A
1C
00
00
ENDCHAR
STARTCHAR U+0450
ENCODING 1104
SWIDTH 500 0
DWIDTH 8 0
BBX 8 16 0 -2
BITMAP 
00
00
00
00
70
08
04
04
04
04
04
04
04
04
00
00
ENDCHAR
STARTCHAR U+0451
ENCODING 1105
SWIDTH 500 0
DWIDTH 8 0
BBX 8 16 0 -2
BITMAP 
00
00
00
00
04
0C
14
24
04
04
04
04
04
04
00
00
ENDCHAR
STARTCHAR U+0452
ENCODING 1106
SWIDTH 500 0
DWIDTH 8 0
BBX 8 16 0 -2
BITMAP 
00
00
00
00
01
01
1D
23
41
40
40
40
21
1E
00
00
ENDCHAR
STARTCHAR U+0453
ENCODING 1107
SWIDTH 500 0
DWIDTH 8 0
BBX 8 16 0 -2
BITMAP 
00
00
00
00
04
04
04
04
04
04
04
04
08
70
00
00
ENDCHAR
STARTCHAR U+0454
ENCODING 1108
SWIDTH 500 0
DWIDTH 8 0
BBX 8 16 0 -2
BITMAP 
00
00
00
00
20
10
08
14
22
41
41
41
22
1C
00
00
ENDCHAR
STARTCHAR U+0455
ENCODING 1109
SWIDTH 500 0
DWIDTH 8 0
BBX 8 16 0 -2
BITMAP 
00
00
00
00
38
44
40
20
10
08
04
44
44
38
00
00
ENDCHAR
STARTCHAR U+0456
ENCODING 1110
SWIDTH 500 0
DWIDTH 8 0
BBX 8 16 0 -2
BITMAP 
00
00
00
00
02
04
08
10
20
40
40
40
20
1E
00
00
ENDCHAR
STARTCHAR U+0457
ENCODING 1111
SWIDTH 500 0
DWIDTH 8 0
BBX 8 16 0 -2
BITMAP 
00
00
00
00
42
3C
08
10
20
40
40
40
20
1E
00
00
ENDCHAR
STARTCHAR U+0458
ENCODING 1112
SWIDTH 500 0
DWIDTH 8 0
BBX 8 16 0 -2
BITMAP 
00
00
00
00
40
40
20
20
10
10
08
08
04
04
00
00
ENDCHAR
STARTCHAR U+0459
ENCODING 1113
SWIDTH 500 0
DWIDTH 8 0
BBX 8 16 0 -2
BITMAP 
00
00
00
00
38
44
44
44
44
44
28
10
28
44
00
00
ENDCHAR
STARTCHAR U+045A
ENCODING 1114
SWIDTH 500 0
DWIDTH 8 0
BBX 8 16 0 -2
BITMAP 
00
00
00
00
00
00
40
40
40
40
40
40
40
40
20
1C
ENDCHAR
STARTCHAR U+045B
ENCODING 1115
SWIDTH 500 0
DWIDTH 8 0
BBX 8 16 0 -2
BITMAP 
00
00
00
00
00
00
20
20
20
20
20
20
24
28
30
20
ENDCHAR
STARTCHAR U+045C
ENCODING 1116
SWIDTH 500 0
DWIDTH 8 0
BBX 8 16 0 -2
BITMAP 
00
00
00
00
00
00
3C
42
01
01
01
41
62
5C
40
40
ENDCHAR
STARTCHAR U+045D
ENCODING 1117
SWIDTH 500 0
DWIDTH 8 0
BBX 8 16 0 -2
BITMAP 
00
00
00
00
00
00
1C
20
40
40
40
40
40
40
40
40
ENDCHAR
STARTCHAR U+045E
ENCODING 1118
SWIDTH 500 0
DWIDTH 8 0
BBX 8 16 0 -2
BITMAP 
00
00
00
00
00
00
1C
22
41
41
41
22
14
08
04
02
ENDCHAR
STARTCHAR U+045F
ENCODING 1119
SWIDTH 500 0
DWIDTH 8 0
BBX 8 16 0 -2
BITMAP 
00
00
00
00
00
00
38
44
04
08
10
20
40
44
44
38
ENDCHAR
STARTCHAR U+0460
ENCODING 1120
SWIDTH 500 0
DWIDTH 8 0
BBX 8 16 0 -2
BITMAP 
00
00
00
00
00
00
78
04
02
02
02
04
08
10
20
40
ENDCHAR
STARTCHAR U+0461
ENCODING 1121
SWIDTH 500 0
DWIDTH 8 0
BBX 8 16 0 -2
BITMAP 
00
00
00
00
00
00
78
04
02
02
02
04
08
10
3C
42
ENDCHAR
STARTCHAR U+0462
ENCODING 1122
SWIDTH 500 0
DWIDTH 8 0
BBX 8 16 0 -2
BITMAP 
00
00
00
00
00
00
04
04
08
08
10
10
20
20
40
40
ENDCHAR
STARTCHAR U+0463
ENCODING 1123
SWIDTH 500 0
DWIDTH 8 0
BBX 8 16 0 -2
BITMAP 
00
00
00
00
00
00
44
28
10
28
44
44
44
44
44
38
ENDCHAR
STARTCHAR U+0464
ENCODING 1124
SWIDTH 500 0
DWIDTH 8 0
BBX 8 16 0 -2
BITMAP 
00
00
00
00
00
00
00
3C
42
40
40
40
42
3C
00
00
ENDCHAR
STARTCHAR U+0465
ENCODING 1125
SWIDTH 500 0
DWIDTH 8 0
BBX 8 16 0 -2
BITMAP 
00
00
00
00
00
00
00
07
08
08
08
08
08
70
00
00
ENDCHAR
STARTCHAR U+0466
ENCODING 1126
SWIDTH 500 0
DWIDTH 8 0
BBX 8 16 0 -2
BITMAP 
00
00
00
00
00
00
00
08
08
08
08
08
08
08
00
00
ENDCHAR
STARTCHAR U+0467
ENCODING 1127
SWIDTH 500 0
DWIDTH 8 0
BBX 8 16 0 -2
BITMAP 
00
00
00
00
00
00
00
40
40
40
40
40
20
1C
00
00
ENDCHAR
STARTCHAR U+0468
ENCODING 1128
SWIDTH 500 0
DWIDTH 8 0
BBX 8 16 0 -2
BITMAP 
00
00
00
00
00
00
00
04
04
04
04
04
08
70
00
00
ENDCHAR
STARTCHAR U+0469
ENCODING 1129
SWIDTH 500 0
DWIDTH 8 0
BBX 8 16 0 -2
BITMAP 
00
00
00
00
00
00
00
1C
20
40
40
40
40
40
00
00
ENDCHAR
STARTCHAR U+046A
ENCODING 1130
SWIDTH 500 0
DWIDTH 8 0
BBX 8 16 0 -2
BITMAP 
00
00
00
00
00
00
00
70
08
04
04
04
04
04
00
00
ENDCHAR
STARTCHAR U+046B
ENCODING 1131
SWIDTH 500 0
DWIDTH 8 0
BBX 8 16 0 -2
BITMAP 
00
00
00
00
00
00
00
41
41
22
22
14
14
08
00
00
ENDCHAR
STARTCHAR U+046C
ENCODING 1132
SWIDTH 500 0
DWIDTH 8 0
BBX 8 16 0 -2
BITMAP 
00
00
00
00
00
00
00
03
0C
30
40
30
09
06
00
00
ENDCHAR
STARTCHAR U+046D
ENCODING 1133
SWIDTH 500 0
DWIDTH 8 0
BBX 8 16 0 -2
BITMAP 
00
00
00
00
00
00
00
38
44
40
40
38
10
20
00
00
ENDCHAR
STARTCHAR U+046E
ENCODING 1134
SWIDTH 500 0
DWIDTH 8 0
BBX 8 16 0 -2
BITMAP 
00
00
00
00
00
00
00
3C
42
02
02
02
42
3C
00
00
ENDCHAR
STARTCHAR U+046F
ENCODING 1135
SWIDTH 500 0
DWIDTH 8 0
BBX 8 16 0 -2
BITMAP 
00
00
00
00
00
00
00
70
08
08
08
08
08
07
00
00
ENDCHAR
STARTCHAR U+0470
ENCODING 1136
SWIDTH 500 0
DWIDTH 8 0
BBX 8 16 0 -2
BITMAP 
00
00
00
00
00
00
00
20
20
2C
34
04
04
04
00
00
ENDCHAR
STARTCHAR U+0471
ENCODING 1137
SWIDTH 500 0
DWIDTH 8 0
BBX 8 16 0 -2
BITMAP 
00
00
00
00
00
00
00
7E
40
40
40
40
20
1C
00
00
ENDCHAR
STARTCHAR U+0472
ENCODING 1138
SWIDTH 500 0
DWIDTH 8 0
BBX 8 16 0 -2
BITMAP 
00
00
00
00
00
00
00
7E
02
02
02
02
04
38
00
00
ENDCHAR
STARTCHAR U+0473
ENCODING 1139
SWIDTH 500 0
DWIDTH 8 0
BBX 8 16 0 -2
BITMAP 
00
00
00
00
00
00
00
7C
04
08
10
10
10
10
00
00
ENDCHAR
STARTCHAR U+0474
ENCODING 1140
SWIDTH 500 0
DWIDTH 8 0
BBX 8 16 0 -2
BITMAP 
00
00
00
00
00
00
00
38
44
44
44
44
44
38
00
00
ENDCHAR
STARTCHAR U+0475
ENCODING 1141
SWIDTH 500 0
DWIDTH 8 0
BBX 8 16 0 -2
BITMAP 
00
00
00
00
00
00
00
08
14
14
22
22
41
41
00
00
ENDCHAR
STARTCHAR U+0476
ENCODING 1142
SWIDTH 500 0
DWIDTH 8 0
BBX 8 16 0 -2
BITMAP 
00
00
00
00
00
00
00
30
48
06
01
06
18
60
00
00
ENDCHAR
STARTCHAR U+0477
ENCODING 1143
SWIDTH 500 0
DWIDTH 8 0
BBX 8 16 0 -2
BITMAP 
00
00
00
00
00
00
00
38
44
04
04
38
10
08
00
00
ENDCHAR
STARTCHAR U+0478
ENCODING 1144
SWIDTH 500 0
DWIDTH 8 0
BBX 8 16 0 -2
BITMAP 
00
00
00
00
00
00
00
3C
42
41
31
11
21
46
00
00
ENDCHAR
STARTCHAR U+0479
ENCODING 1145
SWIDTH 500 0
DWIDTH 8 0
BBX 8 16 0 -2
BITMAP 
00
00
00
00
00
00
00
66
11
11
11
61
42
3C
00
00
ENDCHAR
STARTCHAR U+047A
ENCODING 1146
SWIDTH 500 0
DWIDTH 8 0
BBX 8 16 0 -2
BITMAP 
00
00
00
00
00
00
00
1C
22
21
19
21
41
46
00
00
ENDCHAR
STARTCHAR U+047B
ENCODING 1147
SWIDTH 500 0
DWIDTH 8 0
BBX 8 16 0 -2
BITMAP 
00
00
00
00
00
00
00
46
41
21
19
21
22
1C
00
00
ENDCHAR
STARTCHAR U+047C
ENCODING 1148
SWIDTH 500 0
DWIDTH 8 0
BBX 8 16 0 -2
BITMAP 
00
00
00
00
00
00
00
1C
22
42
42
42
42
4C
00
00
ENDCHAR
STARTCHAR U+047D
ENCODING 1149
SWIDTH 500 0
DWIDTH 8 0
BBX 8 16 0 -2
BITMAP 
00
00
00
00
00
00
00
5C
62
42
42
42
42
4C
00
00
ENDCHAR
STARTCHAR U+047E
ENCODING 1150
SWIDTH 500 0
DWIDTH 8 0
BBX 8 16 0 -2
BITMAP 
00
00
00
00
00
00
00
4E
50
60
40
40
40
40
00
00
ENDCHAR
STARTCHAR U+047F
ENCODING 1151
SWIDTH 500 0
DWIDTH 8 0
BBX 8 16 0 -2
BITMAP 
00
00
00
00
40
40
40
44
2A
2A
2A
29
11
11
00
00
ENDCHAR
STARTCHAR U+0480
ENCODING 1152
SWIDTH 500 0
DWIDTH 8 0
BBX 8 16 0 -2
BITMAP 
00
00
00
00
22
14
08
14
22
41
41
41
22
1C
00
00
ENDCHAR
STARTCHAR U+0481
ENCODING 1153
SWIDTH 500 0
DWIDTH 8 0
BBX 8 16 0 -2
BITMAP 
00
00
00
00
54
54
54
54
2C
04
08
3E
48
30
00
00
ENDCHAR
STARTCHAR U+0482
ENCODING 1154
SWIDTH 500 0
DWIDTH 8 0
BBX 8 16 0 -2
BITMAP 
00
00
00
00
08
28
58
58
28
08
11
11
11
0E
00
00
ENDCHAR
STARTCHAR U+0483
ENCODING 1155
SWIDTH 500 0
DWIDTH 8 0
BBX 8 16 0 -2
BITMAP 
00
00
00
00
08
08
08
10
10
10
10
20
20
20
00
00
ENDCHAR
STARTCHAR U+0484
ENCODING 1156
SWIDTH 1000 0
DWIDTH 16 0
BBX 16 16 0 -2
BITMAP 
0000
0000
0000
0000
1040
18C0
1740
1040
2080
2080
2088
4108
4110
40E0
0000
0000
ENDCHAR
STARTCHAR U+0485
ENCODING 1157
SWIDTH 500 0
DWIDTH 8 0
BBX 8 16 0 -2
BITMAP 
00
00
00
00
38
44
40
40
70
48
49
49
49
46
00
00
ENDCHAR
STARTCHAR U+0486
ENCODING 1158
SWIDTH 500 0
DWIDTH 8 0
BBX 8 16 0 -2
BITMAP 
00
00
00
00
1C
22
22
41
41
41
41
22
22
1C
00
00
ENDCHAR
STARTCHAR U+0487
ENCODING 1159
SWIDTH 500 0
DWIDTH 8 0
BBX 8 16 0 -2
BITMAP 
00
00
00
00
31
4F
01
02
02
02
04
04
04
04
00
00
ENDCHAR
STARTCHAR U+0488
ENCODING 1160
SWIDTH 500 0
DWIDTH 8 0
BBX 8 16 0 -2
BITMAP 
00
00
00
00
38
44
04
08
10
3C
42
42
42
3C
00
00
ENDCHAR
STARTCHAR U+0489
ENCODING 1161
SWIDTH 500 0
DWIDTH 8 0
BBX 8 16 0 -2
BITMAP 
00
00
00
00
3C
42
42
42
3C
08
10
20
22
1C
00
00
ENDCHAR
STARTCHAR U+048A
ENCODING 1162
SWIDTH 500 0
DWIDTH 8 0
BBX 8 16 0 -2
BITMAP 
00
00
00
00
78
08
08
10
10
10
23
22
22
1C
00
00
ENDCHAR
STARTCHAR U+048B
ENCODING 1163
SWIDTH 500 0
DWIDTH 8 0
BBX 8 16 0 -2
BITMAP 
00
00
00
00
24
24
24
24
1C
04
08
3E
48
30
00
00
ENDCHAR
STARTCHAR U+048C
ENCODING 1164
SWIDTH 500 0
DWIDTH 8 0
BBX 8 16 0 -2
BITMAP 
00
00
00
00
30
48
48
48
30
48
49
49
49
46
00
00
ENDCHAR
STARTCHAR U+048D
ENCODING 1165
SWIDTH 500 0
DWIDTH 8 0
BBX 8 16 0 -2
BITMAP 
00
00
00
00
48
48
48
48
38
08
10
12
12
0C
00
00
ENDCHAR
STARTCHAR U+048E
ENCODING 1166
SWIDTH 1000 0
DWIDTH 16 0
BBX 16 16 0 -2
BITMAP 
0000
0000
0000
0000
3818
4424
4424
0478
05A0
1E20
2420
2422
2422
181C
0000
0000
ENDCHAR
STARTCHAR U+048F
ENCODING 1167
SWIDTH 500 0
DWIDTH 8 0
BBX 8 16 0 -2
BITMAP 
00
00
00
00
12
12
12
0E
02
02
04
34
4C
44
00
00
ENDCHAR
STARTCHAR U+0490
ENCODING 1168
SWIDTH 1000 0
DWIDTH 16 0
BBX 16 16 0 -2
BITMAP 
0000
0000
0000
0000
0380
0440
0440
0440
0880
0888
0888
1110
1110
10E0
0000
0000
ENDCHAR
STARTCHAR U+0491
ENCODING 1169
SWIDTH 500 0
DWIDTH 8 0
BBX 8 16 0 -2
BITMAP 
00
00
00
00
10
10
10
1C
12
02
02
02
22
1C
00
00
ENDCHAR
STARTCHAR U+0492
ENCODING 1170
SWIDTH 500 0
DWIDTH 8 0
BBX 8 16 0 -2
BITMAP 
00
00
00
00
1C
22
02
02
0C
10
20
20
22
1C
00
00
ENDCHAR
STARTCHAR U+0493
ENCODING 1171
SWIDTH 1000 0
DWIDTH 16 0
BBX 16 16 0 -2
BITMAP 
0000
0000
0000
4400
4400
4C00
3580
0640
0844
0844
0888
1088
1088
1070
0000
0000
ENDCHAR
STARTCHAR U+0494
ENCODING 1172
SWIDTH 500 0
DWIDTH 8 0
BBX 8 16 0 -2
BITMAP 
00
00
00
00
22
22
11
11
0E
10
20
20
21
1E
00
00
ENDCHAR
STARTCHAR U+0495
ENCODING 1173
SWIDTH 500 0
DWIDTH 8 0
BBX 8 16 0 -2
BITMAP 
00
00
00
00
08
14
14
08
14
12
20
20
21
1E
00
00
ENDCHAR
STARTCHAR U+0496
ENCODING 1174
SWIDTH 500 0
DWIDTH 8 0
BBX 8 16 0 -2
BITMAP 
00
00
00
00
1C
22
20
20
18
04
02
02
22
1C
00
00
ENDCHAR
STARTCHAR U+0497
ENCODING 1175
SWIDTH 500 0
DWIDTH 8 0
BBX 8 16 0 -2
BITMAP 
00
00
00
00
20
20
20
20
20
20
22
22
22
1C
00
00
ENDCHAR
STARTCHAR U+0498
ENCODING 1176
SWIDTH 500 0
DWIDTH 8 0
BBX 8 16 0 -2
BITMAP 
00
00
00
00
3C
42
42
42
42
3E
02
02
04
18
00
00
ENDCHAR
STARTCHAR U+0499
ENCODING 1177
SWIDTH 500 0
DWIDTH 8 0
BBX 8 16 0 -2
BITMAP 
00
00
00
00
60
90
10
20
30
28
49
49
49
46
00
00
ENDCHAR
STARTCHAR U+049A
ENCODING 1178
SWIDTH 500 0
DWIDTH 8 0
BBX 8 16 0 -2
BITMAP 
00
00
00
00
0E
11
01
01
02
02
02
3A
44
44
00
00
ENDCHAR
STARTCHAR U+049B
ENCODING 1179
SWIDTH 500 0
DWIDTH 8 0
BBX 8 16 0 -2
BITMAP 
00
00
00
00
1C
22
20
20
20
24
1C
04
04
04
00
00
ENDCHAR
STARTCHAR U+049C
ENCODING 1180
SWIDTH 500 0
DWIDTH 8 0
BBX 8 16 0 -2
BITMAP 
00
00
00
00
22
22
22
44
44
44
88
89
89
76
00
00
ENDCHAR
STARTCHAR U+049D
ENCODING 1181
SWIDTH 1000 0
DWIDTH 16 0
BBX 16 16 0 -2
BITMAP 
0000
0000
0000
0000
3000
4800
4800
0EE0
1110
1110
1112
2222
2224
2218
0000
0000
ENDCHAR
STARTCHAR U+049E
ENCODING 1182
SWIDTH 1000 0
DWIDTH 16 0
BBX 16 16 0 -2
BITMAP 
0000
FFFF
CF73
B66D
B76D
B76D
CE33
FFFF
FFFF
B661
B5AF
8623
F7AF
F661
FFFF
0000
ENDCHAR
STARTCHAR U+049F
ENCODING 1183
SWIDTH 1000 0
DWIDTH 16 0
BBX 16 16 0 -2
BITMAP 
0000
FFFF
CF73
B66D
B76D
B76D
CE33
FFFF
FFFF
B661
B5AF
8623
F7AF
F66F
FFFF
0000
ENDCHAR
STARTCHAR U+04A0
ENCODING 1184
SWIDTH 500 0
DWIDTH 8 0
BBX 8 16 0 -2
BITMAP 
00
00
00
00
1C
22
22
41
41
41
41
22
22
1C
00
00
ENDCHAR
STARTCHAR U+04A1
ENCODING 1185
SWIDTH 500 0
DWIDTH 8 0
BBX 8 16 0 -2
BITMAP 
00
00
00
00
07
08
08
08
04
04
02
02
02
1C
00
00
ENDCHAR
STARTCHAR U+04A2
ENCODING 1186
SWIDTH 500 0
DWIDTH 8 0
BBX 8 16 0 -2
BITMAP 
00
00
00
00
1C
22
40
40
30
40
41
41
22
1C
00
00
ENDCHAR
STARTCHAR U+04A3
ENCODING 1187
SWIDTH 500 0
DWIDTH 8 0
BBX 8 16 0 -2
BITMAP 
00
00
00
00
7E
10
20
20
30
48
48
49
49
46
00
00
ENDCHAR
STARTCHAR U+04A4
ENCODING 1188
SWIDTH 500 0
DWIDTH 8 0
BBX 8 16 0 -2
BITMAP 
00
00
00
00
22
14
08
14
22
41
41
41
22
1C
00
00
ENDCHAR
STARTCHAR U+04A5
ENCODING 1189
SWIDTH 500 0
DWIDTH 8 0
BBX 8 16 0 -2
BITMAP 
00
00
00
00
0C
12
12
1C
20
40
41
41
22
1C
00
00
ENDCHAR
STARTCHAR U+04A6
ENCODING 1190
SWIDTH 500 0
DWIDTH 8 0
BBX 8 16 0 -2
BITMAP 
00
00
00
00
22
22
22
1C
04
04
08
08
08
30
00
00
ENDCHAR
STARTCHAR U+04A7
ENCODING 1191
SWIDTH 500 0
DWIDTH 8 0
BBX 8 16 0 -2
BITMAP 
00
00
00
00
1C
22
01
01
01
02
02
02
44
38
00
00
ENDCHAR
STARTCHAR U+04A8
ENCODING 1192
SWIDTH 500 0
DWIDTH 8 0
BBX 8 16 0 -2
BITMAP 
00
00
00
00
0E
11
20
20
20
40
40
40
22
1C
00
00
ENDCHAR
STARTCHAR U+04A9
ENCODING 1193
SWIDTH 500 0
DWIDTH 8 0
BBX 8 16 0 -2
BITMAP 
00
00
00
00
11
11
11
22
22
22
44
44
44
38
00
00
ENDCHAR
STARTCHAR U+04AA
ENCODING 1194
SWIDTH 1000 0
DWIDTH 16 0
BBX 16 16 0 -2
BITMAP 
0000
FFFF
CF73
B66D
B76D
B76D
CE33
FFFF
FFFF
B421
B5AD
8421
F5AD
F5AD
FFFF
0000
ENDCHAR
STARTCHAR U+04AB
ENCODING 1195
SWIDTH 1000 0
DWIDTH 16 0
BBX 16 16 0 -2
BITMAP 
0000
FFFF
CF73
B66D
B76D
B76D
CE33
FFFF
FFFF
B423
B5AD
8423
F5AD
F5A3
FFFF
0000
ENDCHAR
STARTCHAR U+04AC
ENCODING 1196
SWIDTH 1000 0
DWIDTH 16 0
BBX 16 16 0 -2
BITMAP 
0000
FFFF
CF73
B66D
B76D
B76D
CE33
FFFF
FFFF
B431
B5AF
842F
F5AF
F5B1
FFFF
0000
ENDCHAR
STARTCHAR U+04AD
ENCODING 1197
SWIDTH 1000 0
DWIDTH 16 0
BBX 16 16 0 -2
BITMAP 
0000
FFFF
CF73
B66D
B76D
B76D
CE33
FFFF
FFFF
B423
B5AD
842D
F5AD
F5A3
FFFF
0000
ENDCHAR
STARTCHAR U+04AE
ENCODING 1198
SWIDTH 1000 0
DWIDTH 16 0
BBX 16 16 0 -2
BITMAP 
0000
FFFF
CF73
B66D
B76D
B76D
CE33
FFFF
FFFF
B421
B5AF
8423
F5AF
F5A1
FFFF
0000
ENDCHAR
STARTCHAR U+04AF
ENCODING 1199
SWIDTH 1000 0
DWIDTH 16 0
BBX 16 16 0 -2
BITMAP 
0000
FFFF
CF73
B66D
B76D
B76D
CE33
FFFF
FFFF
B421
B5AF
8423
F5AF
F5AF
FFFF
0000
ENDCHAR
STARTCHAR U+0500
ENCODING 1280
SWIDTH 500 0
DWIDTH 8 0
BBX 8 16 0 -2
BITMAP 
00
00
00
00
00
22
44
88
F8
88
44
22
00
00
00
00
ENDCHAR
STARTCHAR U+0501
ENCODING 1281
SWIDTH 500 0
DWIDTH 8 0
BBX 8 16 0 -2
BITMAP 
00
00
00
00
82
44
28
10
28
44
FE
00
00
00
00
00
ENDCHAR
STARTCHAR U+0502
ENCODING 1282
SWIDTH 500 0
DWIDTH 8 0
BBX 8 16 0 -2
BITMAP 
00
00
00
00
00
F8
04
42
42
42
44
78
40
40
40
00
ENDCHAR
STARTCHAR U+0503
ENCODING 1283
SWIDTH 500 0
DWIDTH 8 0
BBX 8 16 0 -2
BITMAP 
00
02
02
02
02
02
62
92
92
12
12
0C
00
00
00
00
ENDCHAR
STARTCHAR U+0504
ENCODING 1284
SWIDTH 500 0
DWIDTH 8 0
BBX 8 16 0 -2
BITMAP 
00
02
02
02
02
02
02
82
82
82
82
FE
00
00
00
00
ENDCHAR
STARTCHAR U+0505
ENCODING 1285
SWIDTH 500 0
DWIDTH 8 0
BBX 8 16 0 -2
BITMAP 
00
02
02
02
02
82
02
82
82
82
82
FE
00
00
00
00
ENDCHAR
STARTCHAR U+0506
ENCODING 1286
SWIDTH 500 0
DWIDTH 8 0
BBX 8 16 0 -2
BITMAP 
00
00
00
00
00
FE
44
44
28
28
10
10
00
00
00
00
ENDCHAR
STARTCHAR U+0507
ENCODING 1287
SWIDTH 500 0
DWIDTH 8 0
BBX 8 16 0 -2
BITMAP 
00
00
00
00
00
FE
04
08
10
20
40
FE
00
00
00
00
ENDCHAR
STARTCHAR U+0508
ENCODING 1288
SWIDTH 500 0
DWIDTH 8 0
BBX 8 16 0 -2
BITMAP 
00
00
00
00
00
38
40
80
82
82
42
3E
02
02
02
00
ENDCHAR
STARTCHAR U+0509
ENCODING 1289
SWIDTH 500 0
DWIDTH 8 0
BBX 8 16 0 -2
BITMAP 
00
00
00
00
00
80
80
80
FC
82
82
7C
00
00
00
00
ENDCHAR
STARTCHAR U+050A
ENCODING 1290
SWIDTH 500 0
DWIDTH 8 0
BBX 8 16 0 -2
BITMAP 
00
00
00
00
00
F8
10
20
3C
42
42
3C
00
00
00
00
ENDCHAR
STARTCHAR U+050B
ENCODING 1291
SWIDTH 500 0
DWIDTH 8 0
BBX 8 16 0 -2
BITMAP 
00
00
00
00
00
60
8C
92
92
92
92
7C
10
10
10
00
ENDCHAR
STARTCHAR U+050C
ENCODING 1292
SWIDTH 500 0
DWIDTH 8 0
BBX 8 16 0 -2
BITMAP 
00
00
00
00
00
60
90
80
80
60
20
40
40
22
1C
00
ENDCHAR
STARTCHAR U+050D
ENCODING 1293
SWIDTH 500 0
DWIDTH 8 0
BBX 8 16 0 -2
BITMAP 
00
00
00
00
00
82
86
8A
92
A2
C2
82
00
00
00
00
ENDCHAR
STARTCHAR U+050E
ENCODING 1294
SWIDTH 500 0
DWIDTH 8 0
BBX 8 16 0 -2
BITMAP 
00
00
00
00
00
10
10
10
10
10
10
10
00
00
00
00
ENDCHAR
STARTCHAR U+050F
ENCODING 1295
SWIDTH 500 0
DWIDTH 8 0
BBX 8 16 0 -2
BITMAP 
00
00
00
00
00
FE
80
80
80
80
80
80
00
00
00
00
ENDCHAR
STARTCHAR U+0510
ENCODING 1296
SWIDTH 500 0
DWIDTH 8 0
BBX 8 16 0 -2
BITMAP 
00
00
00
00
00
10
10
28
28
44
44
82
00
00
00
00
ENDCHAR
STARTCHAR U+0511
ENCODING 1297
SWIDTH 500 0
DWIDTH 8 0
BBX 8 16 0 -2
BITMAP 
00
00
00
10
00
10
10
28
28
44
44
82
00
00
00
00
ENDCHAR
STARTCHAR U+0512
ENCODING 1298
SWIDTH 500 0
DWIDTH 8 0
BBX 8 16 0 -2
BITMAP 
00
80
80
80
80
FE
82
82
82
82
82
82
00
00
00
00
ENDCHAR
STARTCHAR U+0513
ENCODING 1299
SWIDTH 500 0
DWIDTH 8 0
BBX 8 16 0 -2
BITMAP 
00
00
00
00
00
82
C2
A2
92
8A
86
82
00
00
00
00
ENDCHAR
STARTCHAR U+0514
ENCODING 1300
SWIDTH 500 0
DWIDTH 8 0
BBX 8 16 0 -2
BITMAP 
00
00
00
00
00
02
0E
32
42
8A
92
62
02
02
02
00
ENDCHAR
STARTCHAR U+0515
ENCODING 1301
SWIDTH 500 0
DWIDTH 8 0
BBX 8 16 0 -2
BITMAP 
00
00
00
00
00
FE
02
02
02
02
02
02
00
00
00
00
ENDCHAR
STARTCHAR U+0516
ENCODING 1302
SWIDTH 500 0
DWIDTH 8 0
BBX 8 16 0 -2
BITMAP 
00
00
00
00
38
44
44
82
82
82
82
44
38
00
00
00
ENDCHAR
STARTCHAR U+0517
ENCODING 1303
SWIDTH 500 0
DWIDTH 8 0
BBX 8 16 0 -2
BITMAP 
00
00
00
00
00
FE
82
82
82
82
82
82
00
00
00
00
ENDCHAR
STARTCHAR U+0518
ENCODING 1304
SWIDTH 500 0
DWIDTH 8 0
BBX 8 16 0 -2
BITMAP 
00
00
00
00
00
88
90
A0
C0
E0
98
86
00
00
00
00
ENDCHAR
STARTCHAR U+0519
ENCODING 1305
SWIDTH 500 0
DWIDTH 8 0
BBX 8 16 0 -2
BITMAP 
00
02
02
02
02
02
02
82
82
82
82
FE
02
02
02
00
ENDCHAR
STARTCHAR U+051A
ENCODING 1306
SWIDTH 500 0
DWIDTH 8 0
BBX 8 16 0 -2
BITMAP 
00
02
02
02
02
82
02
82
82
82
82
FE
02
02
02
00
ENDCHAR
STARTCHAR U+051B
ENCODING 1307
SWIDTH 500 0
DWIDTH 8 0
BBX 8 16 0 -2
BITMAP 
00
00
00
00
00
7C
82
80
80
80
82
7C
00
00
00
00
ENDCHAR
STARTCHAR U+051C
ENCODING 1308
SWIDTH 500 0
DWIDTH 8 0
BBX 8 16 0 -2
BITMAP 
00
00
00
00
00
FE
82
82
FE
82
82
82
00
00
00
00
ENDCHAR
STARTCHAR U+051D
ENCODING 1309
SWIDTH 500 0
DWIDTH 8 0
BBX 8 16 0 -2
BITMAP 
00
00
00
00
00
82
44
44
28
28
10
10
00
00
00
00
ENDCHAR
STARTCHAR U+051E
ENCODING 1310
SWIDTH 500 0
DWIDTH 8 0
BBX 8 16 0 -2
BITMAP 
00
38
44
44
82
82
FE
82
82
44
44
38
00
00
00
00
ENDCHAR
STARTCHAR U+051F
ENCODING 1311
SWIDTH 500 0
DWIDTH 8 0
BBX 8 16 0 -2
BITMAP 
00
00
00
00
00
C6
28
10
28
44
44
38
00
00
00
00
ENDCHAR
STARTCHAR U+0520
ENCODING 1312
SWIDTH 500 0
DWIDTH 8 0
BBX 8 16 0 -2
BITMAP 
00
00
00
00
00
82
82
82
82
82
82
FE
80
80
80
00
ENDCHAR
STARTCHAR U+0521
ENCODING 1313
SWIDTH 500 0
DWIDTH 8 0
BBX 8 16 0 -2
BITMAP 
00
00
00
00
00
80
80
80
B8
C4
C2
82
02
04
18
00
ENDCHAR
STARTCHAR U+0522
ENCODING 1314
SWIDTH 500 0
DWIDTH 8 0
BBX 8 16 0 -2
BITMAP 
00
18
04
02
02
C4
28
10
28
44
44
38
00
00
00
00
ENDCHAR
STARTCHAR U+0523
ENCODING 1315
SWIDTH 500 0
DWIDTH 8 0
BBX 8 16 0 -2
BITMAP 
00
00
00
00
00
3E
40
80
80
80
FE
02
82
44
38
00
ENDCHAR
STARTCHAR U+0524
ENCODING 1316
SWIDTH 500 0
DWIDTH 8 0
BBX 8 16 0 -2
BITMAP 
00
00
00
00
00
00
00
82
82
46
3A
82
82
44
38
00
ENDCHAR
STARTCHAR U+0525
ENCODING 1317
SWIDTH 500 0
DWIDTH 8 0
BBX 8 16 0 -2
BITMAP 
00
00
00
00
00
FE
80
80
FE
80
80
80
00
00
00
00
ENDCHAR
STARTCHAR U+0526
ENCODING 1318
SWIDTH 500 0
DWIDTH 8 0
BBX 8 16 0 -2
BITMAP 
00
00
00
00
00
80
80
80
80
80
80
FE
00
00
00
00
ENDCHAR
STARTCHAR U+0527
ENCODING 1319
SWIDTH 500 0
DWIDTH 8 0
BBX 8 16 0 -2
BITMAP 
00
00
00
00
00
82
44
28
10
28
44
82
00
00
00
00
ENDCHAR
STARTCHAR U+0528
ENCODING 1320
SWIDTH 1000 0
DWIDTH 16 0
BBX 16 16 0 -2
BITMAP 
0000
FFFF
CF73
B66D
B76D
B76D
CE33
FFFF
FFFF
8433
BFAD
8433
F5ED
8433
FFFF
0000
ENDCHAR
STARTCHAR U+0529
ENCODING 1321
SWIDTH 1000 0
DWIDTH 16 0
BBX 16 16 0 -2
BITMAP 
0000
FFFF
CF73
B66D
B76D
B76D
CE33
FFFF
FFFF
8433
BFAD
8431
F5FD
8433
FFFF
0000
ENDCHAR
STARTCHAR U+052A
ENCODING 1322
SWIDTH 1000 0
DWIDTH 16 0
BBX 16 16 0 -2
BITMAP 
0000
FFFF
CF73
B66D
B76D
B76D
CE33
FFFF
FFFF
8421
BFAD
8421
F5ED
842D
FFFF
0000
ENDCHAR
STARTCHAR U+052B
ENCODING 1323
SWIDTH 1000 0
DWIDTH 16 0
BBX 16 16 0 -2
BITMAP 
0000
FFFF
CF73
B66D
B76D
B76D
CE33
FFFF
FFFF
8423
BFAD
8423
F5ED
8423
FFFF
0000
ENDCHAR
STARTCHAR U+052C
ENCODING 1324
SWIDTH 1000 0
DWIDTH 16 0
BBX 16 16 0 -2
BITMAP 
0000
FFFF
CF73
B66D
B76D
B76D
CE33
FFFF
FFFF
8431
BFAF
842F
F5EF
8431
FFFF
0000
ENDCHAR
STARTCHAR U+052D
ENCODING 1325
SWIDTH 1000 0
DWIDTH 16 0
BBX 16 16 0 -2
BITMAP 
0000
FFFF
CF73
B66D
B76D
B76D
CE33
FFFF
FFFF
8423
BFAD
842D
F5ED
8423
FFFF
0000
ENDCHAR
STARTCHAR U+052E
ENCODING 1326
SWIDTH 1000 0
DWIDTH 16 0
BBX 16 16 0 -2
BITMAP 
0000
FFFF
CF73
B66D
B76D
B76D
CE33
FFFF
FFFF
8421
BFAF
8423
F5EF
8421
FFFF
0000
ENDCHAR
STARTCHAR U+052F
ENCODING 1327
SWIDTH 1000 0
DWIDTH 16 0
BBX 16 16 0 -2
BITMAP 
0000
FFFF
CF73
B66D
B76D
B76D
CE33
FFFF
FFFF
8421
BFAF
8423
F5EF
842F
FFFF
0000
ENDCHAR
STARTCHAR U+0530
ENCODING 1328
SWIDTH 1000 0
DWIDTH 16 0
BBX 16 16 0 -2
BITMAP 
0000
0FC0
1CE0
3870
3870
1CE0
07C0
0100
0200
07F0
1C38
1818
0000
0000
0000
0000
ENDCHAR
STARTCHAR U+0531
ENCODING 1329
SWIDTH 1000 0
DWIDTH 16 0
BBX 16 16 0 -2
BITMAP 
0000
3800
3FF0
3830
3820
3800
3FC0
3C70
3838
3838
1C70
0FE0
0000
0000
0000
0000
ENDCHAR
STARTCHAR U+0532
ENCODING 1330
SWIDTH 1000 0
DWIDTH 16 0
BBX 16 16 0 -2
BITMAP 
0000
0FF0
1C38
3838
3800
3800
3800
1C00
0FC0
01C0
01C0
01C0
0000
0000
0000
0000
ENDCHAR
STARTCHAR U+0533
ENCODING 1331
SWIDTH 1000 0
DWIDTH 16 0
BBX 16 16 0 -2
BITMAP 
0000
07C0
1C70
3838
3838
3838
1C70
07C0
0380
0380
0380
0380
0000
0000
0000
0000
ENDCHAR
STARTCHAR U+0534
ENCODING 1332
SWIDTH 1000 0
DWIDTH 16 0
BBX 16 16 0 -2
BITMAP 
0000
01C0
01C0
01C0
01C0
01C0
01FE
61C6
E1C4
7380
7380
1E00
0000
0000
0000
0000
ENDCHAR
STARTCHAR U+0535
ENCODING 1333
SWIDTH 1000 0
DWIDTH 16 0
BBX 16 16 0 -2
BITMAP 
0000
0E00
0E00
0E00
0700
03C0
00F0
0070
1838
3838
1C70
0FE0
0000
0000
0000
0000
ENDCHAR
STARTCHAR U+0536
ENCODING 1334
SWIDTH 1000 0
DWIDTH 16 0
BBX 16 16 0 -2
BITMAP 
0000
3FF8
3818
3810
3800
3800
3800
3800
3800
3800
1C00
0FF8
0018
0010
0000
0000
ENDCHAR
STARTCHAR U+0537
ENCODING 1335
SWIDTH 1000 0
DWIDTH 16 0
BBX 16 16 0 -2
BITMAP 
0000
3F80
39C0
38E0
38E0
39C0
3F80
3800
3FF8
3818
3810
3800
3000
0000
0000
0000
ENDCHAR
STARTCHAR U+0538
ENCODING 1336
SWIDTH 1000 0
DWIDTH 16 0
BBX 16 16 0 -2
BITMAP 
0008
03F8
0F78
1C38
0E38
0038
0038
1838
3838
3838
1C70
0FE0
0000
0000
0000
0000
ENDCHAR
STARTCHAR U+0539
ENCODING 1337
SWIDTH 1000 0
DWIDTH 16 0
BBX 16 16 0 -2
BITMAP 
0000
E000
E000
E000
E000
E000
E000
E000
E180
EF8E
FB8E
F3DE
C0F8
0000
0000
0000
ENDCHAR
STARTCHAR U+053A
ENCODING 1338
SWIDTH 1000 0
DWIDTH 16 0
BBX 16 16 0 -2
BITMAP 
0000
1000
3000
3FF8
0038
0038
0038
0038
0038
0038
0038
0038
0038
0000
0000
0000
ENDCHAR
STARTCHAR U+053B
ENCODING 1339
SWIDTH 1000 0
DWIDTH 16 0
BBX 16 16 0 -2
BITMAP 
0000
0008
0018
0020
0040
0080
0100
0380
05C0
08E0
1070
3020
0000
0000
0000
0000
ENDCHAR
STARTCHAR U+053C
ENCODING 1340
SWIDTH 1000 0
DWIDTH 16 0
BBX 16 16 0 -2
BITMAP 
0000
3838
3838
3838
3838
1C38
0FF8
0038
0038
0038
0038
0038
0038
0000
0000
0000
ENDCHAR
STARTCHAR U+053D
ENCODING 1341
SWIDTH 1000 0
DWIDTH 16 0
BBX 16 16 0 -2
BITMAP 
0000
1800
3800
3800
3800
3800
3FC0
3C70
3838
3838
3C70
1FE0
0000
0000
0000
0000
ENDCHAR
STARTCHAR U+053E
ENCODING 1342
SWIDTH 1000 0
DWIDTH 16 0
BBX 16 16 0 -2
BITMAP 
0000
0FE0
1C70
3838
3838
3838
0038
0038
0038
0038
0038
0038
0000
0000
0000
0000
ENDCHAR
STARTCHAR U+053F
ENCODING 1343
SWIDTH 1000 0
DWIDTH 16 0
BBX 16 16 0 -2
BITMAP 
0000
0180
0380
0380
0380
0380
0380
0380
0380
1380
3380
3FF8
0018
0010
0000
0000
ENDCHAR
STARTCHAR U+0540
ENCODING 1344
SWIDTH 1000 0
DWIDTH 16 0
BBX 16 16 0 -2
BITMAP 
0000
0038
07F8
1E38
3C38
1E38
07F8
0038
0038
0038
0038
0038
0000
0000
0000
0000
ENDCHAR
STARTCHAR U+0541
ENCODING 1345
SWIDTH 1000 0
DWIDTH 16 0
BBX 16 16 0 -2
BITMAP 
0000
3000
3800
3800
3800
3FF0
3878
3838
3838
3800
3800
3800
0000
0000
0000
0000
ENDCHAR
STARTCHAR U+0542
ENCODING 1346
SWIDTH 1000 0
DWIDTH 16 0
BBX 16 16 0 -2
BITMAP 
0000
3F00
7380
E1C0
E1C0
7380
1F00
0400
0800
1F8E
738E
61DC
00F8
0000
0000
0000
ENDCHAR
STARTCHAR U+0543
ENCODING 1347
SWIDTH 1000 0
DWIDTH 16 0
BBX 16 16 0 -2
BITMAP 
0000
3800
3800
3800
3FE0
3870
3838
3838
3870
3800
3800
3800
1FF0
0030
0010
0000
ENDCHAR
STARTCHAR U+0544
ENCODING 1348
SWIDTH 1000 0
DWIDTH 16 0
BBX 16 16 0 -2
BITMAP 
0000
3FF8
3818
1C10
0E00
0700
0380
0700
0E00
1C00
3800
3FF8
0018
0010
0000
0000
ENDCHAR
STARTCHAR U+0545
ENCODING 1349
SWIDTH 1000 0
DWIDTH 16 0
BBX 16 16 0 -2
BITMAP 
0000
3FFE
71C6
E0E4
E0E0
E0E0
00E0
00E0
00E0
00E0
00E0
00E0
0000
0000
0000
0000
ENDCHAR
STARTCHAR U+0546
ENCODING 1350
SWIDTH 1000 0
DWIDTH 16 0
BBX 16 16 0 -2
BITMAP 
0000
03E0
0070
0070
0070
0078
0038
0030
00C0
0300
0C00
3000
3800
0000
0000
0000
ENDCHAR
STARTCHAR U+0547
ENCODING 1351
SWIDTH 1000 0
DWIDTH 16 0
BBX 16 16 0 -2
BITMAP 
0000
0018
0038
0038
1038
3038
3FF8
0038
0038
0038
0038
0030
0000
0000
0000
0000
ENDCHAR
STARTCHAR U+0548
ENCODING 1352
SWIDTH 1000 0
DWIDTH 16 0
BBX 16 16 0 -2
BITMAP 
0000
3800
3800
1F1C
071C
071C
071C
071C
071C
071C
071C
03B8
01F0
0000
0000
0000
ENDCHAR
STARTCHAR U+0549
ENCODING 1353
SWIDTH 1000 0
DWIDTH 16 0
BBX 16 16 0 -2
BITMAP 
0000
E380
E380
E380
E380
E380
E380
E380
E3FE
E380
E380
7700
3E00
0000
0000
0000
ENDCHAR
STARTCHAR U+054A
ENCODING 1354
SWIDTH 1000 0
DWIDTH 16 0
BBX 16 16 0 -2
BITMAP 
0000
0FC0
39C0
71C0
39C0
0FC0
01C0
1FFE
71C6
E1C0
7380
3F00
0000
0000
0000
0000
ENDCHAR
STARTCHAR U+054B
ENCODING 1355
SWIDTH 1000 0
DWIDTH 16 0
BBX 16 16 0 -2
BITMAP 
0000
0F00
1C00
3800
1C00
0FF8
0030
0060
0780
1C18
3838
3838
1C70
07C0
0000
0000
ENDCHAR
STARTCHAR U+054C
ENCODING 1356
SWIDTH 1000 0
DWIDTH 16 0
BBX 16 16 0 -2
BITMAP 
0000
1F80
7380
E380
E380
7380
1F80
0380
0380
4380
C380
FFFE
0006
0004
0000
0000
ENDCHAR
STARTCHAR U+054D
ENCODING 1357
SWIDTH 1000 0
DWIDTH 16 0
BBX 16 16 0 -2
BITMAP 
0000
0FE0
1C70
3838
3870
1CE0
0FC0
0380
0700
0E00
1C00
3C38
1FF8
0078
0000
0000
ENDCHAR
STARTCHAR U+054E
ENCODING 1358
SWIDTH 1000 0
DWIDTH 16 0
BBX 16 16 0 -2
BITMAP 
0000
3800
3800
1F38
0738
0738
03B8
01F8
0038
0038
0038
0038
0000
0000
0000
0000
ENDCHAR
STARTCHAR U+054F
ENCODING 1359
SWIDTH 1000 0
DWIDTH 16 0
BBX 16 16 0 -2
BITMAP 
0000
01C0
01C0
01C0
01C0
01C0
01FE
61C0
E1C0
7380
7380
1E00
0000
0000
0000
0000
ENDCHAR
STARTCHAR U+0550
ENCODING 1360
SWIDTH 1000 0
DWIDTH 16 0
BBX 16 16 0 -2
BITMAP 
2000
6000
7FC0
01C0
01C0
01C0
01C0
1FFE
71C6
E1C4
7380
3F00
0000
0000
0000
0000
ENDCHAR
STARTCHAR U+0551
ENCODING 1361
SWIDTH 1000 0
DWIDTH 16 0
BBX 16 16 0 -2
BITMAP 
0000
0780
1CE0
38E0
38E0
1CE0
07E0
00E0
00E0
00E8
00F0
00E0
0000
0000
0000
0000
ENDCHAR
STARTCHAR U+0552
ENCODING 1362
SWIDTH 1000 0
DWIDTH 16 0
BBX 16 16 0 -2
BITMAP 
0000
1F00
3180
71C0
E0E0
E0E0
E0FE
E0E6
E0E4
71C0
3180
1F00
0000
0000
0000
0000
ENDCHAR
STARTCHAR U+0553
ENCODING 1363
SWIDTH 1000 0
DWIDTH 16 0
BBX 16 16 0 -2
BITMAP 
1000
3000
3FE0
0060
00E0
01C0
0380
0700
0E00
1C00
3800
3FF8
0018
0010
0000
0000
ENDCHAR
STARTCHAR U+0554
ENCODING 1364
SWIDTH 1000 0
DWIDTH 16 0
BBX 16 16 0 -2
BITMAP 
4000
C000
FFFE
0386
0384
0380
0380
6380
E380
7700
7700
1C00
0000
0000
0000
0000
ENDCHAR
STARTCHAR U+0555
ENCODING 1365
SWIDTH 1000 0
DWIDTH 16 0
BBX 16 16 0 -2
BITMAP 
0000
0008
0018
0020
0040
0080
0100
0200
0798
0998
10F0
3000
0000
0000
0000
0000
ENDCHAR
STARTCHAR U+0556
ENCODING 1366
SWIDTH 1000 0
DWIDTH 16 0
BBX 16 16 0 -2
BITMAP 
2000
3000
3FE0
01C0
01C0
00E0
0070
0038
0038
1070
18E0
1FC0
0000
0000
0000
0000
ENDCHAR
STARTCHAR U+0557
ENCODING 1367
SWIDTH 1000 0
DWIDTH 16 0
BBX 16 16 0 -2
BITMAP 
0000
1F80
7380
E380
7380
1FFC
038E
0386
038E
039C
0380
0380
0000
0000
0000
0000
ENDCHAR
STARTCHAR U+0558
ENCODING 1368
SWIDTH 1000 0
DWIDTH 16 0
BBX 16 16 0 -2
BITMAP 
0000
00F8
1F98
1C10
0700
0380
01C0
00E0
18E0
38E0
1DC0
0700
0000
0000
0000
0000
ENDCHAR
STARTCHAR U+0559
ENCODING 1369
SWIDTH 1000 0
DWIDTH 16 0
BBX 16 16 0 -2
BITMAP 
0000
0380
0380
0380
0380
0380
0380
0380
E38E
E38E
77DC
1CF0
0000
0000
0000
0000
ENDCHAR
STARTCHAR U+055A
ENCODING 1370
SWIDTH 1000 0
DWIDTH 16 0
BBX 16 16 0 -2
BITMAP 
1000
3000
3FC0
01C0
0380
0380
03F0
07B8
0738
0738
0E38
0E38
0000
0000
0000
0000
ENDCHAR
STARTCHAR U+055B
ENCODING 1371
SWIDTH 1000 0
DWIDTH 16 0
BBX 16 16 0 -2
BITMAP 
0000
E000
E000
E000
E000
FF8E
E38E
E1DC
E070
E000
E000
E000
0000
0000
0000
0000
ENDCHAR
STARTCHAR U+055C
ENCODING 1372
SWIDTH 1000 0
DWIDTH 16 0
BBX 16 16 0 -2
BITMAP 
4000
C000
FF00
0700
0700
0700
0700
07F0
079C
470E
CF9C
FBF8
0000
0000
0000
0000
ENDCHAR
STARTCHAR U+055D
ENCODING 1373
SWIDTH 1000 0
DWIDTH 16 0
BBX 16 16 0 -2
BITMAP 
0000
07C0
0EE0
0EE0
05C0
0380
0F00
1CF0
3838
3838
1C70
07C0
0000
0000
0000
0000
ENDCHAR
STARTCHAR U+055E
ENCODING 1374
SWIDTH 1000 0
DWIDTH 16 0
BBX 16 16 0 -2
BITMAP 
0000
E000
E000
7C70
1C70
1C70
1C70
1C70
1C7E
1C76
1C74
0EE0
07C0
0000
0000
0000
ENDCHAR
STARTCHAR U+055F
ENCODING 1375
SWIDTH 1000 0
DWIDTH 16 0
BBX 16 16 0 -2
BITMAP 
0000
E3F8
E39C
E38E
E38E
738E
3F8E
0380
0380
0380
0380
0380
0000
0000
0000
0000
ENDCHAR
STARTCHAR U+0560
ENCODING 1376
SWIDTH 1000 0
DWIDTH 16 0
BBX 16 16 0 -2
BITMAP 
0000
3FFC
738E
E38E
E38E
0380
0380
0380
0380
0380
0380
0380
0000
0000
0000
0000
ENDCHAR
STARTCHAR U+0561
ENCODING 1377
SWIDTH 1000 0
DWIDTH 16 0
BBX 16 16 0 -2
BITMAP 
4000
C000
FF80
0380
0380
0380
0380
03FE
0386
0384
0380
0380
0000
0000
0000
0000
ENDCHAR
STARTCHAR U+0562
ENCODING 1378
SWIDTH 1000 0
DWIDTH 16 0
BBX 16 16 0 -2
BITMAP 
0000
3838
3838
3838
3838
3838
3838
1C70
07C0
0380
0380
0380
0000
0000
0000
0000
ENDCHAR
STARTCHAR U+0563
ENCODING 1379
SWIDTH 1000 0
DWIDTH 16 0
BBX 16 16 0 -2
BITMAP 
0000
0380
0380
0380
0380
0380
0380
0380
0380
1380
3380
3FF8
0398
0390
0300
0200
ENDCHAR
STARTCHAR U+0564
ENCODING 1380
SWIDTH 1000 0
DWIDTH 16 0
BBX 16 16 0 -2
BITMAP 
0000
FFFF
CF73
B66D
B76D
B76D
CE33
FFFF
FFFF
866D
BDED
8461
F5BD
867D
FFFF
0000
ENDCHAR
STARTCHAR U+0565
ENCODING 1381
SWIDTH 1000 0
DWIDTH 16 0
BBX 16 16 0 -2
BITMAP 
0000
FFFF
CF73
B66D
B76D
B76D
CE33
FFFF
FFFF
8661
BDEF
8461
F5BD
8661
FFFF
0000
ENDCHAR
STARTCHAR U+0566
ENCODING 1382
SWIDTH 1000 0
DWIDTH 16 0
BBX 16 16 0 -2
BITMAP 
0000
FFFF
CF73
B66D
B76D
B76D
CE33
FFFF
FFFF
8673
BDEF
8463
F5AD
8673
FFFF
0000
ENDCHAR
STARTCHAR U+0567
ENCODING 1383
SWIDTH 1000 0
DWIDTH 16 0
BBX 16 16 0 -2
BITMAP 
0000
FFFF
CF73
B66D
B76D
B76D
CE33
FFFF
FFFF
8661
BDFD
847B
F5B7
8677
FFFF
0000
ENDCHAR
STARTCHAR U+0568
ENCODING 1384
SWIDTH 1000 0
DWIDTH 16 0
BBX 16 16 0 -2
BITMAP 
0000
FFFF
CF73
B66D
B76D
B76D
CE33
FFFF
FFFF
8673
BDED
8473
F5AD
8673
FFFF
0000
ENDCHAR
STARTCHAR U+0569
ENCODING 1385
SWIDTH 1000 0
DWIDTH 16 0
BBX 16 16 0 -2
BITMAP 
0000
FFFF
CF73
B66D
B76D
B76D
CE33
FFFF
FFFF
8673
BDED
8471
F5BD
8673
FFFF
0000
ENDCHAR
STARTCHAR U+056A
ENCODING 1386
SWIDTH 1000 0
DWIDTH 16 0
BBX 16 16 0 -2
BITMAP 
0000
FFFF
CF73
B66D
B76D
B76D
CE33
FFFF
FFFF
8661
BDED
8461
F5AD
866D
FFFF
0000
ENDCHAR
STARTCHAR U+056B
ENCODING 1387
SWIDTH 1000 0
DWIDTH 16 0
BBX 16 16 0 -2
BITMAP 
0000
FFFF
CF73
B66D
B76D
B76D
CE33
FFFF
FFFF
8663
BDED
8463
F5AD
8663
FFFF
0000
ENDCHAR
STARTCHAR U+056C
ENCODING 1388
SWIDTH 1000 0
DWIDTH 16 0
BBX 16 16 0 -2
BITMAP 
0000
FFFF
CF73
B66D
B76D
B76D
CE33
FFFF
FFFF
8671
BDEF
846F
F5AF
8671
FFFF
0000
ENDCHAR
STARTCHAR U+056D
ENCODING 1389
SWIDTH 1000 0
DWIDTH 16 0
BBX 16 16 0 -2
BITMAP 
0000
FFFF
CF73
B66D
B76D
B76D
CE33
FFFF
FFFF
8663
BDED
846D
F5AD
8663
FFFF
0000
ENDCHAR
STARTCHAR U+056E
ENCODING 1390
SWIDTH 1000 0
DWIDTH 16 0
BBX 16 16 0 -2
BITMAP 
0000
FFFF
CF73
B66D
B76D
B76D
CE33
FFFF
FFFF
8661
BDEF
8463
F5AF
8661
FFFF
0000
ENDCHAR
STARTCHAR U+056F
ENCODING 1391
SWIDTH 500 0
DWIDTH 8 0
BBX 8 16 0 -2
BITMAP 
00
00
00
38
70
38
0E
0E
1C
38
60
00
00
00
00
00
ENDCHAR
STARTCHAR U+0737
ENCODING 1847
SWIDTH 1000 0
DWIDTH 16 0
BBX 16 16 0 -2
BITMAP 
0000
FFFF
CF73
B66D
B76D
B76D
CE33
FFFF
FFFF
8461
F7BD
EE3B
DFB7
DC77
FFFF
0000
ENDCHAR
STARTCHAR U+0738
ENCODING 1848
SWIDTH 1000 0
DWIDTH 16 0
BBX 16 16 0 -2
BITMAP 
0000
FFFF
CF73
B66D
B76D
B76D
CE33
FFFF
FFFF
8473
F7AD
EE33
DFAD
DC73
FFFF
0000
ENDCHAR
STARTCHAR U+0739
ENCODING 1849
SWIDTH 1000 0
DWIDTH 16 0
BBX 16 16 0 -2
BITMAP 
0000
FFFF
CF73
B66D
B76D
B76D
CE33
FFFF
FFFF
8473
F7AD
EE31
DFBD
DC73
FFFF
0000
ENDCHAR
STARTCHAR U+073A
ENCODING 1850
SWIDTH 1000 0
DWIDTH 16 0
BBX 16 16 0 -2
BITMAP 
0000
FFFF
CF73
B66D
B76D
B76D
CE33
FFFF
FFFF
8461
F7AD
EE21
DFAD
DC6D
FFFF
0000
ENDCHAR
STARTCHAR U+073B
ENCODING 1851
SWIDTH 1000 0
DWIDTH 16 0
BBX 16 16 0 -2
BITMAP 
0000
FFFF
CF73
B66D
B76D
B76D
CE33
FFFF
FFFF
8463
F7AD
EE23
DFAD
DC63
FFFF
0000
ENDCHAR
STARTCHAR U+073C
ENCODING 1852
SWIDTH 1000 0
DWIDTH 16 0
BBX 16 16 0 -2
BITMAP 
0000
FFFF
CF73
B66D
B76D
B76D
CE33
FFFF
FFFF
8471
F7AF
EE2F
DFAF
DC71
FFFF
0000
ENDCHAR
STARTCHAR U+073D
ENCODING 1853
SWIDTH 1000 0
DWIDTH 16 0
BBX 16 16 0 -2
BITMAP 
0000
FFFF
CF73
B66D
B76D
B76D
CE33
FFFF
FFFF
8463
F7AD
EE2D
DFAD
DC63
FFFF
0000
ENDCHAR
STARTCHAR U+073E
ENCODING 1854
SWIDTH 1000 0
DWIDTH 16 0
BBX 16 16 0 -2
BITMAP 
0000
FFFF
CF73
B66D
B76D
B76D
CE33
FFFF
FFFF
8461
F7AF
EE23
DFAF
DC61
FFFF
0000
ENDCHAR
STARTCHAR U+073F
ENCODING 1855
SWIDTH 1000 0
DWIDTH 16 0
BBX 16 16 0 -2
BITMAP 
0000
FFFF
CF73
B66D
B76D
B76D
CE33
FFFF
FFFF
8461
F7AF
EE23
DFAF
DC6F
FFFF
0000
ENDCHAR
STARTCHAR U+0756
ENCODING 1878
SWIDTH 1000 0
DWIDTH 16 0
BBX 16 16 0 -2
BITMAP 
0000
FFFF
CF73
B66D
B76D
B76D
CE33
FFFF
FFFF
8433
F5EF
EC23
DFAD
DC33
FFFF
0000
ENDCHAR
STARTCHAR U+0757
ENCODING 1879
SWIDTH 1000 0
DWIDTH 16 0
BBX 16 16 0 -2
BITMAP 
0000
FFFF
CF73
B66D
B76D
B76D
CE33
FFFF
FFFF
8421
F5FD
EC3B
DFB7
DC37
FFFF
0000
ENDCHAR
STARTCHAR U+0758
ENCODING 1880
SWIDTH 1000 0
DWIDTH 16 0
BBX 16 16 0 -2
BITMAP 
0000
FFFF
CF73
B66D
B76D
B76D
CE33
FFFF
FFFF
8433
F5ED
EC33
DFAD
DC33
FFFF
0000
ENDCHAR
STARTCHAR U+0759
ENCODING 1881
SWIDTH 1000 0
DWIDTH 16 0
BBX 16 16 0 -2
BITMAP 
0000
FFFF
CF73
B66D
B76D
B76D
CE33
FFFF
FFFF
8433
F5ED
EC31
DFBD
DC33
FFFF
0000
ENDCHAR
STARTCHAR U+075A
ENCODING 1882
SWIDTH 1000 0
DWIDTH 16 0
BBX 16 16 0 -2
BITMAP 
0000
FFFF
CF73
B66D
B76D
B76D
CE33
FFFF
FFFF
8421
F5ED
EC21
DFAD
DC2D
FFFF
0000
ENDCHAR
STARTCHAR U+075B
ENCODING 1883
SWIDTH 1000 0
DWIDTH 16 0
BBX 16 16 0 -2
BITMAP 
0000
FFFF
CF73
B66D
B76D
B76D
CE33
FFFF
FFFF
8423
F5ED
EC23
DFAD
DC23
FFFF
0000
ENDCHAR
STARTCHAR U+075C
ENCODING 1884
SWIDTH 1000 0
DWIDTH 16 0
BBX 16 16 0 -2
BITMAP 
0000
FFFF
CF73
B66D
B76D
B76D
CE33
FFFF
FFFF
8431
F5EF
EC2F
DFAF
DC31
FFFF
0000
ENDCHAR
STARTCHAR U+075D
ENCODING 1885
SWIDTH 1000 0
DWIDTH 16 0
BBX 16 16 0 -2
BITMAP 
0000
FFFF
CF73
B66D
B76D
B76D
CE33
FFFF
FFFF
8423
F5ED
EC2D
DFAD
DC23
FFFF
0000
ENDCHAR
STARTCHAR U+075E
ENCODING 1886
SWIDTH 1000 0
DWIDTH 16 0
BBX 16 16 0 -2
BITMAP 
0000
FFFF
CF73
B66D
B76D
B76D
CE33
FFFF
FFFF
8421
F5EF
EC23
DFAF
DC21
FFFF
0000
ENDCHAR
STARTCHAR U+075F
ENCODING 1887
SWIDTH 1000 0
DWIDTH 16 0
BBX 16 16 0 -2
BITMAP 
0000
FFFF
CF73
B66D
B76D
B76D
CE33
FFFF
FFFF
8421
F5EF
EC23
DFAF
DC2F
FFFF
0000
ENDCHAR
STARTCHAR U+0768
ENCODING 1896
SWIDTH 1000 0
DWIDTH 16 0
BBX 16 16 0 -2
BITMAP 
0000
FFFF
CF73
B66D
B76D
B76D
CE33
FFFF
FFFF
8673
F5ED
EC73
DDAD
DE73
FFFF
0000
ENDCHAR
STARTCHAR U+0769
ENCODING 1897
SWIDTH 1000 0
DWIDTH 16 0
BBX 16 16 0 -2
BITMAP 
0000
FFFF
CF73
B66D
B76D
B76D
CE33
FFFF
FFFF
8673
F5ED
EC71
DDBD
DE73
FFFF
0000
ENDCHAR
STARTCHAR U+076A
ENCODING 1898
SWIDTH 1000 0
DWIDTH 16 0
BBX 16 16 0 -2
BITMAP 
0000
FFFF
CF73
B66D
B76D
B76D
CE33
FFFF
FFFF
8661
F5ED
EC61
DDAD
DE6D
FFFF
0000
ENDCHAR
STARTCHAR U+076B
ENCODING 1899
SWIDTH 1000 0
DWIDTH 16 0
BBX 16 16 0 -2
BITMAP 
0000
FFFF
CF73
B66D
B76D
B76D
CE33
FFFF
FFFF
8663
F5ED
EC63
DDAD
DE63
FFFF
0000
ENDCHAR
STARTCHAR U+076C
ENCODING 1900
SWIDTH 1000 0
DWIDTH 16 0
BBX 16 16 0 -2
BITMAP 
0000
FFFF
CF73
B66D
B76D
B76D
CE33
FFFF
FFFF
8671
F5EF
EC6F
DDAF
DE71
FFFF
0000
ENDCHAR
STARTCHAR U+076D
ENCODING 1901
SWIDTH 1000 0
DWIDTH 16 0
BBX 16 16 0 -2
BITMAP 
0000
FFFF
CF73
B66D
B76D
B76D
CE33
FFFF
FFFF
8663
F5ED
EC6D
DDAD
DE63
FFFF
0000
ENDCHAR
STARTCHAR U+076E
ENCODING 1902
SWIDTH 1000 0
DWIDTH 16 0
BBX 16 16 0 -2
BITMAP 
0000
FFFF
CF73
B66D
B76D
B76D
CE33
FFFF
FFFF
8661
F5EF
EC63
DDAF
DE61
FFFF
0000
ENDCHAR
STARTCHAR U+076F
ENCODING 1903
SWIDTH 1000 0
DWIDTH 16 0
BBX 16 16 0 -2
BITMAP 
0000
FFFF
CF73
B66D
B76D
B76D
CE33
FFFF
FFFF
8661
F5EF
EC63
DDAF
DE6F
FFFF
0000
ENDCHAR
STARTCHAR U+0770
ENCODING 1904
SWIDTH 1000 0
DWIDTH 16 0
BBX 16 16 0 -2
BITMAP 
0000
FFFF
CF73
B66D
B76D
B76D
CE33
FFFF
FFFF
8433
F7AD
EF6D
DEED
DEF3
FFFF
0000
ENDCHAR
STARTCHAR U+0771
ENCODING 1905
SWIDTH 1000 0
DWIDTH 16 0
BBX 16 16 0 -2
BITMAP 
0000
FFFF
CF73
B66D
B76D
B76D
CE33
FFFF
FFFF
843B
F7B3
EF7B
DEFB
DEF1
FFFF
0000
ENDCHAR
STARTCHAR U+0772
ENCODING 1906
SWIDTH 1000 0
DWIDTH 16 0
BBX 16 16 0 -2
BITMAP 
0000
FFFF
CF73
B66D
B76D
B76D
CE33
FFFF
FFFF
8421
F7BD
EF61
DEEF
DEE1
FFFF
0000
ENDCHAR
STARTCHAR U+0773
ENCODING 1907
SWIDTH 1000 0
DWIDTH 16 0
BBX 16 16 0 -2
BITMAP 
0000
FFFF
CF73
B66D
B76D
B76D
CE33
FFFF
FFFF
8423
F7BD
EF71
DEFD
DEE3
FFFF
0000
ENDCHAR
STARTCHAR U+0774
ENCODING 1908
SWIDTH 1000 0
DWIDTH 16 0
BBX 16 16 0 -2
BITMAP 
0000
FFFF
CF73
B66D
B76D
B76D
CE33
FFFF
FFFF
842D
F7AD
EF61
DEFD
DEFD
FFFF
0000
ENDCHAR
STARTCHAR U+0775
ENCODING 1909
SWIDTH 1000 0
DWIDTH 16 0
BBX 16 16 0 -2
BITMAP 
0000
FFFF
CF73
B66D
B76D
B76D
CE33
FFFF
FFFF
8421
F7AF
EF61
DEFD
DEE1
FFFF
0000
ENDCHAR
STARTCHAR U+0776
ENCODING 1910
SWIDTH 1000 0
DWIDTH 16 0
BBX 16 16 0 -2
BITMAP 
0000
FFFF
CF73
B66D
B76D
B76D
CE33
FFFF
FFFF
8433
F7AF
EF63
DEED
DEF3
FFFF
0000
ENDCHAR
STARTCHAR U+0777
ENCODING 1911
SWIDTH 1000 0
DWIDTH 16 0
BBX 16 16 0 -2
BITMAP 
0000
FFFF
CF73
B66D
B76D
B76D
CE33
FFFF
FFFF
8421
F7BD
EF7B
DEF7
DEF7
FFFF
0000
ENDCHAR
STARTCHAR U+0778
ENCODING 1912
SWIDTH 1000 0
DWIDTH 16 0
BBX 16 16 0 -2
BITMAP 
0000
FFFF
CF73
B66D
B76D
B76D
CE33
FFFF
FFFF
8433
F7AD
EF73
DEED
DEF3
FFFF
0000
ENDCHAR
STARTCHAR U+0779
ENCODING 1913
SWIDTH 1000 0
DWIDTH 16 0
BBX 16 16 0 -2
BITMAP 
0000
FFFF
CF73
B66D
B76D
B76D
CE33
FFFF
FFFF
8433
F7AD
EF71
DEFD
DEF3
FFFF
0000
ENDCHAR
STARTCHAR U+077A
ENCODING 1914
SWIDTH 1000 0
DWIDTH 16 0
BBX 16 16 0 -2
BITMAP 
0000
FFFF
CF73
B66D
B76D
B76D
CE33
FFFF
FFFF
8421
F7AD
EF61
DEED
DEED
FFFF
0000
ENDCHAR
STARTCHAR U+077B
ENCODING 1915
SWIDTH 1000 0
DWIDTH 16 0
BBX 16 16 0 -2
BITMAP 
0000
FFFF
CF73
B66D
B76D
B76D
CE33
FFFF
FFFF
8423
F7AD
EF63
DEED
DEE3
FFFF
0000
ENDCHAR
STARTCHAR U+077C
ENCODING 1916
SWIDTH 1000 0
DWIDTH 16 0
BBX 16 16 0 -2
BITMAP 
0000
FFFF
CF73
B66D
B76D
B76D
CE33
FFFF
FFFF
8431
F7AF
EF6F
DEEF
DEF1
FFFF
0000
ENDCHAR
STARTCHAR U+077D
ENCODING 1917
SWIDTH 1000 0
DWIDTH 16 0
BBX 16 16 0 -2
BITMAP 
0000
FFFF
CF73
B66D
B76D
B76D
CE33
FFFF
FFFF
8423
F7AD
EF6D
DEED
DEE3
FFFF
0000
ENDCHAR
STARTCHAR U+077E
ENCODING 1918
SWIDTH 1000 0
DWIDTH 16 0
BBX 16 16 0 -2
BITMAP 
0000
FFFF
CF73
B66D
B76D
B76D
CE33
FFFF
FFFF
8421
F7AF
EF63
DEEF
DEE1
FFFF
0000
ENDCHAR
STARTCHAR U+077F
ENCODING 1919
SWIDTH 1000 0
DWIDTH 16 0
BBX 16 16 0 -2
BITMAP 
0000
FFFF
CF73
B66D
B76D
B76D
CE33
FFFF
FFFF
8421
F7AF
EF63
DEEF
DEEF
FFFF
0000
ENDCHAR
STARTCHAR U+0800
ENCODING 2048
SWIDTH 1000 0
DWIDTH 16 0
BBX 16 16 0 -2
BITMAP 
0000
0000
0000
2108
1110
0920
0540
0380
0100
0380
0540
0920
1110
2108
0000
0000
ENDCHAR
STARTCHAR U+0801
ENCODING 2049
SWIDTH 1000 0
DWIDTH 16 0
BBX 16 16 0 -2
BITMAP 
0000
0000
0000
2108
1110
0920
0578
0380
0100
0380
0540
0920
1110
2108
0000
0000
ENDCHAR
STARTCHAR U+0802
ENCODING 2050
SWIDTH 1000 0
DWIDTH 16 0
BBX 16 16 0 -2
BITMAP 
0000
0000
0000
2108
1110
0920
0540
0380
0100
0280
0440
0820
1010
2008
0000
0000
ENDCHAR
STARTCHAR U+0803
ENCODING 2051
SWIDTH 500 0
DWIDTH 8 0
BBX 8 16 0 -2
BITMAP 
00
00
00
00
00
00
44
28
10
00
44
28
10
7C
00
00
ENDCHAR
STARTCHAR U+0804
ENCODING 2052
SWIDTH 1000 0
DWIDTH 16 0
BBX 16 16 0 -2
BITMAP 
0000
0000
0000
0440
0AA0
1110
0100
0100
0100
0100
0100
0100
0100
0100
0000
0000
ENDCHAR
STARTCHAR U+0805
ENCODING 2053
SWIDTH 500 0
DWIDTH 8 0
BBX 8 16 0 -2
BITMAP 
00
00
00
1C
22
22
22
22
22
22
22
22
14
08
00
00
ENDCHAR
STARTCHAR U+0806
ENCODING 2054
SWIDTH 1000 0
DWIDTH 16 0
BBX 16 16 0 -2
BITMAP 
0000
FFFF
CF73
B66D
B76D
B76D
CE33
FFFF
FFFF
CE73
B5AF
CDA3
B5AD
CE73
FFFF
0000
ENDCHAR
STARTCHAR U+0807
ENCODING 2055
SWIDTH 1000 0
DWIDTH 16 0
BBX 16 16 0 -2
BITMAP 
0000
FFFF
CF73
B66D
B76D
B76D
CE33
FFFF
FFFF
CE61
B5BD
CDBB
B5B7
CE77
FFFF
0000
ENDCHAR
STARTCHAR U+0808
ENCODING 2056
SWIDTH 1000 0
DWIDTH 16 0
BBX 16 16 0 -2
BITMAP 
0000
0000
0000
0000
0000
0000
0000
0000
0000
4104
2288
1450
0820
01FC
0000
0000
ENDCHAR
STARTCHAR U+0809
ENCODING 2057
SWIDTH 1000 0
DWIDTH 16 0
BBX 16 16 0 -2
BITMAP 
0000
FFFF
CF73
B66D
B76D
B76D
CE33
FFFF
FFFF
CE73
B5AD
CDB1
B5BD
CE73
FFFF
0000
ENDCHAR
STARTCHAR U+080A
ENCODING 2058
SWIDTH 500 0
DWIDTH 8 0
BBX 8 16 0 -2
BITMAP 
00
00
00
08
1C
2A
49
08
08
08
08
08
08
3E
00
00
ENDCHAR
STARTCHAR U+080B
ENCODING 2059
SWIDTH 1000 0
DWIDTH 16 0
BBX 16 16 0 -2
BITMAP 
0000
0000
0000
0040
0020
0010
0208
0110
00A0
1040
0880
0500
0200
0500
0880
0000
ENDCHAR
STARTCHAR U+080C
ENCODING 2060
SWIDTH 1000 0
DWIDTH 16 0
BBX 16 16 0 -2
BITMAP 
0000
0000
0000
0F80
0000
0880
0540
0220
0200
0200
0200
0200
0200
0200
0000
0000
ENDCHAR
STARTCHAR U+080D
ENCODING 2061
SWIDTH 1000 0
DWIDTH 16 0
BBX 16 16 0 -2
BITMAP 
0000
0000
0000
0FE0
0820
0820
0820
0820
1010
1010
1010
1010
1010
1010
0000
0000
ENDCHAR
STARTCHAR U+080E
ENCODING 2062
SWIDTH 1000 0
DWIDTH 16 0
BBX 16 16 0 -2
BITMAP 
0000
0000
0000
2448
1290
0920
0440
0280
0100
0380
0540
0920
1110
2108
0000
0000
ENDCHAR
STARTCHAR U+080F
ENCODING 2063
SWIDTH 1000 0
DWIDTH 16 0
BBX 16 16 0 -2
BITMAP 
0000
0000
0000
0000
0000
0000
0000
0000
2020
1050
0888
0500
0200
3FE0
0000
0000
ENDCHAR
STARTCHAR U+0810
ENCODING 2064
SWIDTH 500 0
DWIDTH 8 0
BBX 8 16 0 -2
BITMAP 
00
00
00
18
24
24
24
24
18
24
24
24
24
18
00
00
ENDCHAR
STARTCHAR U+0811
ENCODING 2065
SWIDTH 1000 0
DWIDTH 16 0
BBX 16 16 0 -2
BITMAP 
0000
0000
0000
0000
0020
0040
0080
0100
0200
0400
0FF0
0000
0000
0FF0
0000
0000
ENDCHAR
STARTCHAR U+0812
ENCODING 2066
SWIDTH 500 0
DWIDTH 8 0
BBX 8 16 0 -2
BITMAP 
00
00
00
08
08
08
08
08
3E
08
08
08
08
08
00
00
ENDCHAR
STARTCHAR U+0813
ENCODING 2067
SWIDTH 1000 0
DWIDTH 16 0
BBX 16 16 0 -2
BITMAP 
0000
0000
0000
07C0
0820
1010
1010
2008
2008
2448
2448
2448
2448
2388
0000
0000
ENDCHAR
STARTCHAR U+0814
ENCODING 2068
SWIDTH 1000 0
DWIDTH 16 0
BBX 16 16 0 -2
BITMAP 
0000
0000
0000
4824
2448
1290
0920
0440
0280
0440
0820
1010
2008
4004
0000
0000
ENDCHAR
STARTCHAR U+0815
ENCODING 2069
SWIDTH 1000 0
DWIDTH 16 0
BBX 16 16 0 -2
BITMAP 
0000
0000
0000
2008
1010
0820
0440
0280
0100
0280
0440
0920
1110
2108
00C0
0000
ENDCHAR
STARTCHAR U+0816
ENCODING 2070
SWIDTH 1000 0
DWIDTH 16 0
BBX 16 16 0 -2
BITMAP 
0000
0000
0000
0000
0000
0000
0000
1010
2828
4444
0280
0100
1FF0
0000
0000
0000
ENDCHAR
STARTCHAR U+0817
ENCODING 2071
SWIDTH 1000 0
DWIDTH 16 0
BBX 16 16 0 -2
BITMAP 
0000
0000
0000
0000
0000
0000
0000
07C0
1930
2108
2108
2108
1930
07C0
0000
0000
ENDCHAR
STARTCHAR U+0818
ENCODING 2072
SWIDTH 1000 0
DWIDTH 16 0
BBX 16 16 0 -2
BITMAP 
0000
0000
0000
2008
1010
0820
2448
2288
2108
2288
2448
0820
1010
2008
0000
0000
ENDCHAR
STARTCHAR U+0819
ENCODING 2073
SWIDTH 500 0
DWIDTH 8 0
BBX 8 16 0 -2
BITMAP 
00
00
00
7F
00
7F
08
08
08
08
08
08
08
08
00
00
ENDCHAR
STARTCHAR U+081A
ENCODING 2074
SWIDTH 1000 0
DWIDTH 16 0
BBX 16 16 0 -2
BITMAP 
0000
0000
0000
0080
0100
2208
2408
2208
2108
2088
2048
2088
0100
0200
0000
0000
ENDCHAR
STARTCHAR U+081B
ENCODING 2075
SWIDTH 1000 0
DWIDTH 16 0
BBX 16 16 0 -2
BITMAP 
0000
0000
0000
0000
0040
0020
0010
0208
0110
00A0
1040
0880
0500
0200
3FF8
0000
ENDCHAR
STARTCHAR U+081C
ENCODING 2076
SWIDTH 1000 0
DWIDTH 16 0
BBX 16 16 0 -2
BITMAP 
0000
0000
0000
0000
0100
0080
0040
0080
0110
0228
0444
0880
1100
2200
0000
0000
ENDCHAR
STARTCHAR U+081D
ENCODING 2077
SWIDTH 1000 0
DWIDTH 16 0
BBX 16 16 0 -2
BITMAP 
0000
0000
0000
2020
1020
0820
0420
0200
0100
0200
0420
0820
1020
2020
0000
0000
ENDCHAR
STARTCHAR U+081E
ENCODING 2078
SWIDTH 500 0
DWIDTH 8 0
BBX 8 16 0 -2
BITMAP 
00
00
00
08
08
08
08
3E
08
08
3E
08
08
08
00
00
ENDCHAR
STARTCHAR U+081F
ENCODING 2079
SWIDTH 1000 0
DWIDTH 16 0
BBX 16 16 0 -2
BITMAP 
0000
0000
0000
0080
0100
0200
0400
0200
0100
0080
0040
0080
0100
0200
0000
0000
ENDCHAR
STARTCHAR U+0820
ENCODING 2080
SWIDTH 500 0
DWIDTH 8 0
BBX 8 16 0 -2
BITMAP 
00
00
00
00
00
44
28
10
00
44
28
10
00
00
00
00
ENDCHAR
STARTCHAR U+0821
ENCODING 2081
SWIDTH 1000 0
DWIDTH 16 0
BBX 16 16 0 -2
BITMAP 
0000
0000
0000
00E0
0110
0100
00C0
0040
0080
0100
0200
0400
0800
1000
0000
0000
ENDCHAR
STARTCHAR U+0822
ENCODING 2082
SWIDTH 1000 0
DWIDTH 16 0
BBX 16 16 0 -2
BITMAP 
0000
0000
0000
0440
0820
1010
2108
1110
0920
0540
0380
0100
7FFC
0000
0000
0000
ENDCHAR
STARTCHAR U+0823
ENCODING 2083
SWIDTH 500 0
DWIDTH 8 0
BBX 8 16 0 -2
BITMAP 
00
00
00
1C
22
22
22
22
22
22
22
22
14
7F
00
00
ENDCHAR
STARTCHAR U+0824
ENCODING 2084
SWIDTH 500 0
DWIDTH 8 0
BBX 8 16 0 -2
BITMAP 
00
00
00
00
00
08
14
22
41
00
14
14
14
14
00
00
ENDCHAR
STARTCHAR U+0825
ENCODING 2085
SWIDTH 1000 0
DWIDTH 16 0
BBX 16 16 0 -2
BITMAP 
0000
0000
0000
0000
0040
0020
0010
0208
0110
00A0
1040
0880
0500
0200
0000
0000
ENDCHAR
STARTCHAR U+0826
ENCODING 2086
SWIDTH 500 0
DWIDTH 8 0
BBX 8 16 0 -2
BITMAP 
00
00
00
1C
22
22
22
14
08
08
14
14
22
22
00
00
ENDCHAR
STARTCHAR U+0827
ENCODING 2087
SWIDTH 1000 0
DWIDTH 16 0
BBX 16 16 0 -2
BITMAP 
0000
0000
0000
2008
1010
0820
0820
0440
0440
0440
0820
0920
1090
2048
0000
0000
ENDCHAR
STARTCHAR U+0828
ENCODING 2088
SWIDTH 500 0
DWIDTH 8 0
BBX 8 16 0 -2
BITMAP 
00
00
00
41
41
41
41
22
22
22
14
14
14
08
00
00
ENDCHAR
STARTCHAR U+0829
ENCODING 2089
SWIDTH 500 0
DWIDTH 8 0
BBX 8 16 0 -2
BITMAP 
00
00
00
49
49
49
49
7F
40
40
40
40
40
40
00
00
ENDCHAR
STARTCHAR U+082A
ENCODING 2090
SWIDTH 500 0
DWIDTH 8 0
BBX 8 16 0 -2
BITMAP 
00
00
00
08
14
22
49
08
08
08
08
0E
00
3F
00
00
ENDCHAR
STARTCHAR U+082B
ENCODING 2091
SWIDTH 500 0
DWIDTH 8 0
BBX 8 16 0 -2
BITMAP 
00
00
00
00
00
44
28
10
44
28
10
7C
00
7C
00
00
ENDCHAR
STARTCHAR U+082C
ENCODING 2092
SWIDTH 1000 0
DWIDTH 16 0
BBX 16 16 0 -2
BITMAP 
0000
0000
0000
2020
1020
0820
08F8
0420
0450
0450
0888
0888
1104
2104
0000
0000
ENDCHAR
STARTCHAR U+082D
ENCODING 2093
SWIDTH 500 0
DWIDTH 8 0
BBX 8 16 0 -2
BITMAP 
00
00
00
20
20
20
20
20
3E
20
20
20
20
20
00
00
ENDCHAR
STARTCHAR U+082E
ENCODING 2094
SWIDTH 500 0
DWIDTH 8 0
BBX 8 16 0 -2
BITMAP 
00
00
00
00
00
00
00
08
08
49
2A
1C
08
7F
00
00
ENDCHAR
STARTCHAR U+082F
ENCODING 2095
SWIDTH 500 0
DWIDTH 8 0
BBX 8 16 0 -2
BITMAP 
00
00
00
08
1C
2A
49
08
08
08
08
08
08
08
00
00
ENDCHAR
STARTCHAR U+0830
ENCODING 2096
SWIDTH 500 0
DWIDTH 8 0
BBX 8 16 0 -2
BITMAP 
00
00
00
7F
10
10
10
1E
10
10
10
10
10
10
00
00
ENDCHAR
STARTCHAR U+0831
ENCODING 2097
SWIDTH 500 0
DWIDTH 8 0
BBX 8 16 0 -2
BITMAP 
00
00
00
7F
20
20
20
3E
20
2A
2A
2A
2A
2A
00
00
ENDCHAR
STARTCHAR U+0832
ENCODING 2098
SWIDTH 1000 0
DWIDTH 16 0
BBX 16 16 0 -2
BITMAP 
0000
0000
0000
4004
2008
1010
0820
0440
0280
0440
0920
1290
2448
4824
0000
0000
ENDCHAR
STARTCHAR U+0833
ENCODING 2099
SWIDTH 500 0
DWIDTH 8 0
BBX 8 16 0 -2
BITMAP 
00
00
00
7F
08
08
08
08
08
08
08
08
08
7F
00
00
ENDCHAR
STARTCHAR U+0834
ENCODING 2100
SWIDTH 1000 0
DWIDTH 16 0
BBX 16 16 0 -2
BITMAP 
0000
0000
0000
4104
2108
1110
0920
0440
0280
0440
0820
1010
2008
4004
0000
0000
ENDCHAR
STARTCHAR U+0835
ENCODING 2101
SWIDTH 500 0
DWIDTH 8 0
BBX 8 16 0 -2
BITMAP 
00
00
00
08
14
22
41
08
08
08
08
08
08
70
00
00
ENDCHAR
STARTCHAR U+0836
ENCODING 2102
SWIDTH 1000 0
DWIDTH 16 0
BBX 16 16 0 -2
BITMAP 
0000
FFFF
CF73
B66D
B76D
B76D
CE33
FFFF
FFFF
CC73
B7AF
CE23
B7AD
CC73
FFFF
0000
ENDCHAR
STARTCHAR U+0837
ENCODING 2103
SWIDTH 1000 0
DWIDTH 16 0
BBX 16 16 0 -2
BITMAP 
0000
0000
0000
2010
1020
0840
0840
0480
0480
0480
0840
0840
1020
2010
0000
0000
ENDCHAR
STARTCHAR U+0838
ENCODING 2104
SWIDTH 500 0
DWIDTH 8 0
BBX 8 16 0 -2
BITMAP 
00
00
00
09
11
21
21
41
4F
41
21
21
11
09
00
00
ENDCHAR
STARTCHAR U+0839
ENCODING 2105
SWIDTH 1000 0
DWIDTH 16 0
BBX 16 16 0 -2
BITMAP 
0000
FFFF
CF73
B66D
B76D
B76D
CE33
FFFF
FFFF
CC73
B7AD
CE31
B7BD
CC73
FFFF
0000
ENDCHAR
STARTCHAR U+083A
ENCODING 2106
SWIDTH 1000 0
DWIDTH 16 0
BBX 16 16 0 -2
BITMAP 
0000
FFFF
CF73
B66D
B76D
B76D
CE33
FFFF
FFFF
CC61
B7AD
CE21
B7AD
CC6D
FFFF
0000
ENDCHAR
STARTCHAR U+083B
ENCODING 2107
SWIDTH 1000 0
DWIDTH 16 0
BBX 16 16 0 -2
BITMAP 
0000
FFFF
CF73
B66D
B76D
B76D
CE33
FFFF
FFFF
CC63
B7AD
CE23
B7AD
CC63
FFFF
0000
ENDCHAR
STARTCHAR U+083C
ENCODING 2108
SWIDTH 1000 0
DWIDTH 16 0
BBX 16 16 0 -2
BITMAP 
0000
0000
0100
4084
2448
1210
0920
0440
0280
0440
0820
1010
2008
4004
0000
0000
ENDCHAR
STARTCHAR U+083D
ENCODING 2109
SWIDTH 1000 0
DWIDTH 16 0
BBX 16 16 0 -2
BITMAP 
0000
FFFF
CF73
B66D
B76D
B76D
CE33
FFFF
FFFF
CC63
B7AD
CE2D
B7AD
CC63
FFFF
0000
ENDCHAR
STARTCHAR U+083E
ENCODING 2110
SWIDTH 1000 0
DWIDTH 16 0
BBX 16 16 0 -2
BITMAP 
0000
FFFF
CF73
B66D
B76D
B76D
CE33
FFFF
FFFF
CC61
B7AF
CE23
B7AF
CC61
FFFF
0000
ENDCHAR
STARTCHAR U+083F
ENCODING 2111
SWIDTH 1000 0
DWIDTH 16 0
BBX 16 16 0 -2
BITMAP 
0000
0000
0000
0210
0420
0840
1080
0840
0420
0210
0108
0210
0420
0840
0000
0000
ENDCHAR
STARTCHAR U+0840
ENCODING 2112
SWIDTH 500 0
DWIDTH 8 0
BBX 8 16 0 -2
BITMAP 
00
00
00
00
00
00
04
64
58
50
68
08
04
04
00
00
ENDCHAR
STARTCHAR U+0841
ENCODING 2113
SWIDTH 500 0
DWIDTH 8 0
BBX 8 16 0 -2
BITMAP 
00
00
00
00
00
00
20
3C
02
02
04
04
08
30
00
00
ENDCHAR
STARTCHAR U+0842
ENCODING 2114
SWIDTH 500 0
DWIDTH 8 0
BBX 8 16 0 -2
BITMAP 
00
00
00
00
00
00
08
10
68
08
04
04
04
00
00
00
ENDCHAR
STARTCHAR U+0843
ENCODING 2115
SWIDTH 500 0
DWIDTH 8 0
BBX 8 16 0 -2
BITMAP 
00
00
00
00
00
00
00
44
3C
04
04
04
04
08
00
00
ENDCHAR
STARTCHAR U+0844
ENCODING 2116
SWIDTH 500 0
DWIDTH 8 0
BBX 8 16 0 -2
BITMAP 
00
00
00
00
00
00
00
3C
4C
12
12
24
04
08
10
00
ENDCHAR
STARTCHAR U+0845
ENCODING 2117
SWIDTH 500 0
DWIDTH 8 0
BBX 8 16 0 -2
BITMAP 
00
00
00
00
00
00
00
30
30
08
08
08
08
10
00
00
ENDCHAR
STARTCHAR U+0846
ENCODING 2118
SWIDTH 500 0
DWIDTH 8 0
BBX 8 16 0 -2
BITMAP 
00
00
00
00
00
00
00
08
08
08
08
08
08
10
00
00
ENDCHAR
STARTCHAR U+0847
ENCODING 2119
SWIDTH 500 0
DWIDTH 8 0
BBX 8 16 0 -2
BITMAP 
00
00
00
00
00
00
00
6C
6C
12
12
12
12
24
00
00
ENDCHAR
STARTCHAR U+0848
ENCODING 2120
SWIDTH 500 0
DWIDTH 8 0
BBX 8 16 0 -2
BITMAP 
00
00
00
00
00
00
10
20
2C
4C
44
44
44
38
00
00
ENDCHAR
STARTCHAR U+0849
ENCODING 2121
SWIDTH 500 0
DWIDTH 8 0
BBX 8 16 0 -2
BITMAP 
00
00
00
00
00
00
20
10
28
48
00
00
00
00
00
00
ENDCHAR
STARTCHAR U+084A
ENCODING 2122
SWIDTH 500 0
DWIDTH 8 0
BBX 8 16 0 -2
BITMAP 
00
00
00
00
00
00
00
14
1C
04
04
04
08
08
10
20
ENDCHAR
STARTCHAR U+084B
ENCODING 2123
SWIDTH 500 0
DWIDTH 8 0
BBX 8 16 0 -2
BITMAP 
00
00
00
00
00
08
08
10
10
20
20
20
20
18
00
00
ENDCHAR
STARTCHAR U+084C
ENCODING 2124
SWIDTH 500 0
DWIDTH 8 0
BBX 8 16 0 -2
BITMAP 
00
00
00
00
00
00
50
7C
12
12
22
44
04
08
10
60
ENDCHAR
STARTCHAR U+084D
ENCODING 2125
SWIDTH 500 0
DWIDTH 8 0
BBX 8 16 0 -2
BITMAP 
00
00
00
00
00
00
04
08
10
10
08
08
08
08
10
20
ENDCHAR
STARTCHAR U+084E
ENCODING 2126
SWIDTH 500 0
DWIDTH 8 0
BBX 8 16 0 -2
BITMAP 
00
00
00
00
00
00
00
30
50
1C
04
08
10
60
00
00
ENDCHAR
STARTCHAR U+084F
ENCODING 2127
SWIDTH 500 0
DWIDTH 8 0
BBX 8 16 0 -2
BITMAP 
00
00
00
00
00
00
00
44
44
28
10
00
00
00
00
00
ENDCHAR
STARTCHAR U+0850
ENCODING 2128
SWIDTH 500 0
DWIDTH 8 0
BBX 8 16 0 -2
BITMAP 
00
00
00
00
00
00
18
18
04
04
04
04
04
08
10
60
ENDCHAR
STARTCHAR U+0851
ENCODING 2129
SWIDTH 500 0
DWIDTH 8 0
BBX 8 16 0 -2
BITMAP 
00
00
00
00
00
00
4C
52
62
44
44
40
40
40
40
80
ENDCHAR
STARTCHAR U+0852
ENCODING 2130
SWIDTH 500 0
DWIDTH 8 0
BBX 8 16 0 -2
BITMAP 
00
00
00
00
00
40
7C
22
22
24
28
20
20
20
20
40
ENDCHAR
STARTCHAR U+0853
ENCODING 2131
SWIDTH 500 0
DWIDTH 8 0
BBX 8 16 0 -2
BITMAP 
00
00
00
00
00
00
00
44
3C
04
04
04
08
08
10
20
ENDCHAR
STARTCHAR U+0854
ENCODING 2132
SWIDTH 500 0
DWIDTH 8 0
BBX 8 16 0 -2
BITMAP 
00
00
00
00
00
00
42
4A
2A
32
22
24
28
30
00
00
ENDCHAR
STARTCHAR U+0855
ENCODING 2133
SWIDTH 500 0
DWIDTH 8 0
BBX 8 16 0 -2
BITMAP 
00
00
00
00
00
00
20
20
3C
22
22
20
20
20
20
40
ENDCHAR
STARTCHAR U+0856
ENCODING 2134
SWIDTH 1000 0
DWIDTH 16 0
BBX 16 16 0 -2
BITMAP 
0000
FFFF
CF73
B66D
B76D
B76D
CE33
FFFF
FFFF
CC33
B5EF
CC23
B7AD
CC33
FFFF
0000
ENDCHAR
STARTCHAR U+0857
ENCODING 2135
SWIDTH 500 0
DWIDTH 8 0
BBX 8 16 0 -2
BITMAP 
00
00
00
00
00
00
32
34
08
7E
08
08
08
08
08
10
ENDCHAR
STARTCHAR U+0858
ENCODING 2136
SWIDTH 500 0
DWIDTH 8 0
BBX 8 16 0 -2
BITMAP 
00
00
00
00
00
00
00
08
08
08
08
08
08
10
00
00
ENDCHAR
STARTCHAR U+0859
ENCODING 2137
SWIDTH 500 0
DWIDTH 8 0
BBX 8 16 0 -2
BITMAP 
00
00
00
00
00
00
00
24
24
24
24
24
24
28
00
00
ENDCHAR
STARTCHAR U+085A
ENCODING 2138
SWIDTH 500 0
DWIDTH 8 0
BBX 8 16 0 -2
BITMAP 
00
00
00
00
00
00
00
4A
4A
4A
4A
4A
4A
52
04
00
ENDCHAR
STARTCHAR U+085B
ENCODING 2139
SWIDTH 500 0
DWIDTH 8 0
BBX 8 16 0 -2
BITMAP 
00
00
00
00
00
00
00
00
00
7C
02
02
00
00
00
00
ENDCHAR
STARTCHAR U+085C
ENCODING 2140
SWIDTH 500 0
DWIDTH 8 0
BBX 8 16 0 -2
BITMAP 
00
00
00
00
00
00
00
00
70
10
1C
02
02
00
00
00
ENDCHAR
STARTCHAR U+085D
ENCODING 2141
SWIDTH 500 0
DWIDTH 8 0
BBX 8 16 0 -2
BITMAP 
00
00
00
00
00
00
00
20
40
7C
02
32
00
00
00
00
ENDCHAR
STARTCHAR U+085E
ENCODING 2142
SWIDTH 500 0
DWIDTH 8 0
BBX 8 16 0 -2
BITMAP 
00
00
00
00
00
04
04
68
68
10
10
10
10
2C
20
40
ENDCHAR
STARTCHAR U+085F
ENCODING 2143
SWIDTH 500 0
DWIDTH 8 0
BBX 8 16 0 -2
BITMAP 
00
00
00
00
00
00
20
40
7C
22
3A
08
7C
02
02
00
ENDCHAR
STARTCHAR U+089F
ENCODING 2207
SWIDTH 1000 0
DWIDTH 16 0
BBX 16 16 0 -2
BITMAP 
0000
FFFF
CF73
B66D
B76D
B76D
CE33
FFFF
FFFF
CE61
B5AF
CE23
B7AF
CE6F
FFFF
0000
ENDCHAR
STARTCHAR U+08A0
ENCODING 2208
SWIDTH 1000 0
DWIDTH 16 0
BBX 16 16 0 -2
BITMAP 
0000
FFFF
CF73
B66D
B76D
B76D
CE33
FFFF
FFFF
CC33
B5AD
CC2D
B5AD
CDB3
FFFF
0000
ENDCHAR
STARTCHAR U+08A1
ENCODING 2209
SWIDTH 1000 0
DWIDTH 16 0
BBX 16 16 0 -2
BITMAP 
0000
FFFF
CF73
B66D
B76D
B76D
CE33
FFFF
FFFF
CC3B
B5B3
CC3B
B5BB
CDB1
FFFF
0000
ENDCHAR
STARTCHAR U+08A2
ENCODING 2210
SWIDTH 1000 0
DWIDTH 16 0
BBX 16 16 0 -2
BITMAP 
0000
FFFF
CF73
B66D
B76D
B76D
CE33
FFFF
FFFF
CC21
B5BD
CC21
B5AF
CDA1
FFFF
0000
ENDCHAR
STARTCHAR U+08A3
ENCODING 2211
SWIDTH 1000 0
DWIDTH 16 0
BBX 16 16 0 -2
BITMAP 
0000
FFFF
CF73
B66D
B76D
B76D
CE33
FFFF
FFFF
CC23
B5BD
CC31
B5BD
CDA3
FFFF
0000
ENDCHAR
STARTCHAR U+08A4
ENCODING 2212
SWIDTH 1000 0
DWIDTH 16 0
BBX 16 16 0 -2
BITMAP 
0000
FFFF
CF73
B66D
B76D
B76D
CE33
FFFF
FFFF
CC2D
B5AD
CC21
B5BD
CDBD
FFFF
0000
ENDCHAR
ENDFONT
